<?xml version="1.0" encoding="utf-8"?>
<!-- Generator: Adobe Illustrator 19.2.1, SVG Export Plug-In . SVG Version: 6.00 Build 0)  -->
<svg version="1.1" id="Layer_1" xmlns="http://www.w3.org/2000/svg" xmlns:xlink="http://www.w3.org/1999/xlink" x="0px" y="0px"
	 viewBox="0 0 1360 510" style="enable-background:new 0 0 1360 510;" xml:space="preserve">
<style type="text/css">
	.st0{fill:#66CCFF;}
	.st1{fill:#0096FF;}
	.st2{fill:#FFFFFF;}
	.st3{fill:#0142ED;}
</style>
<g>
	<rect class="st0" width="680.7" height="510"/>
	<rect x="680" class="st1" width="680.7" height="510"/>
	<g>
		<path class="st1" d="M124.7,388.4h-21.4v-85.6h21.4V388.4z M124.7,302.8v-21.4h64.2v21.4H124.7z M124.7,409.8v-21.4h64.2v21.4
			H124.7z M167.5,345.6h42.8v42.8h-21.4V367h-21.4V345.6z M210.3,302.8v21.4h-21.4v-21.4H210.3z"/>
		<path class="st1" d="M253.1,409.8h-21.4v-107h21.4v42.8h64.2v-42.8h21.4v107h-21.4V367h-64.2V409.8z M253.1,302.8v-21.4h64.2v21.4
			H253.1z"/>
		<path class="st1" d="M381.5,409.8h-21.4V281.4h21.4v21.4h21.4v21.4h-21.4V409.8z M424.3,367h-21.4v-42.8h21.4V367z M424.3,324.2
			v-21.4h21.4v-21.4h21.4v128.4h-21.4v-85.6H424.3z"/>
		<path class="st1" d="M488.5,409.8V281.4h107v21.4h-85.6v21.4h64.2v21.4h-64.2v42.8h85.6v21.4H488.5z"/>
	</g>
	<g>
		<g>
			<path class="st2" d="M316.7,303.3v20.7h-20.7v-20.7H316.7z"/>
		</g>
		<g>
			<path class="st2" d="M145.2,367.3V388h-20.7v-20.7H145.2z"/>
		</g>
	</g>
	<g>
		<path class="st3" d="M166,344.1h45.8v45.8h-21.4v21.4h-67.2v-21.4h-21.4v-88.6h21.4v-21.4h67.2v21.4h21.4v24.4h-24.4v-21.4h-61.2
			v61.2h21.4v21.4h39.8v-18.4H166V344.1z M104.8,304.3v18.4h18.4v-18.4H104.8z M104.8,325.7v18.4h18.4v-18.4H104.8z M104.8,347.1
			v18.4h18.4v-18.4H104.8z M104.8,368.5v18.4h18.4v-18.4H104.8z M126.2,282.9v18.4h18.4v-18.4H126.2z M126.2,368.5v18.4h18.4v-18.4
			H126.2z M126.2,389.9v18.4h18.4v-18.4H126.2z M147.6,282.9v18.4H166v-18.4H147.6z M147.6,389.9v18.4H166v-18.4H147.6z M169,282.9
			v18.4h18.4v-18.4H169z M169,347.1v18.4h18.4v-18.4H169z M169,389.9v18.4h18.4v-18.4H169z M190.4,304.3v18.4h18.4v-18.4H190.4z
			 M190.4,347.1v18.4h18.4v-18.4H190.4z M190.4,368.5v18.4h18.4v-18.4H190.4z"/>
		<path class="st3" d="M315.8,368.5h-61.2v42.8h-24.4v-110h21.4v-21.4h67.2v21.4h21.4v110h-24.4V368.5z M233.2,304.3v18.4h18.4
			v-18.4H233.2z M233.2,325.7v18.4h18.4v-18.4H233.2z M233.2,347.1v18.4h18.4v-18.4H233.2z M233.2,368.5v18.4h18.4v-18.4H233.2z
			 M233.2,389.9v18.4h18.4v-18.4H233.2z M254.6,282.9v18.4H273v-18.4H254.6z M294.4,304.3h-39.8v39.8h61.2v-18.4h-21.4V304.3z
			 M254.6,347.1v18.4H273v-18.4H254.6z M276,282.9v18.4h18.4v-18.4H276z M276,347.1v18.4h18.4v-18.4H276z M297.4,282.9v18.4h18.4
			v-18.4H297.4z M297.4,304.3v18.4h18.4v-18.4H297.4z M297.4,347.1v18.4h18.4v-18.4H297.4z M318.8,304.3v18.4h18.4v-18.4H318.8z
			 M318.8,325.7v18.4h18.4v-18.4H318.8z M318.8,347.1v18.4h18.4v-18.4H318.8z M318.8,368.5v18.4h18.4v-18.4H318.8z M318.8,389.9
			v18.4h18.4v-18.4H318.8z"/>
		<path class="st3" d="M401.4,368.5v-42.8H383v85.6h-24.4V279.9H383v21.4h21.4v21.4h18.4v-21.4h21.4v-21.4h24.4v131.4h-24.4v-85.6
			h-18.4v42.8H401.4z M361.6,282.9v18.4H380v-18.4H361.6z M361.6,304.3v18.4H380v-18.4H361.6z M361.6,325.7v18.4H380v-18.4H361.6z
			 M361.6,347.1v18.4H380v-18.4H361.6z M361.6,368.5v18.4H380v-18.4H361.6z M361.6,389.9v18.4H380v-18.4H361.6z M383,304.3v18.4
			h18.4v-18.4H383z M404.4,325.7v18.4h18.4v-18.4H404.4z M404.4,347.1v18.4h18.4v-18.4H404.4z M425.8,304.3v18.4h18.4v-18.4H425.8z
			 M447.2,282.9v18.4h18.4v-18.4H447.2z M447.2,304.3v18.4h18.4v-18.4H447.2z M447.2,325.7v18.4h18.4v-18.4H447.2z M447.2,347.1
			v18.4h18.4v-18.4H447.2z M447.2,368.5v18.4h18.4v-18.4H447.2z M447.2,389.9v18.4h18.4v-18.4H447.2z"/>
		<path class="st3" d="M511.4,347.1v39.8H597v24.4H487V279.9h110v24.4h-85.6v18.4h64.2v24.4H511.4z M490,282.9v18.4h18.4v-18.4H490z
			 M490,304.3v18.4h18.4v-18.4H490z M490,325.7v18.4h18.4v-18.4H490z M490,347.1v18.4h18.4v-18.4H490z M490,368.5v18.4h18.4v-18.4
			H490z M490,389.9v18.4h18.4v-18.4H490z M511.4,282.9v18.4h18.4v-18.4H511.4z M511.4,325.7v18.4h18.4v-18.4H511.4z M511.4,389.9
			v18.4h18.4v-18.4H511.4z M532.8,282.9v18.4h18.4v-18.4H532.8z M532.8,325.7v18.4h18.4v-18.4H532.8z M532.8,389.9v18.4h18.4v-18.4
			H532.8z M554.2,282.9v18.4h18.4v-18.4H554.2z M554.2,325.7v18.4h18.4v-18.4H554.2z M554.2,389.9v18.4h18.4v-18.4H554.2z
			 M575.6,282.9v18.4H594v-18.4H575.6z M575.6,389.9v18.4H594v-18.4H575.6z"/>
		<path class="st3" d="M251.6,444.7h5.1c2.4,0,3.9,1.2,3.9,3.2c0,1.7-1,2.7-2.5,3c1.6,0.2,3.2,1.1,3.2,3.3c0,2.4-2.2,3.6-4.8,3.6
			h-4.9V444.7z M256.1,450.2c1.3,0,1.7-0.9,1.7-1.7c0-0.9-0.7-1.5-1.8-1.5h-1.7v3.3H256.1z M256.4,455.6c1.4,0,1.9-0.9,1.9-1.8
			c0-0.8-0.6-1.6-1.9-1.6h-2.1v3.4H256.4z"/>
		<path class="st3" d="M263.6,457.8v-13.1h2.9v13.1H263.6z"/>
		<path class="st3" d="M274.8,447.1v10.7h-2.9v-10.7h-3.7v-2.4h10.4v2.4H274.8z"/>
		<path class="st3" d="M286,458.1c-3.7,0-6.5-2.6-6.5-6.8c0-4.1,2.8-6.8,6.5-6.8c2.4,0,4.2,0.6,5.4,2.3l-2.1,1.7
			c-0.7-0.9-1.7-1.4-3.2-1.4c-2.4,0-3.7,1.6-3.7,4c0,3.1,1.9,4.4,3.9,4.4c1.5,0,2.6-0.7,3.3-1.7l2.1,1.4
			C290.8,456.8,288.9,458.1,286,458.1z"/>
		<path class="st3" d="M299.6,458.1c-4.1,0-6.8-3-6.8-6.9c0-4,3-6.7,6.6-6.7c4,0,6.8,2.7,6.8,6.7
			C306.3,455.4,303.2,458.1,299.6,458.1z M299.7,455.6c2.1,0,3.8-1.5,3.8-4.3c0-2.5-1.8-4.2-4.1-4.2c-2.1,0-3.7,1.4-3.7,4.1
			C295.7,453.9,297.4,455.6,299.7,455.6z"/>
		<path class="st3" d="M319.6,453.1c0,3.1-2.6,5-5.6,5c-2.9,0-5.5-1.8-5.5-5v-8.4h2.8v8.2c0,1.7,1.2,2.6,2.7,2.6
			c1.5,0,2.8-0.9,2.8-2.6v-8.2h2.8V453.1z"/>
		<path class="st3" d="M331.8,457.8l-6.5-8.2v8.2h-2.7v-13.1h2.2l6.4,8.1v-8.1h2.6v13.1H331.8z"/>
		<path class="st3" d="M342.1,447.1v10.7h-2.9v-10.7h-3.7v-2.4h10.4v2.4H342.1z"/>
		<path class="st3" d="M364.7,450.8v4.3c-1,1.7-3.3,3-6,3c-3.9,0-6.8-2.5-6.8-6.8c0-4.2,3-6.8,6.7-6.8c2.6,0,4.2,1.1,5,2l-1.8,2
			c-0.6-0.7-1.5-1.3-3.3-1.3c-2.1,0-3.8,1.3-3.8,4c0,3,1.7,4.5,4,4.5c1.5,0,2.8-0.6,3.3-1.5v-1h-3.3v-2.3H364.7z"/>
		<path class="st3" d="M367.1,444.7h5c2.2,0,4.2,1.3,4.2,3.7c0,2.2-1.4,3.4-2.8,3.6l0,0.1l4.1,5.8h-3.3l-3.3-5h-1v5h-2.9V444.7z
			 M371.5,450.6c1,0,1.9-0.6,1.9-1.9c0-1.3-0.9-1.8-1.8-1.8h-1.7v3.7H371.5z"/>
		<path class="st3" d="M379.1,457.8v-13.1h2.9v13.1H379.1z"/>
		<path class="st3" d="M385.1,444.7h4.7c4.4,0,6.8,2.6,6.8,6.4c0,3.8-2.5,6.7-7.1,6.7h-4.3V444.7z M389.5,455.6
			c2.9,0,4.1-2.1,4.1-4.4c0-2.5-1.4-4.2-3.9-4.2H388v8.7H389.5z"/>
		<path class="st3" d="M408.3,458.1c-2.4,0-4.1-0.6-5.2-1.6l1.6-2.3c0.8,0.7,2.1,1.5,3.7,1.5c1.1,0,1.8-0.5,1.8-1.2
			c0-0.8-0.5-1.2-2.4-2c-3.2-1.2-4.3-2.1-4.3-4.4c0-2.3,1.9-3.6,4.7-3.6c2.2,0,3.6,0.8,4.5,1.5l-1.4,2.4c-1-0.7-2.1-1.3-3.3-1.3
			c-1.1,0-1.7,0.4-1.7,1.1c0,0.8,0.8,1.2,2.8,2c2.8,1.1,3.9,2,3.9,4.2C413.2,456.7,410.9,458.1,408.3,458.1z"/>
		<path class="st3" d="M415.7,457.8v-13.1h2.9v13.1H415.7z"/>
		<path class="st3" d="M430.8,457.8l-6.5-8.2v8.2h-2.7v-13.1h2.2l6.4,8.1v-8.1h2.6v13.1H430.8z"/>
		<path class="st3" d="M447.9,450.8v4.3c-1,1.7-3.3,3-6,3c-3.9,0-6.8-2.5-6.8-6.8c0-4.2,3-6.8,6.7-6.8c2.6,0,4.2,1.1,5,2l-1.8,2
			c-0.6-0.7-1.5-1.3-3.3-1.3c-2.1,0-3.8,1.3-3.8,4c0,3,1.7,4.5,4,4.5c1.5,0,2.8-0.6,3.3-1.5v-1H442v-2.3H447.9z"/>
		<path class="st3" d="M450.2,457.8v-13.1h2.9v10.8h5.6v2.4H450.2z"/>
		<path class="st3" d="M460.5,457.8v-13.1h8.3v2.4h-5.5v3.1h5.1v2.3h-5.1v3h5.8v2.4H460.5z"/>
	</g>
	<g>
		<g>
			<path class="st1" d="M124.7,184.4h-21.4V98.8h21.4V184.4z M124.7,98.8V77.4h64.2v21.4H124.7z M124.7,205.8v-21.4h64.2v21.4H124.7
				z M167.5,141.6h42.8v42.8h-21.4V163h-21.4V141.6z M210.3,98.8v21.4h-21.4V98.8H210.3z"/>
			<path class="st1" d="M253.1,205.8h-21.4v-107h21.4v42.8h64.2V98.8h21.4v107h-21.4V163h-64.2V205.8z M253.1,98.8V77.4h64.2v21.4
				H253.1z"/>
			<path class="st1" d="M381.5,205.8h-21.4V77.4h21.4v21.4h21.4v21.4h-21.4V205.8z M424.3,163h-21.4v-42.8h21.4V163z M424.3,120.2
				V98.8h21.4V77.4h21.4v128.4h-21.4v-85.6H424.3z"/>
			<path class="st1" d="M488.5,205.8V77.4h107v21.4h-85.6v21.4h64.2v21.4h-64.2v42.8h85.6v21.4H488.5z"/>
		</g>
		<g>
			<path class="st3" d="M166,140.1h45.8v45.8h-21.4v21.4h-67.2v-21.4h-21.4V97.3h21.4V75.9h67.2v21.4h21.4v24.4h-24.4v-21.4h-61.2
				v82.6h61.2v-18.4H166V140.1z M104.8,100.3v18.4h18.4v-18.4H104.8z M104.8,121.7v18.4h18.4v-18.4H104.8z M104.8,143.1v18.4h18.4
				v-18.4H104.8z M104.8,164.5v18.4h18.4v-18.4H104.8z M126.2,78.9v18.4h18.4V78.9H126.2z M126.2,185.9v18.4h18.4v-18.4H126.2z
				 M147.6,78.9v18.4H166V78.9H147.6z M147.6,185.9v18.4H166v-18.4H147.6z M169,78.9v18.4h18.4V78.9H169z M169,143.1v18.4h18.4
				v-18.4H169z M169,185.9v18.4h18.4v-18.4H169z M190.4,100.3v18.4h18.4v-18.4H190.4z M190.4,143.1v18.4h18.4v-18.4H190.4z
				 M190.4,164.5v18.4h18.4v-18.4H190.4z"/>
			<path class="st3" d="M315.8,164.5h-61.2v42.8h-24.4v-110h21.4V75.9h67.2v21.4h21.4v110h-24.4V164.5z M233.2,100.3v18.4h18.4
				v-18.4H233.2z M233.2,121.7v18.4h18.4v-18.4H233.2z M233.2,143.1v18.4h18.4v-18.4H233.2z M233.2,164.5v18.4h18.4v-18.4H233.2z
				 M233.2,185.9v18.4h18.4v-18.4H233.2z M254.6,78.9v18.4H273V78.9H254.6z M315.8,140.1v-39.8h-61.2v39.8H315.8z M254.6,143.1v18.4
				H273v-18.4H254.6z M276,78.9v18.4h18.4V78.9H276z M276,143.1v18.4h18.4v-18.4H276z M297.4,78.9v18.4h18.4V78.9H297.4z
				 M297.4,143.1v18.4h18.4v-18.4H297.4z M318.8,100.3v18.4h18.4v-18.4H318.8z M318.8,121.7v18.4h18.4v-18.4H318.8z M318.8,143.1
				v18.4h18.4v-18.4H318.8z M318.8,164.5v18.4h18.4v-18.4H318.8z M318.8,185.9v18.4h18.4v-18.4H318.8z"/>
			<path class="st3" d="M401.4,164.5v-42.8H383v85.6h-24.4V75.9H383v21.4h21.4v21.4h18.4V97.3h21.4V75.9h24.4v131.4h-24.4v-85.6
				h-18.4v42.8H401.4z M361.6,78.9v18.4H380V78.9H361.6z M361.6,100.3v18.4H380v-18.4H361.6z M361.6,121.7v18.4H380v-18.4H361.6z
				 M361.6,143.1v18.4H380v-18.4H361.6z M361.6,164.5v18.4H380v-18.4H361.6z M361.6,185.9v18.4H380v-18.4H361.6z M383,100.3v18.4
				h18.4v-18.4H383z M404.4,121.7v18.4h18.4v-18.4H404.4z M404.4,143.1v18.4h18.4v-18.4H404.4z M425.8,100.3v18.4h18.4v-18.4H425.8z
				 M447.2,78.9v18.4h18.4V78.9H447.2z M447.2,100.3v18.4h18.4v-18.4H447.2z M447.2,121.7v18.4h18.4v-18.4H447.2z M447.2,143.1v18.4
				h18.4v-18.4H447.2z M447.2,164.5v18.4h18.4v-18.4H447.2z M447.2,185.9v18.4h18.4v-18.4H447.2z"/>
			<path class="st3" d="M511.4,143.1v39.8H597v24.4H487V75.9h110v24.4h-85.6v18.4h64.2v24.4H511.4z M490,78.9v18.4h18.4V78.9H490z
				 M490,100.3v18.4h18.4v-18.4H490z M490,121.7v18.4h18.4v-18.4H490z M490,143.1v18.4h18.4v-18.4H490z M490,164.5v18.4h18.4v-18.4
				H490z M490,185.9v18.4h18.4v-18.4H490z M511.4,78.9v18.4h18.4V78.9H511.4z M511.4,121.7v18.4h18.4v-18.4H511.4z M511.4,185.9
				v18.4h18.4v-18.4H511.4z M532.8,78.9v18.4h18.4V78.9H532.8z M532.8,121.7v18.4h18.4v-18.4H532.8z M532.8,185.9v18.4h18.4v-18.4
				H532.8z M554.2,78.9v18.4h18.4V78.9H554.2z M554.2,121.7v18.4h18.4v-18.4H554.2z M554.2,185.9v18.4h18.4v-18.4H554.2z
				 M575.6,78.9v18.4H594V78.9H575.6z M575.6,185.9v18.4H594v-18.4H575.6z"/>
		</g>
	</g>
	<g>
		<path class="st2" d="M205.3,269.2c-2.4,0-4.1-0.6-5.2-1.6l1.6-2.3c0.8,0.7,2.1,1.5,3.7,1.5c1.1,0,1.8-0.5,1.8-1.2
			c0-0.8-0.5-1.2-2.4-2c-3.2-1.2-4.3-2.1-4.3-4.4c0-2.3,1.9-3.6,4.7-3.6c2.2,0,3.6,0.8,4.5,1.5l-1.4,2.4c-1-0.7-2.1-1.3-3.3-1.3
			c-1.1,0-1.7,0.4-1.7,1.1c0,0.8,0.8,1.2,2.8,2c2.8,1.1,3.9,2,3.9,4.2C210.2,267.9,207.9,269.2,205.3,269.2z"/>
		<path class="st2" d="M216.9,269.2c-2.4,0-4.1-0.6-5.2-1.6l1.6-2.3c0.8,0.7,2.1,1.5,3.7,1.5c1.1,0,1.8-0.5,1.8-1.2
			c0-0.8-0.5-1.2-2.4-2c-3.2-1.2-4.3-2.1-4.3-4.4c0-2.3,1.9-3.6,4.7-3.6c2.2,0,3.6,0.8,4.5,1.5l-1.4,2.4c-1-0.7-2.1-1.3-3.3-1.3
			c-1.1,0-1.7,0.4-1.7,1.1c0,0.8,0.8,1.2,2.8,2c2.8,1.1,3.9,2,3.9,4.2C221.8,267.9,219.5,269.2,216.9,269.2z"/>
		<path class="st2" d="M228.2,269.2c-2.8,0-4.9-2.2-4.9-6.7c0-3.8,1.7-6.9,5-6.9c3.4,0,4.9,2.8,4.9,6.7
			C233.3,266.6,231.6,269.2,228.2,269.2z M228.2,266.8c1.5,0,2.2-1.3,2.2-4.2c0-3-0.7-4.5-2.2-4.5c-1.4,0-2.1,1.3-2.1,4.4
			C226.1,265.5,226.9,266.8,228.2,266.8z"/>
		<path class="st2" d="M242.7,265.8v3.2h-2.6v-3.2h-5.9v-2l6.3-8.1h2.1v7.8h2v2.3H242.7z M240.2,259.5l-3.2,4.2h3.2V259.5z"/>
	</g>
	<g>
		<g>
			<path class="st0" d="M774.7,298.3v-21.4h64.2v21.4h-42.8v85.6h42.8v21.4h-64.2v-21.4h-21.4v-85.6H774.7z M838.9,298.3h21.4v21.4
				h-21.4V298.3z M838.9,362.5h21.4v21.4h-21.4V362.5z"/>
			<path class="st0" d="M903.1,298.3v-21.4h64.2v21.4h-42.8v85.6h42.8v21.4h-64.2v-21.4h-21.4v-85.6H903.1z M988.7,383.9h-21.4
				v-85.6h21.4V383.9z"/>
			<path class="st0" d="M1010.1,405.3V276.9h85.6v21.4h-42.8v85.6h42.8v21.4H1010.1z M1117.1,383.9h-21.4v-85.6h21.4V383.9z"/>
			<path class="st0" d="M1138.5,405.3V276.9h107v21.4h-64.2v21.4h42.8v21.4h-42.8v42.8h64.2v21.4H1138.5z"/>
		</g>
	</g>
	<g>
		<path class="st3" d="M797.6,299.8v82.6h39.8V361h24.4v24.4h-21.4v21.4h-67.2v-21.4h-21.4v-88.6h21.4v-21.4h67.2v21.4h21.4v24.4
			h-24.4v-21.4H797.6z M773.2,299.8h-18.4v18.4h18.4V299.8z M773.2,321.2h-18.4v18.4h18.4V321.2z M773.2,342.6h-18.4V361h18.4V342.6
			z M773.2,364h-18.4v18.4h18.4V364z M794.6,278.4h-18.4v18.4h18.4V278.4z M794.6,299.8h-18.4v18.4h18.4V299.8z M794.6,321.2h-18.4
			v18.4h18.4V321.2z M794.6,342.6h-18.4V361h18.4V342.6z M794.6,364h-18.4v18.4h18.4V364z M794.6,385.4h-18.4v18.4h18.4V385.4z
			 M816,278.4h-18.4v18.4H816V278.4z M816,385.4h-18.4v18.4H816V385.4z M837.4,278.4H819v18.4h18.4V278.4z M837.4,385.4H819v18.4
			h18.4V385.4z M858.8,299.8h-18.4v18.4h18.4V299.8z M858.8,364h-18.4v18.4h18.4V364z"/>
		<path class="st3" d="M968.8,275.4v21.4h21.4v88.6h-21.4v21.4h-67.2v-21.4h-21.4v-88.6h21.4v-21.4H968.8z M901.6,299.8h-18.4v18.4
			h18.4V299.8z M901.6,321.2h-18.4v18.4h18.4V321.2z M901.6,342.6h-18.4V361h18.4V342.6z M901.6,364h-18.4v18.4h18.4V364z
			 M923,278.4h-18.4v18.4H923V278.4z M923,299.8h-18.4v18.4H923V299.8z M923,321.2h-18.4v18.4H923V321.2z M923,342.6h-18.4V361H923
			V342.6z M923,364h-18.4v18.4H923V364z M923,385.4h-18.4v18.4H923V385.4z M944.4,278.4H926v18.4h18.4V278.4z M926,299.8v82.6h39.8
			v-82.6H926z M944.4,385.4H926v18.4h18.4V385.4z M965.8,278.4h-18.4v18.4h18.4V278.4z M965.8,385.4h-18.4v18.4h18.4V385.4z
			 M987.2,299.8h-18.4v18.4h18.4V299.8z M987.2,321.2h-18.4v18.4h18.4V321.2z M987.2,342.6h-18.4V361h18.4V342.6z M987.2,364h-18.4
			v18.4h18.4V364z"/>
		<path class="st3" d="M1097.2,275.4v21.4h21.4v88.6h-21.4v21.4h-88.6V275.4H1097.2z M1030,278.4h-18.4v18.4h18.4V278.4z
			 M1030,299.8h-18.4v18.4h18.4V299.8z M1030,321.2h-18.4v18.4h18.4V321.2z M1030,342.6h-18.4V361h18.4V342.6z M1030,364h-18.4v18.4
			h18.4V364z M1030,385.4h-18.4v18.4h18.4V385.4z M1051.4,278.4H1033v18.4h18.4V278.4z M1051.4,299.8H1033v18.4h18.4V299.8z
			 M1051.4,321.2H1033v18.4h18.4V321.2z M1051.4,342.6H1033V361h18.4V342.6z M1051.4,364H1033v18.4h18.4V364z M1051.4,385.4H1033
			v18.4h18.4V385.4z M1072.8,278.4h-18.4v18.4h18.4V278.4z M1054.4,299.8v82.6h39.8v-82.6H1054.4z M1072.8,385.4h-18.4v18.4h18.4
			V385.4z M1094.2,278.4h-18.4v18.4h18.4V278.4z M1094.2,385.4h-18.4v18.4h18.4V385.4z M1115.6,299.8h-18.4v18.4h18.4V299.8z
			 M1115.6,321.2h-18.4v18.4h18.4V321.2z M1115.6,342.6h-18.4V361h18.4V342.6z M1115.6,364h-18.4v18.4h18.4V364z"/>
		<path class="st3" d="M1182.8,342.6v39.8h64.2v24.4h-110V275.4h110v24.4h-64.2v18.4h42.8v24.4H1182.8z M1158.4,278.4H1140v18.4
			h18.4V278.4z M1158.4,299.8H1140v18.4h18.4V299.8z M1158.4,321.2H1140v18.4h18.4V321.2z M1158.4,342.6H1140V361h18.4V342.6z
			 M1158.4,364H1140v18.4h18.4V364z M1158.4,385.4H1140v18.4h18.4V385.4z M1179.8,278.4h-18.4v18.4h18.4V278.4z M1179.8,299.8h-18.4
			v18.4h18.4V299.8z M1179.8,321.2h-18.4v18.4h18.4V321.2z M1179.8,342.6h-18.4V361h18.4V342.6z M1179.8,364h-18.4v18.4h18.4V364z
			 M1179.8,385.4h-18.4v18.4h18.4V385.4z M1201.2,278.4h-18.4v18.4h18.4V278.4z M1201.2,321.2h-18.4v18.4h18.4V321.2z M1201.2,385.4
			h-18.4v18.4h18.4V385.4z M1222.6,278.4h-18.4v18.4h18.4V278.4z M1222.6,321.2h-18.4v18.4h18.4V321.2z M1222.6,385.4h-18.4v18.4
			h18.4V385.4z M1244,278.4h-18.4v18.4h18.4V278.4z M1244,385.4h-18.4v18.4h18.4V385.4z"/>
		<path class="st3" d="M897.4,440.1h5.1c2.4,0,3.9,1.2,3.9,3.2c0,1.7-1,2.7-2.5,3c1.6,0.2,3.2,1.1,3.2,3.3c0,2.4-2.2,3.6-4.8,3.6
			h-4.9V440.1z M901.9,445.6c1.3,0,1.7-0.9,1.7-1.7c0-0.9-0.7-1.5-1.8-1.5h-1.7v3.3H901.9z M902.3,451.1c1.4,0,1.9-0.9,1.9-1.8
			c0-0.8-0.6-1.6-1.9-1.6h-2.1v3.4H902.3z"/>
		<path class="st3" d="M909.4,453.3v-13.1h2.9v13.1H909.4z"/>
		<path class="st3" d="M920.6,442.6v10.7h-2.9v-10.7H914v-2.4h10.4v2.4H920.6z"/>
		<path class="st3" d="M931.8,453.5c-3.7,0-6.5-2.6-6.5-6.8c0-4.1,2.8-6.8,6.5-6.8c2.4,0,4.2,0.6,5.4,2.3l-2.1,1.7
			c-0.7-0.9-1.7-1.4-3.2-1.4c-2.4,0-3.7,1.6-3.7,4c0,3.1,1.9,4.4,3.9,4.4c1.5,0,2.6-0.7,3.3-1.7l2.1,1.4
			C936.6,452.2,934.7,453.5,931.8,453.5z"/>
		<path class="st3" d="M945.5,453.5c-4.1,0-6.8-3-6.8-6.9c0-4,3-6.7,6.6-6.7c4,0,6.8,2.7,6.8,6.7C952.1,450.8,949,453.5,945.5,453.5
			z M945.5,451c2.1,0,3.8-1.5,3.8-4.3c0-2.5-1.8-4.2-4.1-4.2c-2.1,0-3.7,1.4-3.7,4.1C941.5,449.4,943.2,451,945.5,451z"/>
		<path class="st3" d="M965.5,448.5c0,3.1-2.6,5-5.6,5c-2.9,0-5.5-1.8-5.5-5v-8.4h2.8v8.2c0,1.7,1.2,2.6,2.7,2.6
			c1.5,0,2.8-0.9,2.8-2.6v-8.2h2.8V448.5z"/>
		<path class="st3" d="M977.6,453.3l-6.5-8.2v8.2h-2.7v-13.1h2.2l6.4,8.1v-8.1h2.6v13.1H977.6z"/>
		<path class="st3" d="M987.9,442.6v10.7H985v-10.7h-3.7v-2.4h10.4v2.4H987.9z"/>
		<path class="st3" d="M1010.5,446.2v4.3c-1,1.7-3.3,3-6,3c-3.9,0-6.8-2.5-6.8-6.8c0-4.2,3-6.8,6.7-6.8c2.6,0,4.2,1.1,5,2l-1.8,2
			c-0.6-0.7-1.5-1.4-3.3-1.4c-2.1,0-3.8,1.3-3.8,4c0,3,1.7,4.5,4,4.5c1.5,0,2.8-0.6,3.3-1.5v-1h-3.3v-2.3H1010.5z"/>
		<path class="st3" d="M1012.9,440.1h5c2.2,0,4.2,1.3,4.2,3.7c0,2.2-1.4,3.4-2.8,3.6l0,0.1l4.1,5.8h-3.3l-3.3-5h-1v5h-2.9V440.1z
			 M1017.3,446.1c1,0,1.9-0.6,1.9-1.9c0-1.3-0.9-1.8-1.8-1.8h-1.7v3.7H1017.3z"/>
		<path class="st3" d="M1024.9,453.3v-13.1h2.9v13.1H1024.9z"/>
		<path class="st3" d="M1030.9,440.1h4.7c4.4,0,6.8,2.6,6.8,6.4c0,3.8-2.5,6.7-7.1,6.7h-4.3V440.1z M1035.3,451.1
			c2.9,0,4.1-2.1,4.1-4.4c0-2.5-1.4-4.2-3.9-4.2h-1.7v8.7H1035.3z"/>
		<path class="st3" d="M1049.8,440.1h4.7c4.4,0,6.8,2.6,6.8,6.4c0,3.8-2.5,6.7-7.1,6.7h-4.3V440.1z M1054.2,451.1
			c2.9,0,4.1-2.1,4.1-4.4c0-2.5-1.4-4.2-3.9-4.2h-1.7v8.7H1054.2z"/>
		<path class="st3" d="M1069.6,453.5c-4.1,0-6.8-3-6.8-6.9c0-4,3-6.7,6.6-6.7c4,0,6.8,2.7,6.8,6.7
			C1076.3,450.8,1073.2,453.5,1069.6,453.5z M1069.7,451c2.1,0,3.8-1.5,3.8-4.3c0-2.5-1.8-4.2-4.1-4.2c-2.1,0-3.7,1.4-3.7,4.1
			C1065.7,449.4,1067.4,451,1069.7,451z"/>
		<path class="st3" d="M1089.6,448.5c0,3.1-2.6,5-5.6,5c-2.9,0-5.5-1.8-5.5-5v-8.4h2.8v8.2c0,1.7,1.2,2.6,2.7,2.6
			c1.5,0,2.8-0.9,2.8-2.6v-8.2h2.8V448.5z"/>
		<path class="st3" d="M1092.6,440.1h5.1c2.4,0,3.9,1.2,3.9,3.2c0,1.7-1,2.7-2.5,3c1.6,0.2,3.2,1.1,3.2,3.3c0,2.4-2.2,3.6-4.8,3.6
			h-4.9V440.1z M1097,445.6c1.3,0,1.7-0.9,1.7-1.7c0-0.9-0.7-1.5-1.8-1.5h-1.7v3.3H1097z M1097.4,451.1c1.4,0,1.9-0.9,1.9-1.8
			c0-0.8-0.6-1.6-1.9-1.6h-2.1v3.4H1097.4z"/>
		<path class="st3" d="M1104.5,453.3v-13.1h2.9v10.8h5.6v2.4H1104.5z"/>
		<path class="st3" d="M1114.7,453.3v-13.1h8.3v2.4h-5.5v3.1h5.1v2.3h-5.1v3h5.8v2.4H1114.7z"/>
	</g>
	<g>
		<g>
			<path class="st0" d="M774.7,94.2V72.8h64.2v21.4h-42.8v85.6h42.8v21.4h-64.2v-21.4h-21.4V94.2H774.7z M838.9,94.2h21.4v21.4
				h-21.4V94.2z M838.9,158.4h21.4v21.4h-21.4V158.4z"/>
			<path class="st0" d="M988.7,179.8h-21.4v-64.2h-21.4V94.2h-21.4v85.6h42.8v21.4h-64.2v-21.4h-21.4V94.2h21.4V72.8h64.2v21.4h21.4
				V179.8z"/>
			<path class="st0" d="M1095.7,201.2h-85.6V72.8h85.6v21.4h21.4v85.6h-21.4v-64.2h-21.4V94.2h-21.4v85.6h42.8V201.2z"/>
			<path class="st0" d="M1138.5,201.2V72.8h107v21.4h-64.2v21.4h42.8V137h-42.8v42.8h64.2v21.4H1138.5z"/>
		</g>
	</g>
	<g>
		<path class="st3" d="M797.6,95.7v82.6h39.8v-21.4h24.4v24.4h-21.4v21.4h-67.2v-21.4h-21.4V92.7h21.4V71.3h67.2v21.4h21.4v24.4
			h-24.4V95.7H797.6z M773.2,95.7h-18.4v18.4h18.4V95.7z M773.2,117.1h-18.4v18.4h18.4V117.1z M773.2,138.5h-18.4v18.4h18.4V138.5z
			 M773.2,159.9h-18.4v18.4h18.4V159.9z M794.6,74.3h-18.4v18.4h18.4V74.3z M794.6,95.7h-18.4v18.4h18.4V95.7z M794.6,117.1h-18.4
			v18.4h18.4V117.1z M794.6,138.5h-18.4v18.4h18.4V138.5z M794.6,159.9h-18.4v18.4h18.4V159.9z M794.6,181.3h-18.4v18.4h18.4V181.3z
			 M816,74.3h-18.4v18.4H816V74.3z M816,181.3h-18.4v18.4H816V181.3z M837.4,74.3H819v18.4h18.4V74.3z M837.4,181.3H819v18.4h18.4
			V181.3z M858.8,95.7h-18.4v18.4h18.4V95.7z M858.8,159.9h-18.4v18.4h18.4V159.9z"/>
		<path class="st3" d="M968.8,92.7h21.4v88.6h-21.4v21.4h-67.2v-21.4h-21.4V92.7h21.4V71.3h67.2V92.7z M901.6,95.7h-18.4v18.4h18.4
			V95.7z M901.6,117.1h-18.4v18.4h18.4V117.1z M901.6,138.5h-18.4v18.4h18.4V138.5z M901.6,159.9h-18.4v18.4h18.4V159.9z M923,74.3
			h-18.4v18.4H923V74.3z M923,95.7h-18.4v18.4H923V95.7z M923,117.1h-18.4v18.4H923V117.1z M923,138.5h-18.4v18.4H923V138.5z
			 M923,159.9h-18.4v18.4H923V159.9z M923,181.3h-18.4v18.4H923V181.3z M944.4,74.3H926v18.4h18.4V74.3z M926,95.7v82.6h39.8v-61.2
			h-21.4V95.7H926z M944.4,181.3H926v18.4h18.4V181.3z M965.8,74.3h-18.4v18.4h18.4V74.3z M965.8,95.7h-18.4v18.4h18.4V95.7z
			 M965.8,181.3h-18.4v18.4h18.4V181.3z M987.2,95.7h-18.4v18.4h18.4V95.7z M987.2,117.1h-18.4v18.4h18.4V117.1z M987.2,138.5h-18.4
			v18.4h18.4V138.5z M987.2,159.9h-18.4v18.4h18.4V159.9z"/>
		<path class="st3" d="M1097.2,92.7h21.4v88.6h-21.4v21.4h-88.6V71.3h88.6V92.7z M1030,74.3h-18.4v18.4h18.4V74.3z M1030,95.7h-18.4
			v18.4h18.4V95.7z M1030,117.1h-18.4v18.4h18.4V117.1z M1030,138.5h-18.4v18.4h18.4V138.5z M1030,159.9h-18.4v18.4h18.4V159.9z
			 M1030,181.3h-18.4v18.4h18.4V181.3z M1051.4,74.3H1033v18.4h18.4V74.3z M1051.4,95.7H1033v18.4h18.4V95.7z M1051.4,117.1H1033
			v18.4h18.4V117.1z M1051.4,138.5H1033v18.4h18.4V138.5z M1051.4,159.9H1033v18.4h18.4V159.9z M1051.4,181.3H1033v18.4h18.4V181.3z
			 M1072.8,74.3h-18.4v18.4h18.4V74.3z M1054.4,95.7v82.6h39.8v-61.2h-21.4V95.7H1054.4z M1072.8,181.3h-18.4v18.4h18.4V181.3z
			 M1094.2,74.3h-18.4v18.4h18.4V74.3z M1094.2,95.7h-18.4v18.4h18.4V95.7z M1094.2,181.3h-18.4v18.4h18.4V181.3z M1115.6,95.7
			h-18.4v18.4h18.4V95.7z M1115.6,117.1h-18.4v18.4h18.4V117.1z M1115.6,138.5h-18.4v18.4h18.4V138.5z M1115.6,159.9h-18.4v18.4
			h18.4V159.9z"/>
		<path class="st3" d="M1182.8,138.5v39.8h64.2v24.4h-110V71.3h110v24.4h-64.2v18.4h42.8v24.4H1182.8z M1158.4,74.3H1140v18.4h18.4
			V74.3z M1158.4,95.7H1140v18.4h18.4V95.7z M1158.4,117.1H1140v18.4h18.4V117.1z M1158.4,138.5H1140v18.4h18.4V138.5z
			 M1158.4,159.9H1140v18.4h18.4V159.9z M1158.4,181.3H1140v18.4h18.4V181.3z M1179.8,74.3h-18.4v18.4h18.4V74.3z M1179.8,95.7
			h-18.4v18.4h18.4V95.7z M1179.8,117.1h-18.4v18.4h18.4V117.1z M1179.8,138.5h-18.4v18.4h18.4V138.5z M1179.8,159.9h-18.4v18.4
			h18.4V159.9z M1179.8,181.3h-18.4v18.4h18.4V181.3z M1201.2,74.3h-18.4v18.4h18.4V74.3z M1201.2,117.1h-18.4v18.4h18.4V117.1z
			 M1201.2,181.3h-18.4v18.4h18.4V181.3z M1222.6,74.3h-18.4v18.4h18.4V74.3z M1222.6,117.1h-18.4v18.4h18.4V117.1z M1222.6,181.3
			h-18.4v18.4h18.4V181.3z M1244,74.3h-18.4v18.4h18.4V74.3z M1244,181.3h-18.4v18.4h18.4V181.3z"/>
	</g>
	<g>
		<path class="st2" d="M972.6,262.7c-2.4,0-4.1-0.6-5.2-1.6l1.6-2.3c0.8,0.7,2.1,1.5,3.7,1.5c1.1,0,1.8-0.5,1.8-1.2
			c0-0.8-0.5-1.2-2.4-2c-3.2-1.2-4.3-2.1-4.3-4.4c0-2.3,1.9-3.6,4.7-3.6c2.2,0,3.6,0.8,4.5,1.5l-1.4,2.4c-1-0.7-2.1-1.3-3.3-1.3
			c-1.1,0-1.7,0.4-1.7,1.1c0,0.8,0.8,1.2,2.8,2c2.8,1.1,3.9,2,3.9,4.2C977.5,261.3,975.3,262.7,972.6,262.7z"/>
		<path class="st2" d="M984.2,262.7c-2.4,0-4.1-0.6-5.2-1.6l1.6-2.3c0.8,0.7,2.1,1.5,3.7,1.5c1.1,0,1.8-0.5,1.8-1.2
			c0-0.8-0.5-1.2-2.4-2c-3.2-1.2-4.3-2.1-4.3-4.4c0-2.3,1.9-3.6,4.7-3.6c2.2,0,3.6,0.8,4.5,1.5l-1.4,2.4c-1-0.7-2.1-1.3-3.3-1.3
			c-1.1,0-1.7,0.4-1.7,1.1c0,0.8,0.8,1.2,2.8,2c2.8,1.1,3.9,2,3.9,4.2C989.1,261.3,986.8,262.7,984.2,262.7z"/>
		<path class="st2" d="M995.6,262.7c-2.8,0-4.9-2.2-4.9-6.7c0-3.8,1.7-6.9,5-6.9c3.4,0,4.9,2.8,4.9,6.7
			C1000.6,260,999,262.7,995.6,262.7z M995.6,260.2c1.5,0,2.2-1.3,2.2-4.2c0-3-0.7-4.5-2.2-4.5c-1.4,0-2.1,1.3-2.1,4.4
			C993.5,258.9,994.2,260.2,995.6,260.2z"/>
		<path class="st2" d="M1006.2,262.7c-2.4,0-4-0.9-4.8-1.6l1.4-2c0.6,0.6,1.9,1.3,3.2,1.3c1.4,0,2.3-0.9,2.3-2.3
			c0-1.3-0.9-2.1-2.1-2.1c-1.1,0-1.9,0.4-2.2,1l-1.8-0.4l0.6-7.1h7.1v2.4h-5.1l-0.2,2.6c0.4-0.3,1.3-0.7,2.2-0.7
			c2.6,0,4.3,1.8,4.3,4.3C1011.1,260.6,1009.2,262.7,1006.2,262.7z"/>
	</g>
	<g>
		<path class="st2" d="M947.7,314.4l5.2-5.2l-5.2-5.2l3.3-3.4l5.2,5.2l5.2-5.2l3.4,3.4l-5.2,5.2l5.3,5.2l-3.4,3.5l-5.2-5.4l-5.2,5.2
			L947.7,314.4z"/>
	</g>
	<g>
		<path class="st2" d="M1075.8,314.4l5.2-5.2l-5.2-5.2l3.3-3.4l5.2,5.2l5.2-5.2l3.4,3.4l-5.2,5.2l5.3,5.2l-3.4,3.5l-5.2-5.4
			l-5.2,5.2L1075.8,314.4z"/>
	</g>
</g>
</svg>
