<?xml version="1.0" encoding="utf-8"?>
<!-- Generator: Adobe Illustrator 19.2.1, SVG Export Plug-In . SVG Version: 6.00 Build 0)  -->
<svg version="1.1" id="Layer_1" xmlns="http://www.w3.org/2000/svg" xmlns:xlink="http://www.w3.org/1999/xlink" x="0px" y="0px"
	 viewBox="0 0 1360 1020" style="enable-background:new 0 0 1360 1020;" xml:space="preserve">
<style type="text/css">
	.st0{fill:#0096FF;}
	.st1{fill:#0142ED;}
	.st2{fill:#FFFFFF;}
</style>
<g>
	<rect class="st0" width="1360" height="1020"/>
	<g>
		<g>
			<path class="st1" d="M250.4,274.5h-36v200h-114v-364h114v100h100v50h50v214h-64v-150h-50V274.5z"/>
			<path class="st1" d="M614.4,210.5v50h50v164h-50v50h-164v-50h-50v-164h50v-50H614.4z M514.4,410.5h86v-136h-86V410.5z"/>
			<path class="st1" d="M800.4,324.5h-36v150h-64v-264h214v50h50v214h-64v-150h-36v150h-64V324.5z"/>
			<path class="st1" d="M1114.4,374.5v36h150v64h-214v-50h-50v-164h50v-50h164v50h50v114H1114.4z M1200.4,310.5v-36h-86v36H1200.4z"
				/>
			<path class="st1" d="M314.4,824.5h-100v100h-114v-364h64v50h36v-50h114v50h50v164h-50V824.5z M214.4,760.5h86v-136h-86V760.5z"/>
			<path class="st1" d="M614.4,610.5h50v214h-64v-50h-36v50h-114v-50h-50v-64h50v-50h100v-36h-100v-64h164V610.5z M550.4,724.5h-86
				v36h86V724.5z"/>
			<path class="st1" d="M914.4,774.5h-150v36h150v50h50v64h-214v-50h-50v-114h50v-36h-50v-114h50v-50h100v-50h114v64h-50v36h50v114
				h-50V774.5z M814.4,710.5h86v-86h-86V710.5z"/>
			<path class="st1" d="M1114.4,724.5v36h150v64h-214v-50h-50v-164h50v-50h164v50h50v114H1114.4z M1200.4,660.5v-36h-86v36H1200.4z"
				/>
		</g>
		<g>
			<path class="st0" d="M265.4,259.5h-36v200h-114v-364h114v100h100v50h50v214h-64v-150h-50V259.5z"/>
			<path class="st0" d="M629.4,195.5v50h50v164h-50v50h-164v-50h-50v-164h50v-50H629.4z M529.4,395.5h86v-136h-86V395.5z"/>
			<path class="st0" d="M815.4,309.5h-36v150h-64v-264h214v50h50v214h-64v-150h-36v150h-64V309.5z"/>
			<path class="st0" d="M1129.4,359.5v36h150v64h-214v-50h-50v-164h50v-50h164v50h50v114H1129.4z M1215.4,295.5v-36h-86v36H1215.4z"
				/>
			<path class="st0" d="M329.4,809.5h-100v100h-114v-364h64v50h36v-50h114v50h50v164h-50V809.5z M229.4,745.5h86v-136h-86V745.5z"/>
			<path class="st0" d="M629.4,595.5h50v214h-64v-50h-36v50h-114v-50h-50v-64h50v-50h100v-36h-100v-64h164V595.5z M565.4,709.5h-86
				v36h86V709.5z"/>
			<path class="st0" d="M929.4,759.5h-150v36h150v50h50v64h-214v-50h-50v-114h50v-36h-50v-114h50v-50h100v-50h114v64h-50v36h50v114
				h-50V759.5z M829.4,695.5h86v-86h-86V695.5z"/>
			<path class="st0" d="M1129.4,709.5v36h150v64h-214v-50h-50v-164h50v-50h164v50h50v114H1129.4z M1215.4,645.5v-36h-86v36H1215.4z"
				/>
		</g>
		<g>
			<g>
				<rect x="128.8" y="109.5" class="st2" width="36" height="36"/>
				<rect x="128.8" y="159.5" class="st2" width="36" height="36"/>
				<rect x="178.8" y="109.5" class="st2" width="36" height="36"/>
				<rect x="178.8" y="159.5" class="st2" width="36" height="36"/>
				<rect x="328.8" y="359.5" class="st2" width="36" height="36"/>
				<rect x="328.8" y="409.5" class="st2" width="36" height="36"/>
				<rect x="428.8" y="359.5" class="st2" width="36" height="36"/>
				<rect x="478.8" y="359.5" class="st2" width="36" height="36"/>
				<rect x="628.8" y="359.5" class="st2" width="36" height="36"/>
				<rect x="728.8" y="309.5" class="st2" width="36" height="36"/>
				<rect x="728.8" y="359.5" class="st2" width="36" height="36"/>
				<rect x="728.8" y="409.5" class="st2" width="36" height="36"/>
				<rect x="928.8" y="309.5" class="st2" width="36" height="36"/>
				<rect x="928.8" y="359.5" class="st2" width="36" height="36"/>
				<rect x="928.8" y="409.5" class="st2" width="36" height="36"/>
				<rect x="1228.8" y="259.5" class="st2" width="36" height="36"/>
				<rect x="1228.8" y="309.5" class="st2" width="36" height="36"/>
				<rect x="1228.8" y="409.5" class="st2" width="36" height="36"/>
			</g>
			<g>
				<rect x="128.8" y="557.7" class="st2" width="36" height="36"/>
				<rect x="128.8" y="607.7" class="st2" width="36" height="36"/>
				<rect x="128.8" y="857.7" class="st2" width="36" height="36"/>
				<rect x="178.8" y="607.7" class="st2" width="36" height="36"/>
				<rect x="178.8" y="857.7" class="st2" width="36" height="36"/>
				<rect x="578.8" y="657.7" class="st2" width="36" height="36"/>
				<rect x="578.8" y="707.7" class="st2" width="36" height="36"/>
				<rect x="628.8" y="657.7" class="st2" width="36" height="36"/>
				<rect x="628.8" y="707.7" class="st2" width="36" height="36"/>
				<rect x="778.8" y="857.7" class="st2" width="36" height="36"/>
				<rect x="828.8" y="857.7" class="st2" width="36" height="36"/>
				<rect x="878.8" y="857.7" class="st2" width="36" height="36"/>
				<rect x="928.8" y="857.7" class="st2" width="36" height="36"/>
				<rect x="1078.8" y="557.7" class="st2" width="36" height="36"/>
				<rect x="1078.8" y="707.7" class="st2" width="36" height="36"/>
			</g>
			<g>
				<path class="st2" d="M159.6,364.8c3.5,3.5,5.2,7.8,5.2,12.8s-1.8,9.2-5.2,12.8s-7.8,5.2-12.8,5.2s-9.2-1.8-12.8-5.2
					s-5.2-7.8-5.2-12.8s1.8-9.2,5.2-12.8s7.8-5.2,12.8-5.2S156.1,361.3,159.6,364.8z"/>
				<path class="st2" d="M159.6,414.8c3.5,3.5,5.2,7.8,5.2,12.8s-1.8,9.2-5.2,12.8s-7.8,5.2-12.8,5.2s-9.2-1.8-12.8-5.2
					s-5.2-7.8-5.2-12.8s1.8-9.2,5.2-12.8s7.8-5.2,12.8-5.2S156.1,411.3,159.6,414.8z"/>
				<path class="st2" d="M209.6,364.8c3.5,3.5,5.2,7.8,5.2,12.8s-1.8,9.2-5.2,12.8s-7.8,5.2-12.8,5.2s-9.2-1.8-12.8-5.2
					s-5.2-7.8-5.2-12.8s1.8-9.2,5.2-12.8s7.8-5.2,12.8-5.2S206.1,361.3,209.6,364.8z"/>
				<path class="st2" d="M209.6,414.8c3.5,3.5,5.2,7.8,5.2,12.8s-1.8,9.2-5.2,12.8s-7.8,5.2-12.8,5.2s-9.2-1.8-12.8-5.2
					s-5.2-7.8-5.2-12.8s1.8-9.2,5.2-12.8s7.8-5.2,12.8-5.2S206.1,411.3,209.6,414.8z"/>
				<path class="st2" d="M509.6,414.8c3.5,3.5,5.3,7.8,5.3,12.8s-1.8,9.2-5.3,12.8c-3.5,3.5-7.8,5.2-12.8,5.2s-9.2-1.8-12.8-5.2
					s-5.2-7.8-5.2-12.8s1.8-9.2,5.2-12.8s7.8-5.2,12.8-5.2S506.1,411.3,509.6,414.8z"/>
				<path class="st2" d="M559.6,414.8c3.5,3.5,5.2,7.8,5.2,12.8s-1.8,9.2-5.2,12.8s-7.8,5.2-12.8,5.2s-9.2-1.8-12.8-5.2
					s-5.2-7.8-5.2-12.8s1.8-9.2,5.2-12.8s7.8-5.2,12.8-5.2S556.1,411.3,559.6,414.8z"/>
				<path class="st2" d="M609.6,414.8c3.5,3.5,5.2,7.8,5.2,12.8s-1.8,9.2-5.2,12.8s-7.8,5.2-12.8,5.2s-9.2-1.8-12.8-5.2
					s-5.2-7.8-5.2-12.8s1.8-9.2,5.2-12.8s7.8-5.2,12.8-5.2S606.1,411.3,609.6,414.8z"/>
				<path class="st2" d="M759.6,214.8c3.5,3.5,5.2,7.8,5.2,12.8s-1.8,9.2-5.2,12.8s-7.8,5.2-12.8,5.2s-9.2-1.8-12.8-5.2
					s-5.2-7.8-5.2-12.8s1.8-9.2,5.2-12.8s7.8-5.2,12.8-5.2S756.1,211.3,759.6,214.8z"/>
				<path class="st2" d="M759.6,264.8c3.5,3.5,5.2,7.8,5.2,12.8s-1.8,9.2-5.2,12.8s-7.8,5.2-12.8,5.2s-9.2-1.8-12.8-5.2
					s-5.2-7.8-5.2-12.8s1.8-9.2,5.2-12.8s7.8-5.2,12.8-5.2S756.1,261.3,759.6,264.8z"/>
				<path class="st2" d="M809.6,214.8c3.5,3.5,5.2,7.8,5.2,12.8s-1.8,9.2-5.2,12.8s-7.8,5.2-12.8,5.2s-9.2-1.8-12.8-5.2
					s-5.2-7.8-5.2-12.8s1.8-9.2,5.2-12.8s7.8-5.2,12.8-5.2S806.1,211.3,809.6,214.8z"/>
				<path class="st2" d="M809.6,264.8c3.5,3.5,5.2,7.8,5.2,12.8s-1.8,9.2-5.2,12.8s-7.8,5.2-12.8,5.2s-9.2-1.8-12.8-5.2
					s-5.2-7.8-5.2-12.8s1.8-9.2,5.2-12.8s7.8-5.2,12.8-5.2S806.1,261.3,809.6,264.8z"/>
				<path class="st2" d="M859.6,214.8c3.5,3.5,5.2,7.8,5.2,12.8s-1.8,9.2-5.2,12.8s-7.8,5.2-12.8,5.2s-9.2-1.8-12.8-5.2
					s-5.2-7.8-5.2-12.8s1.8-9.2,5.2-12.8s7.8-5.2,12.8-5.2S856.1,211.3,859.6,214.8z"/>
				<path class="st2" d="M859.6,264.8c3.5,3.5,5.2,7.8,5.2,12.8s-1.8,9.2-5.2,12.8s-7.8,5.2-12.8,5.2s-9.2-1.8-12.8-5.2
					s-5.2-7.8-5.2-12.8s1.8-9.2,5.2-12.8s7.8-5.2,12.8-5.2S856.1,261.3,859.6,264.8z"/>
				<path class="st2" d="M1159.6,214.8c3.5,3.5,5.2,7.8,5.2,12.8s-1.8,9.2-5.2,12.8s-7.8,5.2-12.8,5.2s-9.2-1.8-12.8-5.2
					s-5.2-7.8-5.2-12.8s1.8-9.2,5.2-12.8s7.8-5.2,12.8-5.2S1156.1,211.3,1159.6,214.8z"/>
				<path class="st2" d="M1159.6,414.8c3.5,3.5,5.2,7.8,5.2,12.8s-1.8,9.2-5.2,12.8s-7.8,5.2-12.8,5.2s-9.2-1.8-12.8-5.2
					s-5.2-7.8-5.2-12.8s1.8-9.2,5.2-12.8s7.8-5.2,12.8-5.2S1156.1,411.3,1159.6,414.8z"/>
				<path class="st2" d="M1209.6,214.8c3.5,3.5,5.2,7.8,5.2,12.8s-1.8,9.2-5.2,12.8s-7.8,5.2-12.8,5.2s-9.2-1.8-12.8-5.2
					s-5.2-7.8-5.2-12.8s1.8-9.2,5.2-12.8s7.8-5.2,12.8-5.2S1206.1,211.3,1209.6,214.8z"/>
				<path class="st2" d="M1209.6,414.8c3.5,3.5,5.2,7.8,5.2,12.8s-1.8,9.2-5.2,12.8s-7.8,5.2-12.8,5.2s-9.2-1.8-12.8-5.2
					s-5.2-7.8-5.2-12.8s1.8-9.2,5.2-12.8s7.8-5.2,12.8-5.2S1206.1,411.3,1209.6,414.8z"/>
			</g>
			<g>
				<path class="st2" d="M259.6,564.8c3.5,3.5,5.2,7.8,5.2,12.8s-1.8,9.2-5.2,12.8s-7.8,5.2-12.8,5.2s-9.2-1.8-12.8-5.2
					s-5.2-7.8-5.2-12.8s1.8-9.2,5.2-12.8s7.8-5.2,12.8-5.2S256.1,561.3,259.6,564.8z"/>
				<path class="st2" d="M259.6,764.8c3.5,3.5,5.2,7.8,5.2,12.8s-1.8,9.2-5.2,12.8s-7.8,5.2-12.8,5.2s-9.2-1.8-12.8-5.2
					s-5.2-7.8-5.2-12.8s1.8-9.2,5.2-12.8s7.8-5.2,12.8-5.2S256.1,761.3,259.6,764.8z"/>
				<path class="st2" d="M309.6,564.8c3.5,3.5,5.2,7.8,5.2,12.8s-1.8,9.2-5.2,12.8s-7.8,5.2-12.8,5.2s-9.2-1.8-12.8-5.2
					s-5.2-7.8-5.2-12.8s1.8-9.2,5.2-12.8s7.8-5.2,12.8-5.2S306.1,561.3,309.6,564.8z"/>
				<path class="st2" d="M309.6,764.8c3.5,3.5,5.2,7.8,5.2,12.8s-1.8,9.2-5.2,12.8s-7.8,5.2-12.8,5.2s-9.2-1.8-12.8-5.2
					s-5.2-7.8-5.2-12.8s1.8-9.2,5.2-12.8s7.8-5.2,12.8-5.2S306.1,761.3,309.6,764.8z"/>
				<path class="st2" d="M509.6,564.8c3.5,3.5,5.3,7.8,5.3,12.8s-1.8,9.2-5.3,12.8c-3.5,3.5-7.8,5.2-12.8,5.2s-9.2-1.8-12.8-5.2
					s-5.2-7.8-5.2-12.8s1.8-9.2,5.2-12.8s7.8-5.2,12.8-5.2S506.1,561.3,509.6,564.8z"/>
				<path class="st2" d="M509.6,764.8c3.5,3.5,5.3,7.8,5.3,12.8s-1.8,9.2-5.3,12.8c-3.5,3.5-7.8,5.2-12.8,5.2s-9.2-1.8-12.8-5.2
					s-5.2-7.8-5.2-12.8s1.8-9.2,5.2-12.8s7.8-5.2,12.8-5.2S506.1,761.3,509.6,764.8z"/>
				<path class="st2" d="M559.6,564.8c3.5,3.5,5.2,7.8,5.2,12.8s-1.8,9.2-5.2,12.8s-7.8,5.2-12.8,5.2s-9.2-1.8-12.8-5.2
					s-5.2-7.8-5.2-12.8s1.8-9.2,5.2-12.8s7.8-5.2,12.8-5.2S556.1,561.3,559.6,564.8z"/>
				<path class="st2" d="M559.6,764.8c3.5,3.5,5.2,7.8,5.2,12.8s-1.8,9.2-5.2,12.8s-7.8,5.2-12.8,5.2s-9.2-1.8-12.8-5.2
					s-5.2-7.8-5.2-12.8s1.8-9.2,5.2-12.8s7.8-5.2,12.8-5.2S556.1,761.3,559.6,764.8z"/>
				<path class="st2" d="M809.6,564.8c3.5,3.5,5.2,7.8,5.2,12.8s-1.8,9.2-5.2,12.8s-7.8,5.2-12.8,5.2s-9.2-1.8-12.8-5.2
					s-5.2-7.8-5.2-12.8s1.8-9.2,5.2-12.8s7.8-5.2,12.8-5.2S806.1,561.3,809.6,564.8z"/>
				<path class="st2" d="M809.6,714.8c3.5,3.5,5.2,7.8,5.2,12.8s-1.8,9.2-5.2,12.8s-7.8,5.2-12.8,5.2s-9.2-1.8-12.8-5.2
					s-5.2-7.8-5.2-12.8s1.8-9.2,5.2-12.8s7.8-5.2,12.8-5.2S806.1,711.3,809.6,714.8z"/>
				<path class="st2" d="M859.6,564.8c3.5,3.5,5.2,7.8,5.2,12.8s-1.8,9.2-5.2,12.8s-7.8,5.2-12.8,5.2s-9.2-1.8-12.8-5.2
					s-5.2-7.8-5.2-12.8s1.8-9.2,5.2-12.8s7.8-5.2,12.8-5.2S856.1,561.3,859.6,564.8z"/>
				<path class="st2" d="M859.6,714.8c3.5,3.5,5.2,7.8,5.2,12.8s-1.8,9.2-5.2,12.8s-7.8,5.2-12.8,5.2s-9.2-1.8-12.8-5.2
					s-5.2-7.8-5.2-12.8s1.8-9.2,5.2-12.8s7.8-5.2,12.8-5.2S856.1,711.3,859.6,714.8z"/>
				<path class="st2" d="M909.6,564.8c3.5,3.5,5.2,7.8,5.2,12.8s-1.8,9.2-5.2,12.8s-7.8,5.2-12.8,5.2s-9.2-1.8-12.8-5.2
					s-5.2-7.8-5.2-12.8s1.8-9.2,5.2-12.8s7.8-5.2,12.8-5.2S906.1,561.3,909.6,564.8z"/>
				<path class="st2" d="M909.6,714.8c3.5,3.5,5.2,7.8,5.2,12.8s-1.8,9.2-5.2,12.8s-7.8,5.2-12.8,5.2s-9.2-1.8-12.8-5.2
					s-5.2-7.8-5.2-12.8s1.8-9.2,5.2-12.8s7.8-5.2,12.8-5.2S906.1,711.3,909.6,714.8z"/>
				<path class="st2" d="M1059.6,614.8c3.5,3.5,5.2,7.8,5.2,12.8s-1.8,9.2-5.2,12.8s-7.8,5.2-12.8,5.2s-9.2-1.8-12.8-5.2
					s-5.2-7.8-5.2-12.8s1.8-9.2,5.2-12.8s7.8-5.2,12.8-5.2S1056.1,611.3,1059.6,614.8z"/>
				<path class="st2" d="M1059.6,664.8c3.5,3.5,5.2,7.8,5.2,12.8s-1.8,9.2-5.2,12.8s-7.8,5.2-12.8,5.2s-9.2-1.8-12.8-5.2
					s-5.2-7.8-5.2-12.8s1.8-9.2,5.2-12.8s7.8-5.2,12.8-5.2S1056.1,661.3,1059.6,664.8z"/>
				<path class="st2" d="M1059.6,714.8c3.5,3.5,5.2,7.8,5.2,12.8s-1.8,9.2-5.2,12.8s-7.8,5.2-12.8,5.2s-9.2-1.8-12.8-5.2
					s-5.2-7.8-5.2-12.8s1.8-9.2,5.2-12.8s7.8-5.2,12.8-5.2S1056.1,711.3,1059.6,714.8z"/>
			</g>
			<g>
				<polygon class="st2" points="150.3,248.7 143.3,248.7 143.3,230.7 125.3,230.7 125.3,223.7 143.3,223.7 143.3,205.7 
					150.3,205.7 150.3,223.7 168.3,223.7 168.3,230.7 150.3,230.7 				"/>
				<polygon class="st2" points="200.3,248.7 193.3,248.7 193.3,230.7 175.3,230.7 175.3,223.7 193.3,223.7 193.3,205.7 
					200.3,205.7 200.3,223.7 218.3,223.7 218.3,230.7 200.3,230.7 				"/>
				<polygon class="st2" points="300.3,298.7 293.3,298.7 293.3,280.7 275.3,280.7 275.3,273.7 293.3,273.7 293.3,255.7 
					300.3,255.7 300.3,273.7 318.3,273.7 318.3,280.7 300.3,280.7 				"/>
				<polygon class="st2" points="450.3,348.7 443.3,348.7 443.3,330.7 425.3,330.7 425.3,323.7 443.3,323.7 443.3,305.7 
					450.3,305.7 450.3,323.7 468.3,323.7 468.3,330.7 450.3,330.7 				"/>
				<polygon class="st2" points="500.3,348.7 493.3,348.7 493.3,330.7 475.3,330.7 475.3,323.7 493.3,323.7 493.3,305.7 
					500.3,305.7 500.3,323.7 518.3,323.7 518.3,330.7 500.3,330.7 				"/>
				<polygon class="st2" points="650.3,348.7 643.3,348.7 643.3,330.7 625.3,330.7 625.3,323.7 643.3,323.7 643.3,305.7 
					650.3,305.7 650.3,323.7 668.3,323.7 668.3,330.7 650.3,330.7 				"/>
				<polygon class="st2" points="850.3,398.7 843.3,398.7 843.3,380.7 825.3,380.7 825.3,373.7 843.3,373.7 843.3,355.7 
					850.3,355.7 850.3,373.7 868.3,373.7 868.3,380.7 850.3,380.7 				"/>
				<polygon class="st2" points="1050.3,348.7 1043.3,348.7 1043.3,330.7 1025.3,330.7 1025.3,323.7 1043.3,323.7 1043.3,305.7 
					1050.3,305.7 1050.3,323.7 1068.3,323.7 1068.3,330.7 1050.3,330.7 				"/>
				<polygon class="st2" points="1100.3,348.7 1093.3,348.7 1093.3,330.7 1075.3,330.7 1075.3,323.7 1093.3,323.7 1093.3,305.7 
					1100.3,305.7 1100.3,323.7 1118.3,323.7 1118.3,330.7 1100.3,330.7 				"/>
			</g>
			<g>
				<polygon class="st2" points="150.3,699 143.3,699 143.3,681 125.3,681 125.3,674 143.3,674 143.3,656 150.3,656 150.3,674 
					168.3,674 168.3,681 150.3,681 				"/>
				<polygon class="st2" points="150.3,749 143.3,749 143.3,731 125.3,731 125.3,724 143.3,724 143.3,706 150.3,706 150.3,724 
					168.3,724 168.3,731 150.3,731 				"/>
				<polygon class="st2" points="200.3,699 193.3,699 193.3,681 175.3,681 175.3,674 193.3,674 193.3,656 200.3,656 200.3,674 
					218.3,674 218.3,681 200.3,681 				"/>
				<polygon class="st2" points="200.3,749 193.3,749 193.3,731 175.3,731 175.3,724 193.3,724 193.3,706 200.3,706 200.3,724 
					218.3,724 218.3,731 200.3,731 				"/>
				<polygon class="st2" points="500.3,699 493.3,699 493.3,681 475.3,681 475.3,674 493.3,674 493.3,656 500.3,656 500.3,674 
					518.3,674 518.3,681 500.3,681 				"/>
				<polygon class="st2" points="550.3,699 543.3,699 543.3,681 525.3,681 525.3,674 543.3,674 543.3,656 550.3,656 550.3,674 
					568.3,674 568.3,681 550.3,681 				"/>
				<polygon class="st2" points="750.3,799 743.3,799 743.3,781 725.3,781 725.3,774 743.3,774 743.3,756 750.3,756 750.3,774 
					768.3,774 768.3,781 750.3,781 				"/>
				<polygon class="st2" points="900.3,549 893.3,549 893.3,531 875.3,531 875.3,524 893.3,524 893.3,506 900.3,506 900.3,524 
					918.3,524 918.3,531 900.3,531 				"/>
				<polygon class="st2" points="950.3,549 943.3,549 943.3,531 925.3,531 925.3,524 943.3,524 943.3,506 950.3,506 950.3,524 
					968.3,524 968.3,531 950.3,531 				"/>
				<polygon class="st2" points="1100.3,699 1093.3,699 1093.3,681 1075.3,681 1075.3,674 1093.3,674 1093.3,656 1100.3,656 
					1100.3,674 1118.3,674 1118.3,681 1100.3,681 				"/>
				<polygon class="st2" points="1150.3,599 1143.3,599 1143.3,581 1125.3,581 1125.3,574 1143.3,574 1143.3,556 1150.3,556 
					1150.3,574 1168.3,574 1168.3,581 1150.3,581 				"/>
				<polygon class="st2" points="1150.3,799 1143.3,799 1143.3,781 1125.3,781 1125.3,774 1143.3,774 1143.3,756 1150.3,756 
					1150.3,774 1168.3,774 1168.3,781 1150.3,781 				"/>
				<polygon class="st2" points="1200.3,599 1193.3,599 1193.3,581 1175.3,581 1175.3,574 1193.3,574 1193.3,556 1200.3,556 
					1200.3,574 1218.3,574 1218.3,581 1200.3,581 				"/>
				<polygon class="st2" points="1200.3,799 1193.3,799 1193.3,781 1175.3,781 1175.3,774 1193.3,774 1193.3,756 1200.3,756 
					1200.3,774 1218.3,774 1218.3,781 1200.3,781 				"/>
				<polygon class="st2" points="1250.3,699 1243.3,699 1243.3,681 1225.3,681 1225.3,674 1243.3,674 1243.3,656 1250.3,656 
					1250.3,674 1268.3,674 1268.3,681 1250.3,681 				"/>
			</g>
			<g>
				<path class="st2" d="M225,249h43v-43h-43V249z M232,213h29v29h-29V213z"/>
				<path class="st2" d="M275,249h43v-43h-43V249z M282,213h29v29h-29V213z"/>
				<path class="st2" d="M325,299h43v-43h-43V299z M332,263h29v29h-29V263z"/>
				<path class="st2" d="M325,349h43v-43h-43V349z M332,313h29v29h-29V313z"/>
				<path class="st2" d="M425,299h43v-43h-43V299z M432,263h29v29h-29V263z"/>
				<path class="st2" d="M475,299h43v-43h-43V299z M482,263h29v29h-29V263z"/>
				<path class="st2" d="M625,299h43v-43h-43V299z M632,263h29v29h-29V263z"/>
				<path class="st2" d="M825,349h43v-43h-43V349z M832,313h29v29h-29V313z"/>
				<path class="st2" d="M825,449h43v-43h-43V449z M832,413h29v29h-29V413z"/>
				<path class="st2" d="M1025,299h43v-43h-43V299z M1032,263h29v29h-29V263z"/>
				<path class="st2" d="M1025,399h43v-43h-43V399z M1032,363h29v29h-29V363z"/>
				<path class="st2" d="M1075,249h43v-43h-43V249z M1082,213h29v29h-29V213z"/>
				<path class="st2" d="M1075,299h43v-43h-43V299z M1082,263h29v29h-29V263z"/>
				<path class="st2" d="M1075,399h43v-43h-43V399z M1082,363h29v29h-29V363z"/>
				<path class="st2" d="M1075,449h43v-43h-43V449z M1082,413h29v29h-29V413z"/>
			</g>
			<g>
				<path class="st2" d="M325,649h43v-43h-43V649z M332,613h29v29h-29V613z"/>
				<path class="st2" d="M325,699h43v-43h-43V699z M332,663h29v29h-29V663z"/>
				<path class="st2" d="M325,749h43v-43h-43V749z M332,713h29v29h-29V713z"/>
				<path class="st2" d="M425,749h43v-43h-43V749z M432,713h29v29h-29V713z"/>
				<path class="st2" d="M625,649h43v-43h-43V649z M632,613h29v29h-29V613z"/>
				<path class="st2" d="M625,799h43v-43h-43V799z M632,763h29v29h-29V763z"/>
				<path class="st2" d="M725,849h43v-43h-43V849z M732,813h29v29h-29V813z"/>
				<path class="st2" d="M775,849h43v-43h-43V849z M782,813h29v29h-29V813z"/>
				<path class="st2" d="M825,849h43v-43h-43V849z M832,813h29v29h-29V813z"/>
				<path class="st2" d="M875,849h43v-43h-43V849z M882,813h29v29h-29V813z"/>
				<path class="st2" d="M1125,699h43v-43h-43V699z M1132,663h29v29h-29V663z"/>
				<path class="st2" d="M1175,699h43v-43h-43V699z M1182,663h29v29h-29V663z"/>
			</g>
			<g>
				<path class="st2" d="M146.8,257c-6,0-11.1,2.1-15.2,6.2c-4.2,4.2-6.2,9.2-6.2,15.2s2.1,11.1,6.2,15.2c4.2,4.2,9.2,6.2,15.2,6.2
					s11.1-2.1,15.2-6.2c4.2-4.2,6.2-9.2,6.2-15.2s-2.1-11.1-6.2-15.2C157.9,259.1,152.8,257,146.8,257z M157.3,289
					c-2.7,2.7-6.2,4-10.5,4c-4.3,0-7.8-1.3-10.5-4c-2.7-2.7-4-6.2-4-10.5c0-4.3,1.3-7.8,4-10.5c2.7-2.7,6.2-4,10.5-4
					c4.3,0,7.8,1.3,10.5,4c2.7,2.7,4,6.2,4,10.5C161.3,282.8,160,286.3,157.3,289z"/>
				<path class="st2" d="M146.8,307c-6,0-11.1,2.1-15.2,6.2c-4.2,4.2-6.2,9.2-6.2,15.2s2.1,11.1,6.2,15.2c4.2,4.2,9.2,6.2,15.2,6.2
					s11.1-2.1,15.2-6.2c4.2-4.2,6.2-9.2,6.2-15.2s-2.1-11.1-6.2-15.2C157.9,309.1,152.8,307,146.8,307z M157.3,339
					c-2.7,2.7-6.2,4-10.5,4c-4.3,0-7.8-1.3-10.5-4c-2.7-2.7-4-6.2-4-10.5c0-4.3,1.3-7.8,4-10.5c2.7-2.7,6.2-4,10.5-4
					c4.3,0,7.8,1.3,10.5,4c2.7,2.7,4,6.2,4,10.5C161.3,332.8,160,336.3,157.3,339z"/>
				<path class="st2" d="M196.8,257c-6,0-11.1,2.1-15.2,6.2c-4.2,4.2-6.2,9.2-6.2,15.2s2.1,11.1,6.2,15.2c4.2,4.2,9.2,6.2,15.2,6.2
					s11.1-2.1,15.2-6.2c4.2-4.2,6.2-9.2,6.2-15.2s-2.1-11.1-6.2-15.2C207.9,259.1,202.8,257,196.8,257z M207.3,289
					c-2.7,2.7-6.2,4-10.5,4c-4.3,0-7.8-1.3-10.5-4c-2.7-2.7-4-6.2-4-10.5c0-4.3,1.3-7.8,4-10.5c2.7-2.7,6.2-4,10.5-4
					c4.3,0,7.8,1.3,10.5,4c2.7,2.7,4,6.2,4,10.5C211.3,282.8,210,286.3,207.3,289z"/>
				<path class="st2" d="M196.8,307c-6,0-11.1,2.1-15.2,6.2c-4.2,4.2-6.2,9.2-6.2,15.2s2.1,11.1,6.2,15.2c4.2,4.2,9.2,6.2,15.2,6.2
					s11.1-2.1,15.2-6.2c4.2-4.2,6.2-9.2,6.2-15.2s-2.1-11.1-6.2-15.2C207.9,309.1,202.8,307,196.8,307z M207.3,339
					c-2.7,2.7-6.2,4-10.5,4c-4.3,0-7.8-1.3-10.5-4c-2.7-2.7-4-6.2-4-10.5c0-4.3,1.3-7.8,4-10.5c2.7-2.7,6.2-4,10.5-4
					c4.3,0,7.8,1.3,10.5,4c2.7,2.7,4,6.2,4,10.5C211.3,332.8,210,336.3,207.3,339z"/>
				<path class="st2" d="M496.8,207c-6,0-11.1,2.1-15.2,6.2c-4.2,4.2-6.2,9.2-6.2,15.2s2.1,11.1,6.2,15.2c4.2,4.2,9.2,6.2,15.2,6.2
					s11.1-2.1,15.3-6.2c4.2-4.2,6.2-9.2,6.2-15.2s-2.1-11.1-6.2-15.2C507.9,209.1,502.8,207,496.8,207z M507.3,239
					c-2.7,2.7-6.2,4-10.5,4c-4.3,0-7.8-1.3-10.5-4c-2.7-2.7-4-6.2-4-10.5c0-4.3,1.3-7.8,4-10.5c2.7-2.7,6.2-4,10.5-4
					c4.3,0,7.8,1.3,10.5,4c2.7,2.7,4,6.2,4,10.5C511.3,232.8,510,236.3,507.3,239z"/>
				<path class="st2" d="M546.8,207c-6,0-11.1,2.1-15.2,6.2c-4.2,4.2-6.2,9.2-6.2,15.2s2.1,11.1,6.2,15.2c4.2,4.2,9.2,6.2,15.2,6.2
					s11.1-2.1,15.2-6.2c4.2-4.2,6.2-9.2,6.2-15.2s-2.1-11.1-6.2-15.2C557.9,209.1,552.8,207,546.8,207z M557.3,239
					c-2.7,2.7-6.2,4-10.5,4c-4.3,0-7.8-1.3-10.5-4c-2.7-2.7-4-6.2-4-10.5c0-4.3,1.3-7.8,4-10.5c2.7-2.7,6.2-4,10.5-4
					c4.3,0,7.8,1.3,10.5,4c2.7,2.7,4,6.2,4,10.5C561.3,232.8,560,236.3,557.3,239z"/>
				<path class="st2" d="M596.8,207c-6,0-11.1,2.1-15.2,6.2c-4.2,4.2-6.2,9.2-6.2,15.2s2.1,11.1,6.2,15.2c4.2,4.2,9.2,6.2,15.2,6.2
					s11.1-2.1,15.2-6.2c4.2-4.2,6.2-9.2,6.2-15.2s-2.1-11.1-6.2-15.2C607.9,209.1,602.8,207,596.8,207z M607.3,239
					c-2.7,2.7-6.2,4-10.5,4c-4.3,0-7.8-1.3-10.5-4c-2.7-2.7-4-6.2-4-10.5c0-4.3,1.3-7.8,4-10.5c2.7-2.7,6.2-4,10.5-4
					c4.3,0,7.8,1.3,10.5,4c2.7,2.7,4,6.2,4,10.5C611.3,232.8,610,236.3,607.3,239z"/>
				<path class="st2" d="M896.8,207c-6,0-11.1,2.1-15.2,6.2c-4.2,4.2-6.2,9.2-6.2,15.2s2.1,11.1,6.2,15.2c4.2,4.2,9.2,6.2,15.2,6.2
					s11.1-2.1,15.2-6.2c4.2-4.2,6.2-9.2,6.2-15.2s-2.1-11.1-6.2-15.2C907.9,209.1,902.8,207,896.8,207z M907.3,239
					c-2.7,2.7-6.2,4-10.5,4c-4.3,0-7.8-1.3-10.5-4c-2.7-2.7-4-6.2-4-10.5c0-4.3,1.3-7.8,4-10.5c2.7-2.7,6.2-4,10.5-4
					c4.3,0,7.8,1.3,10.5,4c2.7,2.7,4,6.2,4,10.5C911.3,232.8,910,236.3,907.3,239z"/>
				<path class="st2" d="M896.8,257c-6,0-11.1,2.1-15.2,6.2c-4.2,4.2-6.2,9.2-6.2,15.2s2.1,11.1,6.2,15.2c4.2,4.2,9.2,6.2,15.2,6.2
					s11.1-2.1,15.2-6.2c4.2-4.2,6.2-9.2,6.2-15.2s-2.1-11.1-6.2-15.2C907.9,259.1,902.8,257,896.8,257z M907.3,289
					c-2.7,2.7-6.2,4-10.5,4c-4.3,0-7.8-1.3-10.5-4c-2.7-2.7-4-6.2-4-10.5c0-4.3,1.3-7.8,4-10.5c2.7-2.7,6.2-4,10.5-4
					c4.3,0,7.8,1.3,10.5,4c2.7,2.7,4,6.2,4,10.5C911.3,282.8,910,286.3,907.3,289z"/>
				<path class="st2" d="M946.8,257c-6,0-11.1,2.1-15.2,6.2c-4.2,4.2-6.2,9.2-6.2,15.2s2.1,11.1,6.2,15.2c4.2,4.2,9.2,6.2,15.2,6.2
					s11.1-2.1,15.2-6.2c4.2-4.2,6.2-9.2,6.2-15.2s-2.1-11.1-6.2-15.2C957.9,259.1,952.8,257,946.8,257z M957.3,289
					c-2.7,2.7-6.2,4-10.5,4c-4.3,0-7.8-1.3-10.5-4c-2.7-2.7-4-6.2-4-10.5c0-4.3,1.3-7.8,4-10.5c2.7-2.7,6.2-4,10.5-4
					c4.3,0,7.8,1.3,10.5,4c2.7,2.7,4,6.2,4,10.5C961.3,282.8,960,286.3,957.3,289z"/>
				<path class="st2" d="M1146.8,307c-6,0-11.1,2.1-15.2,6.2c-4.2,4.2-6.2,9.2-6.2,15.2s2.1,11.1,6.2,15.2c4.2,4.2,9.2,6.2,15.2,6.2
					s11.1-2.1,15.2-6.2c4.2-4.2,6.2-9.2,6.2-15.2s-2.1-11.1-6.2-15.2C1157.9,309.1,1152.8,307,1146.8,307z M1157.3,339
					c-2.7,2.7-6.2,4-10.5,4c-4.3,0-7.8-1.3-10.5-4c-2.7-2.7-4-6.2-4-10.5c0-4.3,1.3-7.8,4-10.5c2.7-2.7,6.2-4,10.5-4
					c4.3,0,7.8,1.3,10.5,4c2.7,2.7,4,6.2,4,10.5C1161.3,332.8,1160,336.3,1157.3,339z"/>
				<path class="st2" d="M1196.8,307c-6,0-11.1,2.1-15.2,6.2c-4.2,4.2-6.2,9.2-6.2,15.2s2.1,11.1,6.2,15.2c4.2,4.2,9.2,6.2,15.2,6.2
					s11.1-2.1,15.2-6.2c4.2-4.2,6.2-9.2,6.2-15.2s-2.1-11.1-6.2-15.2C1207.9,309.1,1202.8,307,1196.8,307z M1207.3,339
					c-2.7,2.7-6.2,4-10.5,4c-4.3,0-7.8-1.3-10.5-4c-2.7-2.7-4-6.2-4-10.5c0-4.3,1.3-7.8,4-10.5c2.7-2.7,6.2-4,10.5-4
					c4.3,0,7.8,1.3,10.5,4c2.7,2.7,4,6.2,4,10.5C1211.3,332.8,1210,336.3,1207.3,339z"/>
			</g>
			<g>
				<path class="st2" d="M146.8,756c-6,0-11.1,2.1-15.2,6.2c-4.2,4.2-6.2,9.3-6.2,15.3s2.1,11.1,6.2,15.2c4.2,4.2,9.2,6.2,15.2,6.2
					s11.1-2.1,15.2-6.2c4.2-4.2,6.2-9.2,6.2-15.2s-2.1-11.1-6.2-15.3C157.9,758.1,152.8,756,146.8,756z M157.3,788
					c-2.7,2.7-6.2,4-10.5,4c-4.3,0-7.8-1.3-10.5-4c-2.7-2.7-4-6.2-4-10.5c0-4.3,1.3-7.8,4-10.5c2.7-2.7,6.2-4,10.5-4
					c4.3,0,7.8,1.3,10.5,4c2.7,2.7,4,6.2,4,10.5C161.3,781.8,160,785.3,157.3,788z"/>
				<path class="st2" d="M146.8,806c-6,0-11.1,2.1-15.2,6.2c-4.2,4.2-6.2,9.2-6.2,15.2s2.1,11.1,6.2,15.2c4.2,4.2,9.2,6.2,15.2,6.2
					s11.1-2.1,15.2-6.2c4.2-4.2,6.2-9.2,6.2-15.2s-2.1-11.1-6.2-15.2C157.9,808.1,152.8,806,146.8,806z M157.3,838
					c-2.7,2.7-6.2,4-10.5,4c-4.3,0-7.8-1.3-10.5-4c-2.7-2.7-4-6.2-4-10.5c0-4.3,1.3-7.8,4-10.5c2.7-2.7,6.2-4,10.5-4
					c4.3,0,7.8,1.3,10.5,4c2.7,2.7,4,6.2,4,10.5C161.3,831.8,160,835.3,157.3,838z"/>
				<path class="st2" d="M196.8,756c-6,0-11.1,2.1-15.2,6.2c-4.2,4.2-6.2,9.3-6.2,15.3s2.1,11.1,6.2,15.2c4.2,4.2,9.2,6.2,15.2,6.2
					s11.1-2.1,15.2-6.2c4.2-4.2,6.2-9.2,6.2-15.2s-2.1-11.1-6.2-15.3C207.9,758.1,202.8,756,196.8,756z M207.3,788
					c-2.7,2.7-6.2,4-10.5,4c-4.3,0-7.8-1.3-10.5-4c-2.7-2.7-4-6.2-4-10.5c0-4.3,1.3-7.8,4-10.5c2.7-2.7,6.2-4,10.5-4
					c4.3,0,7.8,1.3,10.5,4c2.7,2.7,4,6.2,4,10.5C211.3,781.8,210,785.3,207.3,788z"/>
				<path class="st2" d="M196.8,806c-6,0-11.1,2.1-15.2,6.2c-4.2,4.2-6.2,9.2-6.2,15.2s2.1,11.1,6.2,15.2c4.2,4.2,9.2,6.2,15.2,6.2
					s11.1-2.1,15.2-6.2c4.2-4.2,6.2-9.2,6.2-15.2s-2.1-11.1-6.2-15.2C207.9,808.1,202.8,806,196.8,806z M207.3,838
					c-2.7,2.7-6.2,4-10.5,4c-4.3,0-7.8-1.3-10.5-4c-2.7-2.7-4-6.2-4-10.5c0-4.3,1.3-7.8,4-10.5c2.7-2.7,6.2-4,10.5-4
					c4.3,0,7.8,1.3,10.5,4c2.7,2.7,4,6.2,4,10.5C211.3,831.8,210,835.3,207.3,838z"/>
				<path class="st2" d="M596.8,556c-6,0-11.1,2.1-15.2,6.2c-4.2,4.2-6.2,9.2-6.2,15.2s2.1,11.1,6.2,15.2c4.2,4.2,9.2,6.2,15.2,6.2
					s11.1-2.1,15.2-6.2c4.2-4.2,6.2-9.2,6.2-15.2s-2.1-11.1-6.2-15.2C607.9,558.1,602.8,556,596.8,556z M607.3,588
					c-2.7,2.7-6.2,4-10.5,4c-4.3,0-7.8-1.3-10.5-4c-2.7-2.7-4-6.2-4-10.5c0-4.3,1.3-7.8,4-10.5c2.7-2.7,6.2-4,10.5-4
					c4.3,0,7.8,1.3,10.5,4c2.7,2.7,4,6.2,4,10.5C611.3,581.8,610,585.3,607.3,588z"/>
				<path class="st2" d="M596.8,606c-6,0-11.1,2.1-15.2,6.2c-4.2,4.2-6.2,9.2-6.2,15.2s2.1,11.1,6.2,15.2c4.2,4.2,9.2,6.2,15.2,6.2
					s11.1-2.1,15.2-6.2c4.2-4.2,6.2-9.2,6.2-15.2s-2.1-11.1-6.2-15.2C607.9,608.1,602.8,606,596.8,606z M607.3,638
					c-2.7,2.7-6.2,4-10.5,4c-4.3,0-7.8-1.3-10.5-4c-2.7-2.7-4-6.2-4-10.5c0-4.3,1.3-7.8,4-10.5c2.7-2.7,6.2-4,10.5-4
					c4.3,0,7.8,1.3,10.5,4c2.7,2.7,4,6.2,4,10.5C611.3,631.8,610,635.3,607.3,638z"/>
				<path class="st2" d="M746.8,606c-6,0-11.1,2.1-15.2,6.2c-4.2,4.2-6.2,9.2-6.2,15.2s2.1,11.1,6.2,15.2c4.2,4.2,9.2,6.2,15.2,6.2
					s11.1-2.1,15.2-6.2c4.2-4.2,6.2-9.2,6.2-15.2s-2.1-11.1-6.2-15.2C757.9,608.1,752.8,606,746.8,606z M757.3,638
					c-2.7,2.7-6.2,4-10.5,4c-4.3,0-7.8-1.3-10.5-4c-2.7-2.7-4-6.2-4-10.5c0-4.3,1.3-7.8,4-10.5c2.7-2.7,6.2-4,10.5-4
					c4.3,0,7.8,1.3,10.5,4c2.7,2.7,4,6.2,4,10.5C761.3,631.8,760,635.3,757.3,638z"/>
				<path class="st2" d="M746.8,656c-6,0-11.1,2.1-15.2,6.2c-4.2,4.2-6.2,9.2-6.2,15.2s2.1,11.1,6.2,15.2c4.2,4.2,9.2,6.2,15.2,6.2
					s11.1-2.1,15.2-6.2c4.2-4.2,6.2-9.2,6.2-15.2s-2.1-11.1-6.2-15.2C757.9,658.1,752.8,656,746.8,656z M757.3,688
					c-2.7,2.7-6.2,4-10.5,4c-4.3,0-7.8-1.3-10.5-4c-2.7-2.7-4-6.2-4-10.5c0-4.3,1.3-7.8,4-10.5c2.7-2.7,6.2-4,10.5-4
					c4.3,0,7.8,1.3,10.5,4c2.7,2.7,4,6.2,4,10.5C761.3,681.8,760,685.3,757.3,688z"/>
				<path class="st2" d="M796.8,606c-6,0-11.1,2.1-15.2,6.2c-4.2,4.2-6.2,9.2-6.2,15.2s2.1,11.1,6.2,15.2c4.2,4.2,9.2,6.2,15.2,6.2
					s11.1-2.1,15.2-6.2c4.2-4.2,6.2-9.2,6.2-15.2s-2.1-11.1-6.2-15.2C807.9,608.1,802.8,606,796.8,606z M807.3,638
					c-2.7,2.7-6.2,4-10.5,4c-4.3,0-7.8-1.3-10.5-4c-2.7-2.7-4-6.2-4-10.5c0-4.3,1.3-7.8,4-10.5c2.7-2.7,6.2-4,10.5-4
					c4.3,0,7.8,1.3,10.5,4c2.7,2.7,4,6.2,4,10.5C811.3,631.8,810,635.3,807.3,638z"/>
				<path class="st2" d="M796.8,656c-6,0-11.1,2.1-15.2,6.2c-4.2,4.2-6.2,9.2-6.2,15.2s2.1,11.1,6.2,15.2c4.2,4.2,9.2,6.2,15.2,6.2
					s11.1-2.1,15.2-6.2c4.2-4.2,6.2-9.2,6.2-15.2s-2.1-11.1-6.2-15.2C807.9,658.1,802.8,656,796.8,656z M807.3,688
					c-2.7,2.7-6.2,4-10.5,4c-4.3,0-7.8-1.3-10.5-4c-2.7-2.7-4-6.2-4-10.5c0-4.3,1.3-7.8,4-10.5c2.7-2.7,6.2-4,10.5-4
					c4.3,0,7.8,1.3,10.5,4c2.7,2.7,4,6.2,4,10.5C811.3,681.8,810,685.3,807.3,688z"/>
				<path class="st2" d="M946.8,606c-6,0-11.1,2.1-15.2,6.2c-4.2,4.2-6.2,9.2-6.2,15.2s2.1,11.1,6.2,15.2c4.2,4.2,9.2,6.2,15.2,6.2
					s11.1-2.1,15.2-6.2c4.2-4.2,6.2-9.2,6.2-15.2s-2.1-11.1-6.2-15.2C957.9,608.1,952.8,606,946.8,606z M957.3,638
					c-2.7,2.7-6.2,4-10.5,4c-4.3,0-7.8-1.3-10.5-4c-2.7-2.7-4-6.2-4-10.5c0-4.3,1.3-7.8,4-10.5c2.7-2.7,6.2-4,10.5-4
					c4.3,0,7.8,1.3,10.5,4c2.7,2.7,4,6.2,4,10.5C961.3,631.8,960,635.3,957.3,638z"/>
				<path class="st2" d="M946.8,656c-6,0-11.1,2.1-15.2,6.2c-4.2,4.2-6.2,9.2-6.2,15.2s2.1,11.1,6.2,15.2c4.2,4.2,9.2,6.2,15.2,6.2
					s11.1-2.1,15.2-6.2c4.2-4.2,6.2-9.2,6.2-15.2s-2.1-11.1-6.2-15.2C957.9,658.1,952.8,656,946.8,656z M957.3,688
					c-2.7,2.7-6.2,4-10.5,4c-4.3,0-7.8-1.3-10.5-4c-2.7-2.7-4-6.2-4-10.5c0-4.3,1.3-7.8,4-10.5c2.7-2.7,6.2-4,10.5-4
					c4.3,0,7.8,1.3,10.5,4c2.7,2.7,4,6.2,4,10.5C961.3,681.8,960,685.3,957.3,688z"/>
				<path class="st2" d="M1096.8,606c-6,0-11.1,2.1-15.2,6.2c-4.2,4.2-6.2,9.2-6.2,15.2s2.1,11.1,6.2,15.2c4.2,4.2,9.2,6.2,15.2,6.2
					s11.1-2.1,15.2-6.2c4.2-4.2,6.2-9.2,6.2-15.2s-2.1-11.1-6.2-15.2C1107.9,608.1,1102.8,606,1096.8,606z M1107.3,638
					c-2.7,2.7-6.2,4-10.5,4c-4.3,0-7.8-1.3-10.5-4c-2.7-2.7-4-6.2-4-10.5c0-4.3,1.3-7.8,4-10.5c2.7-2.7,6.2-4,10.5-4
					c4.3,0,7.8,1.3,10.5,4c2.7,2.7,4,6.2,4,10.5C1111.3,631.8,1110,635.3,1107.3,638z"/>
				<path class="st2" d="M1096.8,756c-6,0-11.1,2.1-15.2,6.2c-4.2,4.2-6.2,9.3-6.2,15.3s2.1,11.1,6.2,15.2c4.2,4.2,9.2,6.2,15.2,6.2
					s11.1-2.1,15.2-6.2c4.2-4.2,6.2-9.2,6.2-15.2s-2.1-11.1-6.2-15.3C1107.9,758.1,1102.8,756,1096.8,756z M1107.3,788
					c-2.7,2.7-6.2,4-10.5,4c-4.3,0-7.8-1.3-10.5-4c-2.7-2.7-4-6.2-4-10.5c0-4.3,1.3-7.8,4-10.5c2.7-2.7,6.2-4,10.5-4
					c4.3,0,7.8,1.3,10.5,4c2.7,2.7,4,6.2,4,10.5C1111.3,781.8,1110,785.3,1107.3,788z"/>
				<path class="st2" d="M1246.8,606c-6,0-11.1,2.1-15.2,6.2c-4.2,4.2-6.2,9.2-6.2,15.2s2.1,11.1,6.2,15.2c4.2,4.2,9.2,6.2,15.2,6.2
					s11.1-2.1,15.2-6.2c4.2-4.2,6.2-9.2,6.2-15.2s-2.1-11.1-6.2-15.2C1257.9,608.1,1252.8,606,1246.8,606z M1257.3,638
					c-2.7,2.7-6.2,4-10.5,4c-4.3,0-7.8-1.3-10.5-4c-2.7-2.7-4-6.2-4-10.5c0-4.3,1.3-7.8,4-10.5c2.7-2.7,6.2-4,10.5-4
					c4.3,0,7.8,1.3,10.5,4c2.7,2.7,4,6.2,4,10.5C1261.3,631.8,1260,635.3,1257.3,638z"/>
				<path class="st2" d="M1246.8,756c-6,0-11.1,2.1-15.2,6.2c-4.2,4.2-6.2,9.3-6.2,15.3s2.1,11.1,6.2,15.2c4.2,4.2,9.2,6.2,15.2,6.2
					s11.1-2.1,15.2-6.2c4.2-4.2,6.2-9.2,6.2-15.2s-2.1-11.1-6.2-15.3C1257.9,758.1,1252.8,756,1246.8,756z M1257.3,788
					c-2.7,2.7-6.2,4-10.5,4c-4.3,0-7.8-1.3-10.5-4c-2.7-2.7-4-6.2-4-10.5c0-4.3,1.3-7.8,4-10.5c2.7-2.7,6.2-4,10.5-4
					c4.3,0,7.8,1.3,10.5,4c2.7,2.7,4,6.2,4,10.5C1261.3,781.8,1260,785.3,1257.3,788z"/>
			</g>
		</g>
	</g>
</g>
</svg>
