<?xml version="1.0" encoding="UTF-8"?>
<!DOCTYPE svg PUBLIC "-//W3C//DTD SVG 1.1//EN" "http://www.w3.org/Graphics/SVG/1.1/DTD/svg11.dtd">
<svg version="1.1" xmlns="http://www.w3.org/2000/svg" xmlns:xlink="http://www.w3.org/1999/xlink" x="0" y="0" width="6302.182" height="2683.876" viewBox="0, 0, 1575.545, 670.969">
  <g id="Layer_1" transform="translate(5, 5)">
    <g>
      <path d="M556.257,12 L1009.801,12 L1009.801,646.969 L556.257,646.969 L556.257,12 z" fill-opacity="0" stroke="#549FD3" stroke-width="8"/>
      <path d="M556.257,102.712 L1009.801,102.712" fill-opacity="0" stroke="#549FD3" stroke-width="8"/>
      <path d="M646.961,12 L646.961,646.969" fill-opacity="0" stroke="#549FD3" stroke-width="8"/>
      <path d="M556.257,465.545 L1009.801,465.545" fill-opacity="0" stroke="#549FD3" stroke-width="8"/>
      <path d="M556.257,193.424 L1009.801,193.424" fill-opacity="0" stroke="#549FD3" stroke-width="8"/>
      <path d="M556.257,374.841 L1009.801,374.841" fill-opacity="0" stroke="#549FD3" stroke-width="8"/>
      <path d="M556.257,284.128 L1009.801,284.128" fill-opacity="0" stroke="#549FD3" stroke-width="8"/>
      <path d="M556.257,556.257 L1009.801,556.257" fill-opacity="0" stroke="#549FD3" stroke-width="8"/>
      <path d="M737.673,12 L737.673,646.969" fill-opacity="0" stroke="#549FD3" stroke-width="8"/>
      <path d="M828.377,12 L828.377,646.969" fill-opacity="0" stroke="#549FD3" stroke-width="8"/>
      <path d="M919.089,12 L919.089,646.969" fill-opacity="0" stroke="#549FD3" stroke-width="8"/>
    </g>
    <g>
      <path d="M12,12 L465.544,12 L465.544,646.969 L12,646.969 L12,12 z" fill-opacity="0" stroke="#549FD3" stroke-width="8"/>
      <path d="M12,102.712 L465.544,102.712" fill-opacity="0" stroke="#549FD3" stroke-width="8"/>
      <path d="M102.712,12 L102.712,646.969" fill-opacity="0" stroke="#549FD3" stroke-width="8"/>
      <path d="M12,465.545 L465.544,465.545" fill-opacity="0" stroke="#549FD3" stroke-width="8"/>
      <path d="M12,193.424 L465.544,193.424" fill-opacity="0" stroke="#549FD3" stroke-width="8"/>
      <path d="M12,374.841 L465.544,374.841" fill-opacity="0" stroke="#549FD3" stroke-width="8"/>
      <path d="M12,284.128 L465.544,284.128" fill-opacity="0" stroke="#549FD3" stroke-width="8"/>
      <path d="M12,556.257 L465.544,556.257" fill-opacity="0" stroke="#549FD3" stroke-width="8"/>
      <path d="M193.416,12 L193.416,646.969" fill-opacity="0" stroke="#549FD3" stroke-width="8"/>
      <path d="M284.128,12 L284.128,646.969" fill-opacity="0" stroke="#549FD3" stroke-width="8"/>
      <path d="M374.832,12 L374.832,646.969" fill-opacity="0" stroke="#549FD3" stroke-width="8"/>
    </g>
    <g>
      <path d="M1100.001,14.008 L1553.545,14.008 L1553.545,648.969 L1100.001,648.969 L1100.001,14.008 z" fill-opacity="0" stroke="#549FD3" stroke-width="8"/>
      <path d="M1100.001,104.712 L1553.545,104.712" fill-opacity="0" stroke="#549FD3" stroke-width="8"/>
      <path d="M1190.713,14.008 L1190.713,648.969" fill-opacity="0" stroke="#549FD3" stroke-width="8"/>
      <path d="M1100.001,467.545 L1553.545,467.545" fill-opacity="0" stroke="#549FD3" stroke-width="8"/>
      <path d="M1100.001,195.424 L1553.545,195.424" fill-opacity="0" stroke="#549FD3" stroke-width="8"/>
      <path d="M1100.001,376.841 L1553.545,376.841" fill-opacity="0" stroke="#549FD3" stroke-width="8"/>
      <path d="M1100.001,286.128 L1553.545,286.128" fill-opacity="0" stroke="#549FD3" stroke-width="8"/>
      <path d="M1100.001,558.257 L1553.545,558.257" fill-opacity="0" stroke="#549FD3" stroke-width="8"/>
      <path d="M1281.417,14.008 L1281.417,648.969" fill-opacity="0" stroke="#549FD3" stroke-width="8"/>
      <path d="M1372.129,14.008 L1372.129,648.969" fill-opacity="0" stroke="#549FD3" stroke-width="8"/>
      <path d="M1462.833,14.008 L1462.833,648.969" fill-opacity="0" stroke="#549FD3" stroke-width="8"/>
    </g>
    <path d="M1414.137,195.296 C1439.617,195.296 1460.001,174.912 1460.001,150.16 C1460.001,124.68 1439.617,104.296 1414.137,104.296 C1389.385,104.296 1369.001,124.68 1369.001,150.16 C1369.001,174.912 1389.385,195.296 1414.137,195.296 z M1323.137,195.296 C1348.617,195.296 1369.001,174.912 1369.001,150.16 C1369.001,124.68 1348.617,104.296 1323.137,104.296 C1298.385,104.296 1278.001,124.68 1278.001,150.16 C1278.001,174.912 1298.385,195.296 1323.137,195.296 z M1232.137,195.296 C1257.617,195.296 1278.001,174.912 1278.001,150.16 C1278.001,124.68 1257.617,104.296 1232.137,104.296 C1207.385,104.296 1187.001,124.68 1187.001,150.16 C1187.001,174.912 1207.385,195.296 1232.137,195.296 z M1382.105,156.712 L1393.753,145.064 L1406.857,159.624 L1406.857,115.216 L1422.873,115.216 L1422.873,159.624 L1435.977,145.064 L1447.625,156.712 L1414.865,186.56 z M1291.105,156.712 L1302.753,145.064 L1315.857,159.624 L1315.857,115.216 L1331.873,115.216 L1331.873,159.624 L1344.977,145.064 L1356.625,156.712 L1323.865,186.56 z M1200.105,156.712 L1211.753,145.064 L1224.857,159.624 L1224.857,115.216 L1240.873,115.216 L1240.873,159.624 L1253.977,145.064 L1265.625,156.712 L1232.865,186.56 z M1505.137,286.296 C1530.618,286.296 1551.001,265.912 1551.001,241.16 C1551.001,215.68 1530.618,195.296 1505.137,195.296 C1480.385,195.296 1460.001,215.68 1460.001,241.16 C1460.001,265.912 1480.385,286.296 1505.137,286.296 z M1414.137,286.296 C1439.617,286.296 1460.001,265.912 1460.001,241.16 C1460.001,215.68 1439.617,195.296 1414.137,195.296 C1389.385,195.296 1369.001,215.68 1369.001,241.16 C1369.001,265.912 1389.385,286.296 1414.137,286.296 z M1473.105,247.712 L1484.753,236.064 L1497.857,250.624 L1497.857,206.216 L1513.874,206.216 L1513.874,250.624 L1526.978,236.064 L1538.625,247.712 L1505.865,277.56 z M1382.105,247.712 L1393.753,236.064 L1406.857,250.624 L1406.857,206.216 L1422.873,206.216 L1422.873,250.624 L1435.977,236.064 L1447.625,247.712 L1414.865,277.56 z M1505.137,377.297 C1530.618,377.297 1551.001,356.913 1551.001,332.161 C1551.001,306.68 1530.618,286.296 1505.137,286.296 C1480.385,286.296 1460.001,306.68 1460.001,332.161 C1460.001,356.913 1480.385,377.297 1505.137,377.297 z M1414.137,377.297 C1439.617,377.297 1460.001,356.913 1460.001,332.161 C1460.001,306.68 1439.617,286.296 1414.137,286.296 C1389.385,286.296 1369.001,306.68 1369.001,332.161 C1369.001,356.913 1389.385,377.297 1414.137,377.297 z M1323.137,377.297 C1348.617,377.297 1369.001,356.913 1369.001,332.161 C1369.001,306.68 1348.617,286.296 1323.137,286.296 C1298.385,286.296 1278.001,306.68 1278.001,332.161 C1278.001,356.913 1298.385,377.297 1323.137,377.297 z M1232.137,377.297 C1257.617,377.297 1278.001,356.913 1278.001,332.161 C1278.001,306.68 1257.617,286.296 1232.137,286.296 C1207.385,286.296 1187.001,306.68 1187.001,332.161 C1187.001,356.913 1207.385,377.297 1232.137,377.297 z M1473.105,338.713 L1484.753,327.065 L1497.857,341.625 L1497.857,297.216 L1513.874,297.216 L1513.874,341.625 L1526.978,327.065 L1538.625,338.713 L1505.865,368.561 z M1382.105,338.713 L1393.753,327.065 L1406.857,341.625 L1406.857,297.216 L1422.873,297.216 L1422.873,341.625 L1435.977,327.065 L1447.625,338.713 L1414.865,368.561 z M1291.105,338.713 L1302.753,327.065 L1315.857,341.625 L1315.857,297.216 L1331.873,297.216 L1331.873,341.625 L1344.977,327.065 L1356.625,338.713 L1323.865,368.561 z M1200.105,338.713 L1211.753,327.065 L1224.857,341.625 L1224.857,297.216 L1240.873,297.216 L1240.873,341.625 L1253.977,327.065 L1265.625,338.713 L1232.865,368.561 z M1505.137,468.297 C1530.618,468.297 1551.001,447.913 1551.001,423.161 C1551.001,397.681 1530.618,377.297 1505.137,377.297 C1480.385,377.297 1460.001,397.681 1460.001,423.161 C1460.001,447.913 1480.385,468.297 1505.137,468.297 z M1141.137,468.297 C1166.617,468.297 1187.001,447.913 1187.001,423.161 C1187.001,397.681 1166.617,377.297 1141.137,377.297 C1116.385,377.297 1096.001,397.681 1096.001,423.161 C1096.001,447.913 1116.385,468.297 1141.137,468.297 z M1414.137,468.297 C1439.617,468.297 1460.001,447.913 1460.001,423.161 C1460.001,397.681 1439.617,377.297 1414.137,377.297 C1389.385,377.297 1369.001,397.681 1369.001,423.161 C1369.001,447.913 1389.385,468.297 1414.137,468.297 z M1473.105,429.713 L1484.753,418.065 L1497.857,432.625 L1497.857,388.217 L1513.874,388.217 L1513.874,432.625 L1526.978,418.065 L1538.625,429.713 L1505.865,459.561 z M1109.105,429.713 L1120.753,418.065 L1133.857,432.625 L1133.857,388.217 L1149.873,388.217 L1149.873,432.625 L1162.977,418.065 L1174.625,429.713 L1141.865,459.561 z M1382.105,429.713 L1393.753,418.065 L1406.857,432.625 L1406.857,388.217 L1422.873,388.217 L1422.873,432.625 L1435.977,418.065 L1447.625,429.713 L1414.865,459.561 z M1505.137,559.297 C1530.618,559.297 1551.001,538.913 1551.001,514.161 C1551.001,488.681 1530.618,468.297 1505.137,468.297 C1480.385,468.297 1460.001,488.681 1460.001,514.161 C1460.001,538.913 1480.385,559.297 1505.137,559.297 z M1323.137,559.297 C1348.617,559.297 1369.001,538.913 1369.001,514.161 C1369.001,488.681 1348.617,468.297 1323.137,468.297 C1298.385,468.297 1278.001,488.681 1278.001,514.161 C1278.001,538.913 1298.385,559.297 1323.137,559.297 z M1232.137,559.297 C1257.617,559.297 1278.001,538.913 1278.001,514.161 C1278.001,488.681 1257.617,468.297 1232.137,468.297 C1207.385,468.297 1187.001,488.681 1187.001,514.161 C1187.001,538.913 1207.385,559.297 1232.137,559.297 z M1473.105,520.713 L1484.753,509.065 L1497.857,523.625 L1497.857,479.217 L1513.874,479.217 L1513.874,523.625 L1526.978,509.065 L1538.625,520.713 L1505.865,550.561 z M1291.105,520.713 L1302.753,509.065 L1315.857,523.625 L1315.857,479.217 L1331.873,479.217 L1331.873,523.625 L1344.977,509.065 L1356.625,520.713 L1323.865,550.561 z M1200.105,520.713 L1211.753,509.065 L1224.857,523.625 L1224.857,479.217 L1240.873,479.217 L1240.873,523.625 L1253.977,509.065 L1265.625,520.713 L1232.865,550.561 z" fill="#1A5297"/>
    <path d="M326.144,187.472 C347.984,187.472 366.184,172.184 366.184,148.16 C366.184,123.408 347.984,108.12 326.144,108.12 C304.304,108.12 286.832,123.408 286.832,148.16 C286.832,172.184 304.304,187.472 326.144,187.472 z M235.144,187.472 C256.984,187.472 275.184,172.184 275.184,148.16 C275.184,123.408 256.984,108.12 235.144,108.12 C213.304,108.12 195.832,123.408 195.832,148.16 C195.832,172.184 213.304,187.472 235.144,187.472 z M144.144,187.472 C165.984,187.472 184.184,172.184 184.184,148.16 C184.184,123.408 165.984,108.12 144.144,108.12 C122.304,108.12 104.832,123.408 104.832,148.16 C104.832,172.184 122.304,187.472 144.144,187.472 z M417.144,278.472 C438.984,278.472 457.184,263.184 457.184,239.16 C457.184,214.408 438.984,199.12 417.144,199.12 C395.304,199.12 377.832,214.408 377.832,239.16 C377.832,263.184 395.304,278.472 417.144,278.472 z M326.144,278.472 C347.984,278.472 366.184,263.184 366.184,239.16 C366.184,214.408 347.984,199.12 326.144,199.12 C304.304,199.12 286.832,214.408 286.832,239.16 C286.832,263.184 304.304,278.472 326.144,278.472 z M417.144,369.473 C438.984,369.473 457.184,354.185 457.184,330.161 C457.184,305.408 438.984,290.12 417.144,290.12 C395.304,290.12 377.832,305.408 377.832,330.161 C377.832,354.185 395.304,369.473 417.144,369.473 z M326.144,369.473 C347.984,369.473 366.184,354.185 366.184,330.161 C366.184,305.408 347.984,290.12 326.144,290.12 C304.304,290.12 286.832,305.408 286.832,330.161 C286.832,354.185 304.304,369.473 326.144,369.473 z M235.144,369.473 C256.984,369.473 275.184,354.185 275.184,330.161 C275.184,305.408 256.984,290.12 235.144,290.12 C213.304,290.12 195.832,305.408 195.832,330.161 C195.832,354.185 213.304,369.473 235.144,369.473 z M144.144,369.473 C165.984,369.473 184.184,354.185 184.184,330.161 C184.184,305.408 165.984,290.12 144.144,290.12 C122.304,290.12 104.832,305.408 104.832,330.161 C104.832,354.185 122.304,369.473 144.144,369.473 z M417.144,460.473 C438.984,460.473 457.184,445.185 457.184,421.161 C457.184,396.409 438.984,381.121 417.144,381.121 C395.304,381.121 377.832,396.409 377.832,421.161 C377.832,445.185 395.304,460.473 417.144,460.473 z M53.144,460.473 C74.984,460.473 93.184,445.185 93.184,421.161 C93.184,396.409 74.984,381.121 53.144,381.121 C31.304,381.121 13.832,396.409 13.832,421.161 C13.832,445.185 31.304,460.473 53.144,460.473 z M326.144,460.473 C347.984,460.473 366.184,445.185 366.184,421.161 C366.184,396.409 347.984,381.121 326.144,381.121 C304.304,381.121 286.832,396.409 286.832,421.161 C286.832,445.185 304.304,460.473 326.144,460.473 z M417.144,551.473 C438.984,551.473 457.184,536.185 457.184,512.161 C457.184,487.409 438.984,472.121 417.144,472.121 C395.304,472.121 377.832,487.409 377.832,512.161 C377.832,536.185 395.304,551.473 417.144,551.473 z M235.144,551.473 C256.984,551.473 275.184,536.185 275.184,512.161 C275.184,487.409 256.984,472.121 235.144,472.121 C213.304,472.121 195.832,487.409 195.832,512.161 C195.832,536.185 213.304,551.473 235.144,551.473 z M144.144,551.473 C165.984,551.473 184.184,536.185 184.184,512.161 C184.184,487.409 165.984,472.121 144.144,472.121 C122.304,472.121 104.832,487.409 104.832,512.161 C104.832,536.185 122.304,551.473 144.144,551.473 z" fill="#7BFF52"/>
    <path d="M326.144,193.296 C351.624,193.296 372.008,172.912 372.008,148.16 C372.008,122.68 351.624,102.296 326.144,102.296 C301.392,102.296 281.008,122.68 281.008,148.16 C281.008,172.912 301.392,193.296 326.144,193.296 z M235.144,193.296 C260.624,193.296 281.008,172.912 281.008,148.16 C281.008,122.68 260.624,102.296 235.144,102.296 C210.392,102.296 190.008,122.68 190.008,148.16 C190.008,172.912 210.392,193.296 235.144,193.296 z M144.144,193.296 C169.624,193.296 190.008,172.912 190.008,148.16 C190.008,122.68 169.624,102.296 144.144,102.296 C119.392,102.296 99.008,122.68 99.008,148.16 C99.008,172.912 119.392,193.296 144.144,193.296 z M333.424,180.192 L321.776,168.544 L336.336,155.44 L291.928,155.44 L291.928,139.424 L336.336,139.424 L321.776,126.32 L333.424,114.672 L363.272,147.432 z M242.424,180.192 L230.776,168.544 L245.336,155.44 L200.928,155.44 L200.928,139.424 L245.336,139.424 L230.776,126.32 L242.424,114.672 L272.272,147.432 z M151.424,180.192 L139.776,168.544 L154.336,155.44 L109.928,155.44 L109.928,139.424 L154.336,139.424 L139.776,126.32 L151.424,114.672 L181.272,147.432 z M417.144,284.296 C442.624,284.296 463.008,263.912 463.008,239.16 C463.008,213.68 442.624,193.296 417.144,193.296 C392.392,193.296 372.008,213.68 372.008,239.16 C372.008,263.912 392.392,284.296 417.144,284.296 z M326.144,284.296 C351.624,284.296 372.008,263.912 372.008,239.16 C372.008,213.68 351.624,193.296 326.144,193.296 C301.392,193.296 281.008,213.68 281.008,239.16 C281.008,263.912 301.392,284.296 326.144,284.296 z M424.424,271.192 L412.776,259.544 L427.336,246.44 L382.928,246.44 L382.928,230.424 L427.336,230.424 L412.776,217.32 L424.424,205.672 L454.272,238.432 z M333.424,271.192 L321.776,259.544 L336.336,246.44 L291.928,246.44 L291.928,230.424 L336.336,230.424 L321.776,217.32 L333.424,205.672 L363.272,238.432 z M417.144,375.297 C442.624,375.297 463.008,354.913 463.008,330.161 C463.008,304.68 442.624,284.296 417.144,284.296 C392.392,284.296 372.008,304.68 372.008,330.161 C372.008,354.913 392.392,375.297 417.144,375.297 z M326.144,375.297 C351.624,375.297 372.008,354.913 372.008,330.161 C372.008,304.68 351.624,284.296 326.144,284.296 C301.392,284.296 281.008,304.68 281.008,330.161 C281.008,354.913 301.392,375.297 326.144,375.297 z M235.144,375.297 C260.624,375.297 281.008,354.913 281.008,330.161 C281.008,304.68 260.624,284.296 235.144,284.296 C210.392,284.296 190.008,304.68 190.008,330.161 C190.008,354.913 210.392,375.297 235.144,375.297 z M144.144,375.297 C169.624,375.297 190.008,354.913 190.008,330.161 C190.008,304.68 169.624,284.296 144.144,284.296 C119.392,284.296 99.008,304.68 99.008,330.161 C99.008,354.913 119.392,375.297 144.144,375.297 z M424.424,362.193 L412.776,350.545 L427.336,337.441 L382.928,337.441 L382.928,321.424 L427.336,321.424 L412.776,308.32 L424.424,296.672 L454.272,329.433 z M333.424,362.193 L321.776,350.545 L336.336,337.441 L291.928,337.441 L291.928,321.424 L336.336,321.424 L321.776,308.32 L333.424,296.672 L363.272,329.433 z M242.424,362.193 L230.776,350.545 L245.336,337.441 L200.928,337.441 L200.928,321.424 L245.336,321.424 L230.776,308.32 L242.424,296.672 L272.272,329.433 z M151.424,362.193 L139.776,350.545 L154.336,337.441 L109.928,337.441 L109.928,321.424 L154.336,321.424 L139.776,308.32 L151.424,296.672 L181.272,329.433 z M417.144,466.297 C442.624,466.297 463.008,445.913 463.008,421.161 C463.008,395.681 442.624,375.297 417.144,375.297 C392.392,375.297 372.008,395.681 372.008,421.161 C372.008,445.913 392.392,466.297 417.144,466.297 z M53.144,466.297 C78.624,466.297 99.008,445.913 99.008,421.161 C99.008,395.681 78.624,375.297 53.144,375.297 C28.392,375.297 8.008,395.681 8.008,421.161 C8.008,445.913 28.392,466.297 53.144,466.297 z M326.144,466.297 C351.624,466.297 372.008,445.913 372.008,421.161 C372.008,395.681 351.624,375.297 326.144,375.297 C301.392,375.297 281.008,395.681 281.008,421.161 C281.008,445.913 301.392,466.297 326.144,466.297 z M424.424,453.193 L412.776,441.545 L427.336,428.441 L382.928,428.441 L382.928,412.425 L427.336,412.425 L412.776,399.321 L424.424,387.673 L454.272,420.433 z M60.424,453.193 L48.776,441.545 L63.336,428.441 L18.928,428.441 L18.928,412.425 L63.336,412.425 L48.776,399.321 L60.424,387.673 L90.272,420.433 z M333.424,453.193 L321.776,441.545 L336.336,428.441 L291.928,428.441 L291.928,412.425 L336.336,412.425 L321.776,399.321 L333.424,387.673 L363.272,420.433 z M417.144,557.297 C442.624,557.297 463.008,536.913 463.008,512.161 C463.008,486.681 442.624,466.297 417.144,466.297 C392.392,466.297 372.008,486.681 372.008,512.161 C372.008,536.913 392.392,557.297 417.144,557.297 z M235.144,557.297 C260.624,557.297 281.008,536.913 281.008,512.161 C281.008,486.681 260.624,466.297 235.144,466.297 C210.392,466.297 190.008,486.681 190.008,512.161 C190.008,536.913 210.392,557.297 235.144,557.297 z M144.144,557.297 C169.624,557.297 190.008,536.913 190.008,512.161 C190.008,486.681 169.624,466.297 144.144,466.297 C119.392,466.297 99.008,486.681 99.008,512.161 C99.008,536.913 119.392,557.297 144.144,557.297 z M424.424,544.193 L412.776,532.545 L427.336,519.441 L382.928,519.441 L382.928,503.425 L427.336,503.425 L412.776,490.321 L424.424,478.673 L454.272,511.433 z M242.424,544.193 L230.776,532.545 L245.336,519.441 L200.928,519.441 L200.928,503.425 L245.336,503.425 L230.776,490.321 L242.424,478.673 L272.272,511.433 z M151.424,544.193 L139.776,532.545 L154.336,519.441 L109.928,519.441 L109.928,503.425 L154.336,503.425 L139.776,490.321 L151.424,478.673 L181.272,511.433 z" fill="#1A5297"/>
    <path d="M961.393,574.769 C995.609,574.769 1024.001,550.745 1024.001,512.161 C1024.001,493.233 1016.721,477.217 1005.801,467.025 C1016.721,456.105 1024.001,440.089 1024.001,421.161 C1024.001,402.233 1016.721,386.217 1005.801,376.025 C1016.721,365.105 1024.001,349.089 1024.001,330.16 C1024.001,311.232 1016.721,295.216 1005.801,285.024 C1016.721,274.104 1024.001,258.088 1024.001,239.16 C1024.001,200.576 995.609,176.552 961.393,176.552 C943.921,176.552 927.177,183.104 916.257,194.752 L914.801,194.024 C925.721,183.104 933.001,167.088 933.001,148.16 C933.001,109.576 904.609,85.552 870.393,85.552 C852.921,85.552 836.177,92.104 825.257,103.752 C813.609,92.104 796.865,85.552 779.393,85.552 C761.921,85.552 745.177,92.104 734.257,103.752 C722.609,92.104 705.865,85.552 688.393,85.552 C654.177,85.552 625.785,109.576 625.785,148.16 C625.785,186.744 654.177,210.768 688.393,210.768 C705.865,210.768 722.609,204.216 733.529,192.568 C745.177,204.216 761.921,210.768 779.393,210.768 C796.865,210.768 813.609,204.216 824.529,192.568 L825.985,193.296 C815.065,204.216 807.785,220.232 807.785,239.16 C807.785,258.088 815.065,274.104 825.985,284.296 C825.985,285.024 825.257,285.024 825.257,285.752 C813.609,274.104 796.865,267.552 779.393,267.552 C761.921,267.552 745.177,274.104 734.257,285.752 C722.609,274.104 705.865,267.552 688.393,267.552 C654.177,267.552 625.785,291.576 625.785,330.16 C625.785,368.745 654.177,392.769 688.393,392.769 C705.865,392.769 722.609,386.217 733.529,374.569 C745.177,386.217 761.921,392.769 779.393,392.769 C796.865,392.769 813.609,386.217 824.529,374.569 L825.985,375.297 C815.065,386.217 807.785,402.233 807.785,421.161 C807.785,459.745 836.177,483.769 870.393,483.769 C887.865,483.769 904.609,477.217 915.529,465.569 L916.985,466.297 C906.065,477.217 898.785,493.233 898.785,512.161 C898.785,550.745 927.177,574.769 961.393,574.769 z M916.257,285.752 L914.801,285.024 C914.801,284.296 915.529,284.296 915.529,283.568 L916.985,284.296 C916.985,285.024 916.257,285.024 916.257,285.752 z M597.393,483.769 C631.609,483.769 660.001,459.745 660.001,421.161 C660.001,382.577 631.609,358.553 597.393,358.553 C563.177,358.553 534.784,382.577 534.784,421.161 C534.784,459.745 563.177,483.769 597.393,483.769 z M916.257,376.753 L914.801,376.025 C914.801,375.297 915.529,375.297 915.529,374.569 L916.985,375.297 C916.985,376.025 916.257,376.025 916.257,376.753 z M779.393,574.769 C813.609,574.769 842.001,550.745 842.001,512.161 C842.001,473.577 813.609,449.553 779.393,449.553 C761.921,449.553 745.177,456.105 734.257,467.753 C722.609,456.105 705.865,449.553 688.393,449.553 C654.177,449.553 625.785,473.577 625.785,512.161 C625.785,550.745 654.177,574.769 688.393,574.769 C705.865,574.769 722.609,568.217 733.529,556.569 C745.177,568.217 761.921,574.769 779.393,574.769 z" fill="#97481A"/>
    <path d="M847.713,170.616 C875.377,170.616 892.849,153.144 892.849,125.48 C892.849,97.816 875.377,80.344 847.713,80.344 C820.049,80.344 802.577,97.816 802.577,125.48 C802.577,153.144 820.049,170.616 847.713,170.616 z M756.713,170.616 C784.377,170.616 801.849,153.144 801.849,125.48 C801.849,97.816 784.377,80.344 756.713,80.344 C729.049,80.344 711.577,97.816 711.577,125.48 C711.577,153.144 729.049,170.616 756.713,170.616 z M665.713,170.616 C693.377,170.616 710.849,153.144 710.849,125.48 C710.849,97.816 693.377,80.344 665.713,80.344 C638.049,80.344 620.577,97.816 620.577,125.48 C620.577,153.144 638.049,170.616 665.713,170.616 z M847.713,145.864 C835.337,145.864 827.329,137.856 827.329,125.48 C827.329,113.104 835.337,105.096 847.713,105.096 C860.089,105.096 868.097,113.104 868.097,125.48 C868.097,137.856 860.089,145.864 847.713,145.864 z M756.713,145.864 C744.337,145.864 736.329,137.856 736.329,125.48 C736.329,113.104 744.337,105.096 756.713,105.096 C769.089,105.096 777.097,113.104 777.097,125.48 C777.097,137.856 769.089,145.864 756.713,145.864 z M665.713,145.864 C653.337,145.864 645.329,137.856 645.329,125.48 C645.329,113.104 653.337,105.096 665.713,105.096 C678.089,105.096 686.097,113.104 686.097,125.48 C686.097,137.856 678.089,145.864 665.713,145.864 z M938.713,261.616 C966.377,261.616 983.849,244.144 983.849,216.48 C983.849,188.816 966.377,171.344 938.713,171.344 C911.049,171.344 893.577,188.816 893.577,216.48 C893.577,244.144 911.049,261.616 938.713,261.616 z M847.713,261.616 C875.377,261.616 892.849,244.144 892.849,216.48 C892.849,188.816 875.377,171.344 847.713,171.344 C820.049,171.344 802.577,188.816 802.577,216.48 C802.577,244.144 820.049,261.616 847.713,261.616 z M938.713,236.864 C926.337,236.864 918.329,228.856 918.329,216.48 C918.329,204.104 926.337,196.096 938.713,196.096 C951.089,196.096 959.097,204.104 959.097,216.48 C959.097,228.856 951.089,236.864 938.713,236.864 z M847.713,236.864 C835.337,236.864 827.329,228.856 827.329,216.48 C827.329,204.104 835.337,196.096 847.713,196.096 C860.089,196.096 868.097,204.104 868.097,216.48 C868.097,228.856 860.089,236.864 847.713,236.864 z M938.713,352.617 C966.377,352.617 983.849,335.145 983.849,307.48 C983.849,279.816 966.377,262.344 938.713,262.344 C911.049,262.344 893.577,279.816 893.577,307.48 C893.577,335.145 911.049,352.617 938.713,352.617 z M847.713,352.617 C875.377,352.617 892.849,335.145 892.849,307.48 C892.849,279.816 875.377,262.344 847.713,262.344 C820.049,262.344 802.577,279.816 802.577,307.48 C802.577,335.145 820.049,352.617 847.713,352.617 z M756.713,352.617 C784.377,352.617 801.849,335.145 801.849,307.48 C801.849,279.816 784.377,262.344 756.713,262.344 C729.049,262.344 711.577,279.816 711.577,307.48 C711.577,335.145 729.049,352.617 756.713,352.617 z M665.713,352.617 C693.377,352.617 710.849,335.145 710.849,307.48 C710.849,279.816 693.377,262.344 665.713,262.344 C638.049,262.344 620.577,279.816 620.577,307.48 C620.577,335.145 638.049,352.617 665.713,352.617 z M938.713,327.865 C926.337,327.865 918.329,319.857 918.329,307.48 C918.329,295.104 926.337,287.096 938.713,287.096 C951.089,287.096 959.097,295.104 959.097,307.48 C959.097,319.857 951.089,327.865 938.713,327.865 z M847.713,327.865 C835.337,327.865 827.329,319.857 827.329,307.48 C827.329,295.104 835.337,287.096 847.713,287.096 C860.089,287.096 868.097,295.104 868.097,307.48 C868.097,319.857 860.089,327.865 847.713,327.865 z M756.713,327.865 C744.337,327.865 736.329,319.857 736.329,307.48 C736.329,295.104 744.337,287.096 756.713,287.096 C769.089,287.096 777.097,295.104 777.097,307.48 C777.097,319.857 769.089,327.865 756.713,327.865 z M665.713,327.865 C653.337,327.865 645.329,319.857 645.329,307.48 C645.329,295.104 653.337,287.096 665.713,287.096 C678.089,287.096 686.097,295.104 686.097,307.48 C686.097,319.857 678.089,327.865 665.713,327.865 z M938.713,443.617 C966.377,443.617 983.849,426.145 983.849,398.481 C983.849,370.817 966.377,353.345 938.713,353.345 C911.049,353.345 893.577,370.817 893.577,398.481 C893.577,426.145 911.049,443.617 938.713,443.617 z M574.713,443.617 C602.377,443.617 619.849,426.145 619.849,398.481 C619.849,370.817 602.377,353.345 574.713,353.345 C547.049,353.345 529.577,370.817 529.577,398.481 C529.577,426.145 547.049,443.617 574.713,443.617 z M847.713,443.617 C875.377,443.617 892.849,426.145 892.849,398.481 C892.849,370.817 875.377,353.345 847.713,353.345 C820.049,353.345 802.577,370.817 802.577,398.481 C802.577,426.145 820.049,443.617 847.713,443.617 z M938.713,418.865 C926.337,418.865 918.329,410.857 918.329,398.481 C918.329,386.105 926.337,378.097 938.713,378.097 C951.089,378.097 959.097,386.105 959.097,398.481 C959.097,410.857 951.089,418.865 938.713,418.865 z M574.713,418.865 C562.337,418.865 554.329,410.857 554.329,398.481 C554.329,386.105 562.337,378.097 574.713,378.097 C587.089,378.097 595.097,386.105 595.097,398.481 C595.097,410.857 587.089,418.865 574.713,418.865 z M847.713,418.865 C835.337,418.865 827.329,410.857 827.329,398.481 C827.329,386.105 835.337,378.097 847.713,378.097 C860.089,378.097 868.097,386.105 868.097,398.481 C868.097,410.857 860.089,418.865 847.713,418.865 z M938.713,534.617 C966.377,534.617 983.849,517.145 983.849,489.481 C983.849,461.817 966.377,444.345 938.713,444.345 C911.049,444.345 893.577,461.817 893.577,489.481 C893.577,517.145 911.049,534.617 938.713,534.617 z M756.713,534.617 C784.377,534.617 801.849,517.145 801.849,489.481 C801.849,461.817 784.377,444.345 756.713,444.345 C729.049,444.345 711.577,461.817 711.577,489.481 C711.577,517.145 729.049,534.617 756.713,534.617 z M665.713,534.617 C693.377,534.617 710.849,517.145 710.849,489.481 C710.849,461.817 693.377,444.345 665.713,444.345 C638.049,444.345 620.577,461.817 620.577,489.481 C620.577,517.145 638.049,534.617 665.713,534.617 z M938.713,509.865 C926.337,509.865 918.329,501.857 918.329,489.481 C918.329,477.105 926.337,469.097 938.713,469.097 C951.089,469.097 959.097,477.105 959.097,489.481 C959.097,501.857 951.089,509.865 938.713,509.865 z M756.713,509.865 C744.337,509.865 736.329,501.857 736.329,489.481 C736.329,477.105 744.337,469.097 756.713,469.097 C769.089,469.097 777.097,477.105 777.097,489.481 C777.097,501.857 769.089,509.865 756.713,509.865 z M665.713,509.865 C653.337,509.865 645.329,501.857 645.329,489.481 C645.329,477.105 653.337,469.097 665.713,469.097 C678.089,469.097 686.097,477.105 686.097,489.481 C686.097,501.857 678.089,509.865 665.713,509.865 z" fill="#98AC1F"/>
    <path d="M837.041,128.648 C849.417,128.648 859.609,119.184 859.609,106.808 C859.609,94.432 849.417,84.24 837.041,84.24 C824.665,84.24 815.201,94.432 815.201,106.808 C815.201,119.184 824.665,128.648 837.041,128.648 z M746.041,128.648 C758.417,128.648 768.609,119.184 768.609,106.808 C768.609,94.432 758.417,84.24 746.041,84.24 C733.665,84.24 724.201,94.432 724.201,106.808 C724.201,119.184 733.665,128.648 746.041,128.648 z M655.041,128.648 C667.417,128.648 677.609,119.184 677.609,106.808 C677.609,94.432 667.417,84.24 655.041,84.24 C642.665,84.24 633.201,94.432 633.201,106.808 C633.201,119.184 642.665,128.648 655.041,128.648 z M928.041,219.648 C940.417,219.648 950.609,210.184 950.609,197.808 C950.609,185.432 940.417,175.24 928.041,175.24 C915.665,175.24 906.201,185.432 906.201,197.808 C906.201,210.184 915.665,219.648 928.041,219.648 z M837.041,219.648 C849.417,219.648 859.609,210.184 859.609,197.808 C859.609,185.432 849.417,175.24 837.041,175.24 C824.665,175.24 815.201,185.432 815.201,197.808 C815.201,210.184 824.665,219.648 837.041,219.648 z M928.041,310.648 C940.417,310.648 950.609,301.184 950.609,288.808 C950.609,276.432 940.417,266.24 928.041,266.24 C915.665,266.24 906.201,276.432 906.201,288.808 C906.201,301.184 915.665,310.648 928.041,310.648 z M837.041,310.648 C849.417,310.648 859.609,301.184 859.609,288.808 C859.609,276.432 849.417,266.24 837.041,266.24 C824.665,266.24 815.201,276.432 815.201,288.808 C815.201,301.184 824.665,310.648 837.041,310.648 z M746.041,310.648 C758.417,310.648 768.609,301.184 768.609,288.808 C768.609,276.432 758.417,266.24 746.041,266.24 C733.665,266.24 724.201,276.432 724.201,288.808 C724.201,301.184 733.665,310.648 746.041,310.648 z M655.041,310.648 C667.417,310.648 677.609,301.184 677.609,288.808 C677.609,276.432 667.417,266.24 655.041,266.24 C642.665,266.24 633.201,276.432 633.201,288.808 C633.201,301.184 642.665,310.648 655.041,310.648 z M928.041,401.649 C940.417,401.649 950.609,392.185 950.609,379.809 C950.609,367.433 940.417,357.241 928.041,357.241 C915.665,357.241 906.201,367.433 906.201,379.809 C906.201,392.185 915.665,401.649 928.041,401.649 z M564.041,401.649 C576.417,401.649 586.609,392.185 586.609,379.809 C586.609,367.433 576.417,357.241 564.041,357.241 C551.664,357.241 542.201,367.433 542.201,379.809 C542.201,392.185 551.664,401.649 564.041,401.649 z M837.041,401.649 C849.417,401.649 859.609,392.185 859.609,379.809 C859.609,367.433 849.417,357.241 837.041,357.241 C824.665,357.241 815.201,367.433 815.201,379.809 C815.201,392.185 824.665,401.649 837.041,401.649 z M928.041,492.649 C940.417,492.649 950.609,483.185 950.609,470.809 C950.609,458.433 940.417,448.241 928.041,448.241 C915.665,448.241 906.201,458.433 906.201,470.809 C906.201,483.185 915.665,492.649 928.041,492.649 z M746.041,492.649 C758.417,492.649 768.609,483.185 768.609,470.809 C768.609,458.433 758.417,448.241 746.041,448.241 C733.665,448.241 724.201,458.433 724.201,470.809 C724.201,483.185 733.665,492.649 746.041,492.649 z M655.041,492.649 C667.417,492.649 677.609,483.185 677.609,470.809 C677.609,458.433 667.417,448.241 655.041,448.241 C642.665,448.241 633.201,458.433 633.201,470.809 C633.201,483.185 642.665,492.649 655.041,492.649 z" fill="#DCFF0A"/>
  </g>
</svg>
