<?xml version="1.0" encoding="UTF-8"?>
<!DOCTYPE svg PUBLIC "-//W3C//DTD SVG 1.1//EN" "http://www.w3.org/Graphics/SVG/1.1/DTD/svg11.dtd">
<svg version="1.1" xmlns="http://www.w3.org/2000/svg" xmlns:xlink="http://www.w3.org/1999/xlink" x="0" y="0" width="2127.922" height="655.64" viewBox="0, 0, 265.99, 81.955">
  <g id="Layer_1" transform="translate(-348.848, -440.63)">
    <g>
      <path d="M351.532,442.13 L408.225,442.13 L408.225,521.5 L351.532,521.5 L351.532,442.13 z" fill-opacity="0" stroke="#549FD3" stroke-width="1"/>
      <path d="M351.532,453.469 L408.225,453.469" fill-opacity="0" stroke="#549FD3" stroke-width="1"/>
      <path d="M362.87,442.13 L362.87,521.5" fill-opacity="0" stroke="#549FD3" stroke-width="1"/>
      <path d="M351.532,498.823 L408.225,498.823" fill-opacity="0" stroke="#549FD3" stroke-width="1"/>
      <path d="M351.532,464.807 L408.225,464.807" fill-opacity="0" stroke="#549FD3" stroke-width="1"/>
      <path d="M351.532,487.484 L408.225,487.484" fill-opacity="0" stroke="#549FD3" stroke-width="1"/>
      <path d="M351.532,476.146 L408.225,476.146" fill-opacity="0" stroke="#549FD3" stroke-width="1"/>
      <path d="M351.532,510.161 L408.225,510.161" fill-opacity="0" stroke="#549FD3" stroke-width="1"/>
      <path d="M374.209,442.13 L374.209,521.5" fill-opacity="0" stroke="#549FD3" stroke-width="1"/>
      <path d="M385.547,442.13 L385.547,521.5" fill-opacity="0" stroke="#549FD3" stroke-width="1"/>
      <path d="M396.886,442.13 L396.886,521.5" fill-opacity="0" stroke="#549FD3" stroke-width="1"/>
    </g>
    <path d="M402.174,512.476 C406.451,512.476 410,509.473 410,504.65 C410,502.284 409.09,500.282 407.725,499.008 C409.09,497.643 410,495.641 410,493.275 C410,490.909 409.09,488.907 407.725,487.633 C409.09,486.268 410,484.266 410,481.9 C410,479.534 409.09,477.532 407.725,476.258 C409.09,474.893 410,472.891 410,470.525 C410,465.702 406.451,462.699 402.174,462.699 C399.99,462.699 397.897,463.518 396.532,464.974 L396.35,464.883 C397.715,463.518 398.625,461.516 398.625,459.15 C398.625,454.327 395.076,451.324 390.799,451.324 C388.615,451.324 386.522,452.143 385.157,453.599 C383.701,452.143 381.608,451.324 379.424,451.324 C377.24,451.324 375.147,452.143 373.782,453.599 C372.326,452.143 370.233,451.324 368.049,451.324 C363.772,451.324 360.223,454.327 360.223,459.15 C360.223,463.973 363.772,466.976 368.049,466.976 C370.233,466.976 372.326,466.157 373.691,464.701 C375.147,466.157 377.24,466.976 379.424,466.976 C381.608,466.976 383.701,466.157 385.066,464.701 L385.248,464.792 C383.883,466.157 382.973,468.159 382.973,470.525 C382.973,472.891 383.883,474.893 385.248,476.167 C385.248,476.258 385.157,476.258 385.157,476.349 C383.701,474.893 381.608,474.074 379.424,474.074 C377.24,474.074 375.147,474.893 373.782,476.349 C372.326,474.893 370.233,474.074 368.049,474.074 C363.772,474.074 360.223,477.077 360.223,481.9 C360.223,486.723 363.772,489.726 368.049,489.726 C370.233,489.726 372.326,488.907 373.691,487.451 C375.147,488.907 377.24,489.726 379.424,489.726 C381.608,489.726 383.701,488.907 385.066,487.451 L385.248,487.542 C383.883,488.907 382.973,490.909 382.973,493.275 C382.973,498.098 386.522,501.101 390.799,501.101 C392.983,501.101 395.076,500.282 396.441,498.826 L396.623,498.917 C395.258,500.282 394.348,502.284 394.348,504.65 C394.348,509.473 397.897,512.476 402.174,512.476 z M396.532,476.349 L396.35,476.258 C396.35,476.167 396.441,476.167 396.441,476.076 L396.623,476.167 C396.623,476.258 396.532,476.258 396.532,476.349 z M356.674,501.101 C360.951,501.101 364.5,498.098 364.5,493.275 C364.5,488.452 360.951,485.449 356.674,485.449 C352.397,485.449 348.848,488.452 348.848,493.275 C348.848,498.098 352.397,501.101 356.674,501.101 z M396.532,487.724 L396.35,487.633 C396.35,487.542 396.441,487.542 396.441,487.451 L396.623,487.542 C396.623,487.633 396.532,487.633 396.532,487.724 z M379.424,512.476 C383.701,512.476 387.25,509.473 387.25,504.65 C387.25,499.827 383.701,496.824 379.424,496.824 C377.24,496.824 375.147,497.643 373.782,499.099 C372.326,497.643 370.233,496.824 368.049,496.824 C363.772,496.824 360.223,499.827 360.223,504.65 C360.223,509.473 363.772,512.476 368.049,512.476 C370.233,512.476 372.326,511.657 373.691,510.201 C375.147,511.657 377.24,512.476 379.424,512.476 z" fill="#97481A"/>
    <g>
      <path d="M420.416,442.13 L477.109,442.13 L477.109,521.5 L420.416,521.5 L420.416,442.13 z" fill-opacity="0" stroke="#549FD3" stroke-width="1"/>
      <path d="M420.416,453.469 L477.109,453.469" fill-opacity="0" stroke="#549FD3" stroke-width="1"/>
      <path d="M431.755,442.13 L431.755,521.5" fill-opacity="0" stroke="#549FD3" stroke-width="1"/>
      <path d="M420.416,498.823 L477.109,498.823" fill-opacity="0" stroke="#549FD3" stroke-width="1"/>
      <path d="M420.416,464.807 L477.109,464.807" fill-opacity="0" stroke="#549FD3" stroke-width="1"/>
      <path d="M420.416,487.484 L477.109,487.484" fill-opacity="0" stroke="#549FD3" stroke-width="1"/>
      <path d="M420.416,476.146 L477.109,476.146" fill-opacity="0" stroke="#549FD3" stroke-width="1"/>
      <path d="M420.416,510.161 L477.109,510.161" fill-opacity="0" stroke="#549FD3" stroke-width="1"/>
      <path d="M443.093,442.13 L443.093,521.5" fill-opacity="0" stroke="#549FD3" stroke-width="1"/>
      <path d="M454.432,442.13 L454.432,521.5" fill-opacity="0" stroke="#549FD3" stroke-width="1"/>
      <path d="M465.77,442.13 L465.77,521.5" fill-opacity="0" stroke="#549FD3" stroke-width="1"/>
    </g>
    <path d="M456.849,461.957 C460.307,461.957 462.491,459.773 462.491,456.315 C462.491,452.857 460.307,450.673 456.849,450.673 C453.391,450.673 451.207,452.857 451.207,456.315 C451.207,459.773 453.391,461.957 456.849,461.957 z M445.474,461.957 C448.932,461.957 451.116,459.773 451.116,456.315 C451.116,452.857 448.932,450.673 445.474,450.673 C442.016,450.673 439.832,452.857 439.832,456.315 C439.832,459.773 442.016,461.957 445.474,461.957 z M434.099,461.957 C437.557,461.957 439.741,459.773 439.741,456.315 C439.741,452.857 437.557,450.673 434.099,450.673 C430.641,450.673 428.457,452.857 428.457,456.315 C428.457,459.773 430.641,461.957 434.099,461.957 z M456.849,458.863 C455.302,458.863 454.301,457.862 454.301,456.315 C454.301,454.768 455.302,453.767 456.849,453.767 C458.396,453.767 459.397,454.768 459.397,456.315 C459.397,457.862 458.396,458.863 456.849,458.863 z M445.474,458.863 C443.927,458.863 442.926,457.862 442.926,456.315 C442.926,454.768 443.927,453.767 445.474,453.767 C447.021,453.767 448.022,454.768 448.022,456.315 C448.022,457.862 447.021,458.863 445.474,458.863 z M434.099,458.863 C432.552,458.863 431.551,457.862 431.551,456.315 C431.551,454.768 432.552,453.767 434.099,453.767 C435.646,453.767 436.647,454.768 436.647,456.315 C436.647,457.862 435.646,458.863 434.099,458.863 z M468.224,473.332 C471.682,473.332 473.866,471.148 473.866,467.69 C473.866,464.232 471.682,462.048 468.224,462.048 C464.766,462.048 462.582,464.232 462.582,467.69 C462.582,471.148 464.766,473.332 468.224,473.332 z M456.849,473.332 C460.307,473.332 462.491,471.148 462.491,467.69 C462.491,464.232 460.307,462.048 456.849,462.048 C453.391,462.048 451.207,464.232 451.207,467.69 C451.207,471.148 453.391,473.332 456.849,473.332 z M468.224,470.238 C466.677,470.238 465.676,469.237 465.676,467.69 C465.676,466.143 466.677,465.142 468.224,465.142 C469.771,465.142 470.772,466.143 470.772,467.69 C470.772,469.237 469.771,470.238 468.224,470.238 z M456.849,470.238 C455.302,470.238 454.301,469.237 454.301,467.69 C454.301,466.143 455.302,465.142 456.849,465.142 C458.396,465.142 459.397,466.143 459.397,467.69 C459.397,469.237 458.396,470.238 456.849,470.238 z M468.224,484.707 C471.682,484.707 473.866,482.523 473.866,479.065 C473.866,475.607 471.682,473.423 468.224,473.423 C464.766,473.423 462.582,475.607 462.582,479.065 C462.582,482.523 464.766,484.707 468.224,484.707 z M456.849,484.707 C460.307,484.707 462.491,482.523 462.491,479.065 C462.491,475.607 460.307,473.423 456.849,473.423 C453.391,473.423 451.207,475.607 451.207,479.065 C451.207,482.523 453.391,484.707 456.849,484.707 z M445.474,484.707 C448.932,484.707 451.116,482.523 451.116,479.065 C451.116,475.607 448.932,473.423 445.474,473.423 C442.016,473.423 439.832,475.607 439.832,479.065 C439.832,482.523 442.016,484.707 445.474,484.707 z M434.099,484.707 C437.557,484.707 439.741,482.523 439.741,479.065 C439.741,475.607 437.557,473.423 434.099,473.423 C430.641,473.423 428.457,475.607 428.457,479.065 C428.457,482.523 430.641,484.707 434.099,484.707 z M468.224,481.613 C466.677,481.613 465.676,480.612 465.676,479.065 C465.676,477.518 466.677,476.517 468.224,476.517 C469.771,476.517 470.772,477.518 470.772,479.065 C470.772,480.612 469.771,481.613 468.224,481.613 z M456.849,481.613 C455.302,481.613 454.301,480.612 454.301,479.065 C454.301,477.518 455.302,476.517 456.849,476.517 C458.396,476.517 459.397,477.518 459.397,479.065 C459.397,480.612 458.396,481.613 456.849,481.613 z M445.474,481.613 C443.927,481.613 442.926,480.612 442.926,479.065 C442.926,477.518 443.927,476.517 445.474,476.517 C447.021,476.517 448.022,477.518 448.022,479.065 C448.022,480.612 447.021,481.613 445.474,481.613 z M434.099,481.613 C432.552,481.613 431.551,480.612 431.551,479.065 C431.551,477.518 432.552,476.517 434.099,476.517 C435.646,476.517 436.647,477.518 436.647,479.065 C436.647,480.612 435.646,481.613 434.099,481.613 z M468.224,496.082 C471.682,496.082 473.866,493.898 473.866,490.44 C473.866,486.982 471.682,484.798 468.224,484.798 C464.766,484.798 462.582,486.982 462.582,490.44 C462.582,493.898 464.766,496.082 468.224,496.082 z M422.724,496.082 C426.182,496.082 428.366,493.898 428.366,490.44 C428.366,486.982 426.182,484.798 422.724,484.798 C419.266,484.798 417.082,486.982 417.082,490.44 C417.082,493.898 419.266,496.082 422.724,496.082 z M456.849,496.082 C460.307,496.082 462.491,493.898 462.491,490.44 C462.491,486.982 460.307,484.798 456.849,484.798 C453.391,484.798 451.207,486.982 451.207,490.44 C451.207,493.898 453.391,496.082 456.849,496.082 z M468.224,492.988 C466.677,492.988 465.676,491.987 465.676,490.44 C465.676,488.893 466.677,487.892 468.224,487.892 C469.771,487.892 470.772,488.893 470.772,490.44 C470.772,491.987 469.771,492.988 468.224,492.988 z M422.724,492.988 C421.177,492.988 420.176,491.987 420.176,490.44 C420.176,488.893 421.177,487.892 422.724,487.892 C424.271,487.892 425.272,488.893 425.272,490.44 C425.272,491.987 424.271,492.988 422.724,492.988 z M456.849,492.988 C455.302,492.988 454.301,491.987 454.301,490.44 C454.301,488.893 455.302,487.892 456.849,487.892 C458.396,487.892 459.397,488.893 459.397,490.44 C459.397,491.987 458.396,492.988 456.849,492.988 z M468.224,507.457 C471.682,507.457 473.866,505.273 473.866,501.815 C473.866,498.357 471.682,496.173 468.224,496.173 C464.766,496.173 462.582,498.357 462.582,501.815 C462.582,505.273 464.766,507.457 468.224,507.457 z M445.474,507.457 C448.932,507.457 451.116,505.273 451.116,501.815 C451.116,498.357 448.932,496.173 445.474,496.173 C442.016,496.173 439.832,498.357 439.832,501.815 C439.832,505.273 442.016,507.457 445.474,507.457 z M434.099,507.457 C437.557,507.457 439.741,505.273 439.741,501.815 C439.741,498.357 437.557,496.173 434.099,496.173 C430.641,496.173 428.457,498.357 428.457,501.815 C428.457,505.273 430.641,507.457 434.099,507.457 z M468.224,504.363 C466.677,504.363 465.676,503.362 465.676,501.815 C465.676,500.268 466.677,499.267 468.224,499.267 C469.771,499.267 470.772,500.268 470.772,501.815 C470.772,503.362 469.771,504.363 468.224,504.363 z M445.474,504.363 C443.927,504.363 442.926,503.362 442.926,501.815 C442.926,500.268 443.927,499.267 445.474,499.267 C447.021,499.267 448.022,500.268 448.022,501.815 C448.022,503.362 447.021,504.363 445.474,504.363 z M434.099,504.363 C432.552,504.363 431.551,503.362 431.551,501.815 C431.551,500.268 432.552,499.267 434.099,499.267 C435.646,499.267 436.647,500.268 436.647,501.815 C436.647,503.362 435.646,504.363 434.099,504.363 z" fill="#98AC1F"/>
    <g>
      <path d="M488.43,442.715 L545.122,442.715 L545.122,522.085 L488.43,522.085 L488.43,442.715 z" fill-opacity="0" stroke="#549FD3" stroke-width="1"/>
      <path d="M488.43,454.053 L545.122,454.053" fill-opacity="0" stroke="#549FD3" stroke-width="1"/>
      <path d="M499.768,442.715 L499.768,522.085" fill-opacity="0" stroke="#549FD3" stroke-width="1"/>
      <path d="M488.43,499.408 L545.122,499.408" fill-opacity="0" stroke="#549FD3" stroke-width="1"/>
      <path d="M488.43,465.392 L545.122,465.392" fill-opacity="0" stroke="#549FD3" stroke-width="1"/>
      <path d="M488.43,488.069 L545.122,488.069" fill-opacity="0" stroke="#549FD3" stroke-width="1"/>
      <path d="M488.43,476.731 L545.122,476.731" fill-opacity="0" stroke="#549FD3" stroke-width="1"/>
      <path d="M488.43,510.746 L545.122,510.746" fill-opacity="0" stroke="#549FD3" stroke-width="1"/>
      <path d="M511.107,442.715 L511.107,522.085" fill-opacity="0" stroke="#549FD3" stroke-width="1"/>
      <path d="M522.445,442.715 L522.445,522.085" fill-opacity="0" stroke="#549FD3" stroke-width="1"/>
      <path d="M533.784,442.715 L533.784,522.085" fill-opacity="0" stroke="#549FD3" stroke-width="1"/>
    </g>
    <path d="M523.528,457.296 C525.075,457.296 526.349,456.113 526.349,454.566 C526.349,453.019 525.075,451.745 523.528,451.745 C521.981,451.745 520.798,453.019 520.798,454.566 C520.798,456.113 521.981,457.296 523.528,457.296 z M512.153,457.296 C513.7,457.296 514.974,456.113 514.974,454.566 C514.974,453.019 513.7,451.745 512.153,451.745 C510.606,451.745 509.423,453.019 509.423,454.566 C509.423,456.113 510.606,457.296 512.153,457.296 z M500.778,457.296 C502.325,457.296 503.599,456.113 503.599,454.566 C503.599,453.019 502.325,451.745 500.778,451.745 C499.231,451.745 498.048,453.019 498.048,454.566 C498.048,456.113 499.231,457.296 500.778,457.296 z M534.903,468.671 C536.45,468.671 537.724,467.488 537.724,465.941 C537.724,464.394 536.45,463.12 534.903,463.12 C533.356,463.12 532.173,464.394 532.173,465.941 C532.173,467.488 533.356,468.671 534.903,468.671 z M523.528,468.671 C525.075,468.671 526.349,467.488 526.349,465.941 C526.349,464.394 525.075,463.12 523.528,463.12 C521.981,463.12 520.798,464.394 520.798,465.941 C520.798,467.488 521.981,468.671 523.528,468.671 z M534.903,480.046 C536.45,480.046 537.724,478.863 537.724,477.316 C537.724,475.769 536.45,474.495 534.903,474.495 C533.356,474.495 532.173,475.769 532.173,477.316 C532.173,478.863 533.356,480.046 534.903,480.046 z M523.528,480.046 C525.075,480.046 526.349,478.863 526.349,477.316 C526.349,475.769 525.075,474.495 523.528,474.495 C521.981,474.495 520.798,475.769 520.798,477.316 C520.798,478.863 521.981,480.046 523.528,480.046 z M512.153,480.046 C513.7,480.046 514.974,478.863 514.974,477.316 C514.974,475.769 513.7,474.495 512.153,474.495 C510.606,474.495 509.423,475.769 509.423,477.316 C509.423,478.863 510.606,480.046 512.153,480.046 z M500.778,480.046 C502.325,480.046 503.599,478.863 503.599,477.316 C503.599,475.769 502.325,474.495 500.778,474.495 C499.231,474.495 498.048,475.769 498.048,477.316 C498.048,478.863 499.231,480.046 500.778,480.046 z M534.903,491.421 C536.45,491.421 537.724,490.238 537.724,488.691 C537.724,487.144 536.45,485.87 534.903,485.87 C533.356,485.87 532.173,487.144 532.173,488.691 C532.173,490.238 533.356,491.421 534.903,491.421 z M489.403,491.421 C490.95,491.421 492.224,490.238 492.224,488.691 C492.224,487.144 490.95,485.87 489.403,485.87 C487.856,485.87 486.673,487.144 486.673,488.691 C486.673,490.238 487.856,491.421 489.403,491.421 z M523.528,491.421 C525.075,491.421 526.349,490.238 526.349,488.691 C526.349,487.144 525.075,485.87 523.528,485.87 C521.981,485.87 520.798,487.144 520.798,488.691 C520.798,490.238 521.981,491.421 523.528,491.421 z M534.903,502.796 C536.45,502.796 537.724,501.613 537.724,500.066 C537.724,498.519 536.45,497.245 534.903,497.245 C533.356,497.245 532.173,498.519 532.173,500.066 C532.173,501.613 533.356,502.796 534.903,502.796 z M512.153,502.796 C513.7,502.796 514.974,501.613 514.974,500.066 C514.974,498.519 513.7,497.245 512.153,497.245 C510.606,497.245 509.423,498.519 509.423,500.066 C509.423,501.613 510.606,502.796 512.153,502.796 z M500.778,502.796 C502.325,502.796 503.599,501.613 503.599,500.066 C503.599,498.519 502.325,497.245 500.778,497.245 C499.231,497.245 498.048,498.519 498.048,500.066 C498.048,501.613 499.231,502.796 500.778,502.796 z" fill="#DCFF0A"/>
    <g>
      <path d="M556.37,442.13 L613.063,442.13 L613.063,521.5 L556.37,521.5 L556.37,442.13 z" fill-opacity="0" stroke="#549FD3" stroke-width="1"/>
      <path d="M556.37,453.469 L613.063,453.469" fill-opacity="0" stroke="#549FD3" stroke-width="1"/>
      <path d="M567.708,442.13 L567.708,521.5" fill-opacity="0" stroke="#549FD3" stroke-width="1"/>
      <path d="M556.37,498.823 L613.063,498.823" fill-opacity="0" stroke="#549FD3" stroke-width="1"/>
      <path d="M556.37,464.807 L613.063,464.807" fill-opacity="0" stroke="#549FD3" stroke-width="1"/>
      <path d="M556.37,487.484 L613.063,487.484" fill-opacity="0" stroke="#549FD3" stroke-width="1"/>
      <path d="M556.37,476.146 L613.063,476.146" fill-opacity="0" stroke="#549FD3" stroke-width="1"/>
      <path d="M556.37,510.161 L613.063,510.161" fill-opacity="0" stroke="#549FD3" stroke-width="1"/>
      <path d="M579.047,442.13 L579.047,521.5" fill-opacity="0" stroke="#549FD3" stroke-width="1"/>
      <path d="M590.386,442.13 L590.386,521.5" fill-opacity="0" stroke="#549FD3" stroke-width="1"/>
      <path d="M601.724,442.13 L601.724,521.5" fill-opacity="0" stroke="#549FD3" stroke-width="1"/>
    </g>
    <path d="M607.012,512.477 C611.289,512.477 614.838,509.474 614.838,504.651 C614.838,502.285 613.928,500.283 612.563,499.009 C613.928,497.644 614.838,495.642 614.838,493.276 C614.838,490.91 613.928,488.908 612.563,487.634 C613.928,486.269 614.838,484.267 614.838,481.901 C614.838,479.535 613.928,477.533 612.563,476.259 C613.928,474.894 614.838,472.892 614.838,470.526 C614.838,465.703 611.289,462.7 607.012,462.7 C604.828,462.7 602.735,463.519 601.37,464.975 L601.188,464.884 C602.553,463.519 603.463,461.517 603.463,459.151 C603.463,454.328 599.914,451.325 595.637,451.325 C593.453,451.325 591.36,452.144 589.995,453.6 C588.539,452.144 586.446,451.325 584.262,451.325 C582.078,451.325 579.985,452.144 578.62,453.6 C577.164,452.144 575.071,451.325 572.887,451.325 C568.61,451.325 565.061,454.328 565.061,459.151 C565.061,463.974 568.61,466.977 572.887,466.977 C575.071,466.977 577.164,466.158 578.529,464.702 C579.985,466.158 582.078,466.977 584.262,466.977 C586.446,466.977 588.539,466.158 589.904,464.702 L590.086,464.793 C588.721,466.158 587.811,468.16 587.811,470.526 C587.811,472.892 588.721,474.894 590.086,476.168 C590.086,476.259 589.995,476.259 589.995,476.35 C588.539,474.894 586.446,474.075 584.262,474.075 C582.078,474.075 579.985,474.894 578.62,476.35 C577.164,474.894 575.071,474.075 572.887,474.075 C568.61,474.075 565.061,477.078 565.061,481.901 C565.061,486.724 568.61,489.727 572.887,489.727 C575.071,489.727 577.164,488.908 578.529,487.452 C579.985,488.908 582.078,489.727 584.262,489.727 C586.446,489.727 588.539,488.908 589.904,487.452 L590.086,487.543 C588.721,488.908 587.811,490.91 587.811,493.276 C587.811,498.099 591.36,501.102 595.637,501.102 C597.821,501.102 599.914,500.283 601.279,498.827 L601.461,498.918 C600.096,500.283 599.186,502.285 599.186,504.651 C599.186,509.474 602.735,512.477 607.012,512.477 z M601.37,476.35 L601.188,476.259 C601.188,476.168 601.279,476.168 601.279,476.077 L601.461,476.168 C601.461,476.259 601.37,476.259 601.37,476.35 z M561.512,501.102 C565.789,501.102 569.338,498.099 569.338,493.276 C569.338,488.453 565.789,485.45 561.512,485.45 C557.235,485.45 553.686,488.453 553.686,493.276 C553.686,498.099 557.235,501.102 561.512,501.102 z M601.37,487.725 L601.188,487.634 C601.188,487.543 601.279,487.543 601.279,487.452 L601.461,487.543 C601.461,487.634 601.37,487.634 601.37,487.725 z M584.262,512.477 C588.539,512.477 592.088,509.474 592.088,504.651 C592.088,499.828 588.539,496.825 584.262,496.825 C582.078,496.825 579.985,497.644 578.62,499.1 C577.164,497.644 575.071,496.825 572.887,496.825 C568.61,496.825 565.061,499.828 565.061,504.651 C565.061,509.474 568.61,512.477 572.887,512.477 C575.071,512.477 577.164,511.658 578.529,510.202 C579.985,511.658 582.078,512.477 584.262,512.477 z" fill="#97481A"/>
    <path d="M592.803,461.959 C596.261,461.959 598.445,459.775 598.445,456.317 C598.445,452.859 596.261,450.675 592.803,450.675 C589.345,450.675 587.161,452.859 587.161,456.317 C587.161,459.775 589.345,461.959 592.803,461.959 z M581.428,461.959 C584.886,461.959 587.07,459.775 587.07,456.317 C587.07,452.859 584.886,450.675 581.428,450.675 C577.97,450.675 575.786,452.859 575.786,456.317 C575.786,459.775 577.97,461.959 581.428,461.959 z M570.053,461.959 C573.511,461.959 575.695,459.775 575.695,456.317 C575.695,452.859 573.511,450.675 570.053,450.675 C566.595,450.675 564.411,452.859 564.411,456.317 C564.411,459.775 566.595,461.959 570.053,461.959 z M592.803,458.865 C591.256,458.865 590.255,457.864 590.255,456.317 C590.255,454.77 591.256,453.769 592.803,453.769 C594.35,453.769 595.351,454.77 595.351,456.317 C595.351,457.864 594.35,458.865 592.803,458.865 z M581.428,458.865 C579.881,458.865 578.88,457.864 578.88,456.317 C578.88,454.77 579.881,453.769 581.428,453.769 C582.975,453.769 583.976,454.77 583.976,456.317 C583.976,457.864 582.975,458.865 581.428,458.865 z M570.053,458.865 C568.506,458.865 567.505,457.864 567.505,456.317 C567.505,454.77 568.506,453.769 570.053,453.769 C571.6,453.769 572.601,454.77 572.601,456.317 C572.601,457.864 571.6,458.865 570.053,458.865 z M604.178,473.334 C607.636,473.334 609.82,471.15 609.82,467.692 C609.82,464.234 607.636,462.05 604.178,462.05 C600.72,462.05 598.536,464.234 598.536,467.692 C598.536,471.15 600.72,473.334 604.178,473.334 z M592.803,473.334 C596.261,473.334 598.445,471.15 598.445,467.692 C598.445,464.234 596.261,462.05 592.803,462.05 C589.345,462.05 587.161,464.234 587.161,467.692 C587.161,471.15 589.345,473.334 592.803,473.334 z M604.178,470.24 C602.631,470.24 601.63,469.239 601.63,467.692 C601.63,466.145 602.631,465.144 604.178,465.144 C605.725,465.144 606.726,466.145 606.726,467.692 C606.726,469.239 605.725,470.24 604.178,470.24 z M592.803,470.24 C591.256,470.24 590.255,469.239 590.255,467.692 C590.255,466.145 591.256,465.144 592.803,465.144 C594.35,465.144 595.351,466.145 595.351,467.692 C595.351,469.239 594.35,470.24 592.803,470.24 z M604.178,484.709 C607.636,484.709 609.82,482.525 609.82,479.067 C609.82,475.609 607.636,473.425 604.178,473.425 C600.72,473.425 598.536,475.609 598.536,479.067 C598.536,482.525 600.72,484.709 604.178,484.709 z M592.803,484.709 C596.261,484.709 598.445,482.525 598.445,479.067 C598.445,475.609 596.261,473.425 592.803,473.425 C589.345,473.425 587.161,475.609 587.161,479.067 C587.161,482.525 589.345,484.709 592.803,484.709 z M581.428,484.709 C584.886,484.709 587.07,482.525 587.07,479.067 C587.07,475.609 584.886,473.425 581.428,473.425 C577.97,473.425 575.786,475.609 575.786,479.067 C575.786,482.525 577.97,484.709 581.428,484.709 z M570.053,484.709 C573.511,484.709 575.695,482.525 575.695,479.067 C575.695,475.609 573.511,473.425 570.053,473.425 C566.595,473.425 564.411,475.609 564.411,479.067 C564.411,482.525 566.595,484.709 570.053,484.709 z M604.178,481.615 C602.631,481.615 601.63,480.614 601.63,479.067 C601.63,477.52 602.631,476.519 604.178,476.519 C605.725,476.519 606.726,477.52 606.726,479.067 C606.726,480.614 605.725,481.615 604.178,481.615 z M592.803,481.615 C591.256,481.615 590.255,480.614 590.255,479.067 C590.255,477.52 591.256,476.519 592.803,476.519 C594.35,476.519 595.351,477.52 595.351,479.067 C595.351,480.614 594.35,481.615 592.803,481.615 z M581.428,481.615 C579.881,481.615 578.88,480.614 578.88,479.067 C578.88,477.52 579.881,476.519 581.428,476.519 C582.975,476.519 583.976,477.52 583.976,479.067 C583.976,480.614 582.975,481.615 581.428,481.615 z M570.053,481.615 C568.506,481.615 567.505,480.614 567.505,479.067 C567.505,477.52 568.506,476.519 570.053,476.519 C571.6,476.519 572.601,477.52 572.601,479.067 C572.601,480.614 571.6,481.615 570.053,481.615 z M604.178,496.084 C607.636,496.084 609.82,493.9 609.82,490.442 C609.82,486.984 607.636,484.8 604.178,484.8 C600.72,484.8 598.536,486.984 598.536,490.442 C598.536,493.9 600.72,496.084 604.178,496.084 z M558.678,496.084 C562.136,496.084 564.32,493.9 564.32,490.442 C564.32,486.984 562.136,484.8 558.678,484.8 C555.22,484.8 553.036,486.984 553.036,490.442 C553.036,493.9 555.22,496.084 558.678,496.084 z M592.803,496.084 C596.261,496.084 598.445,493.9 598.445,490.442 C598.445,486.984 596.261,484.8 592.803,484.8 C589.345,484.8 587.161,486.984 587.161,490.442 C587.161,493.9 589.345,496.084 592.803,496.084 z M604.178,492.99 C602.631,492.99 601.63,491.989 601.63,490.442 C601.63,488.895 602.631,487.894 604.178,487.894 C605.725,487.894 606.726,488.895 606.726,490.442 C606.726,491.989 605.725,492.99 604.178,492.99 z M558.678,492.99 C557.131,492.99 556.13,491.989 556.13,490.442 C556.13,488.895 557.131,487.894 558.678,487.894 C560.225,487.894 561.226,488.895 561.226,490.442 C561.226,491.989 560.225,492.99 558.678,492.99 z M592.803,492.99 C591.256,492.99 590.255,491.989 590.255,490.442 C590.255,488.895 591.256,487.894 592.803,487.894 C594.35,487.894 595.351,488.895 595.351,490.442 C595.351,491.989 594.35,492.99 592.803,492.99 z M604.178,507.459 C607.636,507.459 609.82,505.275 609.82,501.817 C609.82,498.359 607.636,496.175 604.178,496.175 C600.72,496.175 598.536,498.359 598.536,501.817 C598.536,505.275 600.72,507.459 604.178,507.459 z M581.428,507.459 C584.886,507.459 587.07,505.275 587.07,501.817 C587.07,498.359 584.886,496.175 581.428,496.175 C577.97,496.175 575.786,498.359 575.786,501.817 C575.786,505.275 577.97,507.459 581.428,507.459 z M570.053,507.459 C573.511,507.459 575.695,505.275 575.695,501.817 C575.695,498.359 573.511,496.175 570.053,496.175 C566.595,496.175 564.411,498.359 564.411,501.817 C564.411,505.275 566.595,507.459 570.053,507.459 z M604.178,504.365 C602.631,504.365 601.63,503.364 601.63,501.817 C601.63,500.27 602.631,499.269 604.178,499.269 C605.725,499.269 606.726,500.27 606.726,501.817 C606.726,503.364 605.725,504.365 604.178,504.365 z M581.428,504.365 C579.881,504.365 578.88,503.364 578.88,501.817 C578.88,500.27 579.881,499.269 581.428,499.269 C582.975,499.269 583.976,500.27 583.976,501.817 C583.976,503.364 582.975,504.365 581.428,504.365 z M570.053,504.365 C568.506,504.365 567.505,503.364 567.505,501.817 C567.505,500.27 568.506,499.269 570.053,499.269 C571.6,499.269 572.601,500.27 572.601,501.817 C572.601,503.364 571.6,504.365 570.053,504.365 z" fill="#98AC1F"/>
    <path d="M591.468,456.712 C593.015,456.712 594.289,455.529 594.289,453.982 C594.289,452.435 593.015,451.161 591.468,451.161 C589.921,451.161 588.738,452.435 588.738,453.982 C588.738,455.529 589.921,456.712 591.468,456.712 z M580.093,456.712 C581.64,456.712 582.914,455.529 582.914,453.982 C582.914,452.435 581.64,451.161 580.093,451.161 C578.546,451.161 577.363,452.435 577.363,453.982 C577.363,455.529 578.546,456.712 580.093,456.712 z M568.718,456.712 C570.265,456.712 571.539,455.529 571.539,453.982 C571.539,452.435 570.265,451.161 568.718,451.161 C567.171,451.161 565.988,452.435 565.988,453.982 C565.988,455.529 567.171,456.712 568.718,456.712 z M602.843,468.087 C604.39,468.087 605.664,466.904 605.664,465.357 C605.664,463.81 604.39,462.536 602.843,462.536 C601.296,462.536 600.113,463.81 600.113,465.357 C600.113,466.904 601.296,468.087 602.843,468.087 z M591.468,468.087 C593.015,468.087 594.289,466.904 594.289,465.357 C594.289,463.81 593.015,462.536 591.468,462.536 C589.921,462.536 588.738,463.81 588.738,465.357 C588.738,466.904 589.921,468.087 591.468,468.087 z M602.843,479.462 C604.39,479.462 605.664,478.279 605.664,476.732 C605.664,475.185 604.39,473.911 602.843,473.911 C601.296,473.911 600.113,475.185 600.113,476.732 C600.113,478.279 601.296,479.462 602.843,479.462 z M591.468,479.462 C593.015,479.462 594.289,478.279 594.289,476.732 C594.289,475.185 593.015,473.911 591.468,473.911 C589.921,473.911 588.738,475.185 588.738,476.732 C588.738,478.279 589.921,479.462 591.468,479.462 z M580.093,479.462 C581.64,479.462 582.914,478.279 582.914,476.732 C582.914,475.185 581.64,473.911 580.093,473.911 C578.546,473.911 577.363,475.185 577.363,476.732 C577.363,478.279 578.546,479.462 580.093,479.462 z M568.718,479.462 C570.265,479.462 571.539,478.279 571.539,476.732 C571.539,475.185 570.265,473.911 568.718,473.911 C567.171,473.911 565.988,475.185 565.988,476.732 C565.988,478.279 567.171,479.462 568.718,479.462 z M602.843,490.837 C604.39,490.837 605.664,489.654 605.664,488.107 C605.664,486.56 604.39,485.286 602.843,485.286 C601.296,485.286 600.113,486.56 600.113,488.107 C600.113,489.654 601.296,490.837 602.843,490.837 z M557.343,490.837 C558.89,490.837 560.164,489.654 560.164,488.107 C560.164,486.56 558.89,485.286 557.343,485.286 C555.796,485.286 554.613,486.56 554.613,488.107 C554.613,489.654 555.796,490.837 557.343,490.837 z M591.468,490.837 C593.015,490.837 594.289,489.654 594.289,488.107 C594.289,486.56 593.015,485.286 591.468,485.286 C589.921,485.286 588.738,486.56 588.738,488.107 C588.738,489.654 589.921,490.837 591.468,490.837 z M602.843,502.212 C604.39,502.212 605.664,501.029 605.664,499.482 C605.664,497.935 604.39,496.661 602.843,496.661 C601.296,496.661 600.113,497.935 600.113,499.482 C600.113,501.029 601.296,502.212 602.843,502.212 z M580.093,502.212 C581.64,502.212 582.914,501.029 582.914,499.482 C582.914,497.935 581.64,496.661 580.093,496.661 C578.546,496.661 577.363,497.935 577.363,499.482 C577.363,501.029 578.546,502.212 580.093,502.212 z M568.718,502.212 C570.265,502.212 571.539,501.029 571.539,499.482 C571.539,497.935 570.265,496.661 568.718,496.661 C567.171,496.661 565.988,497.935 565.988,499.482 C565.988,501.029 567.171,502.212 568.718,502.212 z" fill="#DCFF0A"/>
  </g>
</svg>
