<?xml version="1.0" encoding="UTF-8"?>
<!DOCTYPE svg PUBLIC "-//W3C//DTD SVG 1.1//EN" "http://www.w3.org/Graphics/SVG/1.1/DTD/svg11.dtd">
<svg version="1.1" xmlns="http://www.w3.org/2000/svg" xmlns:xlink="http://www.w3.org/1999/xlink" x="0" y="0" width="3190.299" height="652.961" viewBox="0, 0, 398.787, 81.62">
  <g id="Layer_1" transform="translate(-350.559, -338.907)">
    <g>
      <path d="M420.091,340.407 L476.784,340.407 L476.784,419.778 L420.091,419.778 L420.091,340.407 z" fill-opacity="0" stroke="#549FD3" stroke-width="1"/>
      <path d="M420.091,351.746 L476.784,351.746" fill-opacity="0" stroke="#549FD3" stroke-width="1"/>
      <path d="M431.429,340.407 L431.429,419.778" fill-opacity="0" stroke="#549FD3" stroke-width="1"/>
      <path d="M420.091,397.1 L476.784,397.1" fill-opacity="0" stroke="#549FD3" stroke-width="1"/>
      <path d="M420.091,363.085 L476.784,363.085" fill-opacity="0" stroke="#549FD3" stroke-width="1"/>
      <path d="M420.091,385.762 L476.784,385.762" fill-opacity="0" stroke="#549FD3" stroke-width="1"/>
      <path d="M420.091,374.423 L476.784,374.423" fill-opacity="0" stroke="#549FD3" stroke-width="1"/>
      <path d="M420.091,408.439 L476.784,408.439" fill-opacity="0" stroke="#549FD3" stroke-width="1"/>
      <path d="M442.768,340.407 L442.768,419.778" fill-opacity="0" stroke="#549FD3" stroke-width="1"/>
      <path d="M454.106,340.407 L454.106,419.778" fill-opacity="0" stroke="#549FD3" stroke-width="1"/>
      <path d="M465.445,340.407 L465.445,419.778" fill-opacity="0" stroke="#549FD3" stroke-width="1"/>
    </g>
    <g>
      <path d="M352.059,340.407 L408.752,340.407 L408.752,419.778 L352.059,419.778 L352.059,340.407 z" fill-opacity="0" stroke="#549FD3" stroke-width="1"/>
      <path d="M352.059,351.746 L408.752,351.746" fill-opacity="0" stroke="#549FD3" stroke-width="1"/>
      <path d="M363.398,340.407 L363.398,419.778" fill-opacity="0" stroke="#549FD3" stroke-width="1"/>
      <path d="M352.059,397.1 L408.752,397.1" fill-opacity="0" stroke="#549FD3" stroke-width="1"/>
      <path d="M352.059,363.085 L408.752,363.085" fill-opacity="0" stroke="#549FD3" stroke-width="1"/>
      <path d="M352.059,385.762 L408.752,385.762" fill-opacity="0" stroke="#549FD3" stroke-width="1"/>
      <path d="M352.059,374.423 L408.752,374.423" fill-opacity="0" stroke="#549FD3" stroke-width="1"/>
      <path d="M352.059,408.439 L408.752,408.439" fill-opacity="0" stroke="#549FD3" stroke-width="1"/>
      <path d="M374.736,340.407 L374.736,419.778" fill-opacity="0" stroke="#549FD3" stroke-width="1"/>
      <path d="M386.075,340.407 L386.075,419.778" fill-opacity="0" stroke="#549FD3" stroke-width="1"/>
      <path d="M397.413,340.407 L397.413,419.778" fill-opacity="0" stroke="#549FD3" stroke-width="1"/>
    </g>
    <g>
      <path d="M692.154,340.658 L748.846,340.658 L748.846,420.028 L692.154,420.028 L692.154,340.658 z" fill-opacity="0" stroke="#549FD3" stroke-width="1"/>
      <path d="M692.154,351.996 L748.846,351.996" fill-opacity="0" stroke="#549FD3" stroke-width="1"/>
      <path d="M703.492,340.658 L703.492,420.028" fill-opacity="0" stroke="#549FD3" stroke-width="1"/>
      <path d="M692.154,397.35 L748.847,397.35" fill-opacity="0" stroke="#549FD3" stroke-width="1"/>
      <path d="M692.154,363.335 L748.847,363.335" fill-opacity="0" stroke="#549FD3" stroke-width="1"/>
      <path d="M692.154,386.012 L748.847,386.012" fill-opacity="0" stroke="#549FD3" stroke-width="1"/>
      <path d="M692.154,374.673 L748.847,374.673" fill-opacity="0" stroke="#549FD3" stroke-width="1"/>
      <path d="M692.154,408.689 L748.847,408.689" fill-opacity="0" stroke="#549FD3" stroke-width="1"/>
      <path d="M714.831,340.658 L714.831,420.028" fill-opacity="0" stroke="#549FD3" stroke-width="1"/>
      <path d="M726.169,340.658 L726.169,420.028" fill-opacity="0" stroke="#549FD3" stroke-width="1"/>
      <path d="M737.508,340.658 L737.508,420.028" fill-opacity="0" stroke="#549FD3" stroke-width="1"/>
    </g>
    <g>
      <path d="M624.122,340.658 L680.815,340.658 L680.815,420.028 L624.122,420.028 L624.122,340.658 z" fill-opacity="0" stroke="#549FD3" stroke-width="1"/>
      <path d="M624.122,351.996 L680.815,351.996" fill-opacity="0" stroke="#549FD3" stroke-width="1"/>
      <path d="M635.461,340.658 L635.461,420.028" fill-opacity="0" stroke="#549FD3" stroke-width="1"/>
      <path d="M624.122,397.35 L680.815,397.35" fill-opacity="0" stroke="#549FD3" stroke-width="1"/>
      <path d="M624.122,363.335 L680.815,363.335" fill-opacity="0" stroke="#549FD3" stroke-width="1"/>
      <path d="M624.122,386.012 L680.815,386.012" fill-opacity="0" stroke="#549FD3" stroke-width="1"/>
      <path d="M624.122,374.673 L680.815,374.673" fill-opacity="0" stroke="#549FD3" stroke-width="1"/>
      <path d="M624.122,408.689 L680.815,408.689" fill-opacity="0" stroke="#549FD3" stroke-width="1"/>
      <path d="M646.799,340.658 L646.799,420.028" fill-opacity="0" stroke="#549FD3" stroke-width="1"/>
      <path d="M658.138,340.658 L658.138,420.028" fill-opacity="0" stroke="#549FD3" stroke-width="1"/>
      <path d="M669.476,340.658 L669.476,420.028" fill-opacity="0" stroke="#549FD3" stroke-width="1"/>
    </g>
    <g>
      <path d="M556.091,340.658 L612.784,340.658 L612.784,420.028 L556.091,420.028 L556.091,340.658 z" fill-opacity="0" stroke="#549FD3" stroke-width="1"/>
      <path d="M556.091,351.996 L612.784,351.996" fill-opacity="0" stroke="#549FD3" stroke-width="1"/>
      <path d="M567.429,340.658 L567.429,420.028" fill-opacity="0" stroke="#549FD3" stroke-width="1"/>
      <path d="M556.091,397.35 L612.784,397.35" fill-opacity="0" stroke="#549FD3" stroke-width="1"/>
      <path d="M556.091,363.335 L612.784,363.335" fill-opacity="0" stroke="#549FD3" stroke-width="1"/>
      <path d="M556.091,386.012 L612.784,386.012" fill-opacity="0" stroke="#549FD3" stroke-width="1"/>
      <path d="M556.091,374.673 L612.784,374.673" fill-opacity="0" stroke="#549FD3" stroke-width="1"/>
      <path d="M556.091,408.689 L612.784,408.689" fill-opacity="0" stroke="#549FD3" stroke-width="1"/>
      <path d="M578.768,340.658 L578.768,420.028" fill-opacity="0" stroke="#549FD3" stroke-width="1"/>
      <path d="M590.106,340.658 L590.106,420.028" fill-opacity="0" stroke="#549FD3" stroke-width="1"/>
      <path d="M601.445,340.658 L601.445,420.028" fill-opacity="0" stroke="#549FD3" stroke-width="1"/>
    </g>
    <g>
      <path d="M488.059,340.658 L544.752,340.658 L544.752,420.028 L488.059,420.028 L488.059,340.658 z" fill-opacity="0" stroke="#549FD3" stroke-width="1"/>
      <path d="M488.059,351.996 L544.752,351.996" fill-opacity="0" stroke="#549FD3" stroke-width="1"/>
      <path d="M499.398,340.658 L499.398,420.028" fill-opacity="0" stroke="#549FD3" stroke-width="1"/>
      <path d="M488.059,397.35 L544.752,397.35" fill-opacity="0" stroke="#549FD3" stroke-width="1"/>
      <path d="M488.059,363.335 L544.752,363.335" fill-opacity="0" stroke="#549FD3" stroke-width="1"/>
      <path d="M488.059,386.012 L544.752,386.012" fill-opacity="0" stroke="#549FD3" stroke-width="1"/>
      <path d="M488.059,374.673 L544.752,374.673" fill-opacity="0" stroke="#549FD3" stroke-width="1"/>
      <path d="M488.059,408.689 L544.752,408.689" fill-opacity="0" stroke="#549FD3" stroke-width="1"/>
      <path d="M510.736,340.658 L510.736,420.028" fill-opacity="0" stroke="#549FD3" stroke-width="1"/>
      <path d="M522.075,340.658 L522.075,420.028" fill-opacity="0" stroke="#549FD3" stroke-width="1"/>
      <path d="M533.413,340.658 L533.413,420.028" fill-opacity="0" stroke="#549FD3" stroke-width="1"/>
    </g>
    <path d="M527.326,363.319 C530.511,363.319 533.059,360.771 533.059,357.677 C533.059,354.492 530.511,351.944 527.326,351.944 C524.232,351.944 521.684,354.492 521.684,357.677 C521.684,360.771 524.232,363.319 527.326,363.319 z M515.951,363.319 C519.136,363.319 521.684,360.771 521.684,357.677 C521.684,354.492 519.136,351.944 515.951,351.944 C512.857,351.944 510.309,354.492 510.309,357.677 C510.309,360.771 512.857,363.319 515.951,363.319 z M504.576,363.319 C507.761,363.319 510.309,360.771 510.309,357.677 C510.309,354.492 507.761,351.944 504.576,351.944 C501.482,351.944 498.934,354.492 498.934,357.677 C498.934,360.771 501.482,363.319 504.576,363.319 z M523.322,358.496 L524.778,357.04 L526.416,358.86 L526.416,353.309 L528.418,353.309 L528.418,358.86 L530.056,357.04 L531.512,358.496 L527.417,362.227 z M511.947,358.496 L513.403,357.04 L515.041,358.86 L515.041,353.309 L517.043,353.309 L517.043,358.86 L518.681,357.04 L520.137,358.496 L516.042,362.227 z M500.572,358.496 L502.028,357.04 L503.666,358.86 L503.666,353.309 L505.668,353.309 L505.668,358.86 L507.306,357.04 L508.762,358.496 L504.667,362.227 z M538.701,374.694 C541.886,374.694 544.434,372.146 544.434,369.052 C544.434,365.867 541.886,363.319 538.701,363.319 C535.607,363.319 533.059,365.867 533.059,369.052 C533.059,372.146 535.607,374.694 538.701,374.694 z M527.326,374.694 C530.511,374.694 533.059,372.146 533.059,369.052 C533.059,365.867 530.511,363.319 527.326,363.319 C524.232,363.319 521.684,365.867 521.684,369.052 C521.684,372.146 524.232,374.694 527.326,374.694 z M534.697,369.871 L536.153,368.415 L537.791,370.235 L537.791,364.684 L539.793,364.684 L539.793,370.235 L541.431,368.415 L542.887,369.871 L538.792,373.602 z M523.322,369.871 L524.778,368.415 L526.416,370.235 L526.416,364.684 L528.418,364.684 L528.418,370.235 L530.056,368.415 L531.512,369.871 L527.417,373.602 z M538.701,386.069 C541.886,386.069 544.434,383.521 544.434,380.427 C544.434,377.242 541.886,374.694 538.701,374.694 C535.607,374.694 533.059,377.242 533.059,380.427 C533.059,383.521 535.607,386.069 538.701,386.069 z M527.326,386.069 C530.511,386.069 533.059,383.521 533.059,380.427 C533.059,377.242 530.511,374.694 527.326,374.694 C524.232,374.694 521.684,377.242 521.684,380.427 C521.684,383.521 524.232,386.069 527.326,386.069 z M515.951,386.069 C519.136,386.069 521.684,383.521 521.684,380.427 C521.684,377.242 519.136,374.694 515.951,374.694 C512.857,374.694 510.309,377.242 510.309,380.427 C510.309,383.521 512.857,386.069 515.951,386.069 z M504.576,386.069 C507.761,386.069 510.309,383.521 510.309,380.427 C510.309,377.242 507.761,374.694 504.576,374.694 C501.482,374.694 498.934,377.242 498.934,380.427 C498.934,383.521 501.482,386.069 504.576,386.069 z M534.697,381.246 L536.153,379.79 L537.791,381.61 L537.791,376.059 L539.793,376.059 L539.793,381.61 L541.431,379.79 L542.887,381.246 L538.792,384.977 z M523.322,381.246 L524.778,379.79 L526.416,381.61 L526.416,376.059 L528.418,376.059 L528.418,381.61 L530.056,379.79 L531.512,381.246 L527.417,384.977 z M511.947,381.246 L513.403,379.79 L515.041,381.61 L515.041,376.059 L517.043,376.059 L517.043,381.61 L518.681,379.79 L520.137,381.246 L516.042,384.977 z M500.572,381.246 L502.028,379.79 L503.666,381.61 L503.666,376.059 L505.668,376.059 L505.668,381.61 L507.306,379.79 L508.762,381.246 L504.667,384.977 z M538.701,397.444 C541.886,397.444 544.434,394.896 544.434,391.802 C544.434,388.617 541.886,386.069 538.701,386.069 C535.607,386.069 533.059,388.617 533.059,391.802 C533.059,394.896 535.607,397.444 538.701,397.444 z M493.201,397.444 C496.386,397.444 498.934,394.896 498.934,391.802 C498.934,388.617 496.386,386.069 493.201,386.069 C490.107,386.069 487.559,388.617 487.559,391.802 C487.559,394.896 490.107,397.444 493.201,397.444 z M527.326,397.444 C530.511,397.444 533.059,394.896 533.059,391.802 C533.059,388.617 530.511,386.069 527.326,386.069 C524.232,386.069 521.684,388.617 521.684,391.802 C521.684,394.896 524.232,397.444 527.326,397.444 z M534.697,392.621 L536.153,391.165 L537.791,392.985 L537.791,387.434 L539.793,387.434 L539.793,392.985 L541.431,391.165 L542.887,392.621 L538.792,396.352 z M489.197,392.621 L490.653,391.165 L492.291,392.985 L492.291,387.434 L494.293,387.434 L494.293,392.985 L495.931,391.165 L497.387,392.621 L493.292,396.352 z M523.322,392.621 L524.778,391.165 L526.416,392.985 L526.416,387.434 L528.418,387.434 L528.418,392.985 L530.056,391.165 L531.512,392.621 L527.417,396.352 z M538.701,408.819 C541.886,408.819 544.434,406.271 544.434,403.177 C544.434,399.992 541.886,397.444 538.701,397.444 C535.607,397.444 533.059,399.992 533.059,403.177 C533.059,406.271 535.607,408.819 538.701,408.819 z M515.951,408.819 C519.136,408.819 521.684,406.271 521.684,403.177 C521.684,399.992 519.136,397.444 515.951,397.444 C512.857,397.444 510.309,399.992 510.309,403.177 C510.309,406.271 512.857,408.819 515.951,408.819 z M504.576,408.819 C507.761,408.819 510.309,406.271 510.309,403.177 C510.309,399.992 507.761,397.444 504.576,397.444 C501.482,397.444 498.934,399.992 498.934,403.177 C498.934,406.271 501.482,408.819 504.576,408.819 z M534.697,403.996 L536.153,402.54 L537.791,404.36 L537.791,398.809 L539.793,398.809 L539.793,404.36 L541.431,402.54 L542.887,403.996 L538.792,407.727 z M511.947,403.996 L513.403,402.54 L515.041,404.36 L515.041,398.809 L517.043,398.809 L517.043,404.36 L518.681,402.54 L520.137,403.996 L516.042,407.727 z M500.572,403.996 L502.028,402.54 L503.666,404.36 L503.666,398.809 L505.668,398.809 L505.668,404.36 L507.306,402.54 L508.762,403.996 L504.667,407.727 z" fill="#1A5297"/>
    <path d="M391.327,362.341 C394.057,362.341 396.332,360.43 396.332,357.427 C396.332,354.333 394.057,352.422 391.327,352.422 C388.597,352.422 386.413,354.333 386.413,357.427 C386.413,360.43 388.597,362.341 391.327,362.341 z M379.952,362.341 C382.682,362.341 384.957,360.43 384.957,357.427 C384.957,354.333 382.682,352.422 379.952,352.422 C377.222,352.422 375.038,354.333 375.038,357.427 C375.038,360.43 377.222,362.341 379.952,362.341 z M368.577,362.341 C371.307,362.341 373.582,360.43 373.582,357.427 C373.582,354.333 371.307,352.422 368.577,352.422 C365.847,352.422 363.663,354.333 363.663,357.427 C363.663,360.43 365.847,362.341 368.577,362.341 z M402.702,373.716 C405.432,373.716 407.707,371.805 407.707,368.802 C407.707,365.708 405.432,363.797 402.702,363.797 C399.972,363.797 397.788,365.708 397.788,368.802 C397.788,371.805 399.972,373.716 402.702,373.716 z M391.327,373.716 C394.057,373.716 396.332,371.805 396.332,368.802 C396.332,365.708 394.057,363.797 391.327,363.797 C388.597,363.797 386.413,365.708 386.413,368.802 C386.413,371.805 388.597,373.716 391.327,373.716 z M402.702,385.091 C405.432,385.091 407.707,383.18 407.707,380.177 C407.707,377.083 405.432,375.172 402.702,375.172 C399.972,375.172 397.788,377.083 397.788,380.177 C397.788,383.18 399.972,385.091 402.702,385.091 z M391.327,385.091 C394.057,385.091 396.332,383.18 396.332,380.177 C396.332,377.083 394.057,375.172 391.327,375.172 C388.597,375.172 386.413,377.083 386.413,380.177 C386.413,383.18 388.597,385.091 391.327,385.091 z M379.952,385.091 C382.682,385.091 384.957,383.18 384.957,380.177 C384.957,377.083 382.682,375.172 379.952,375.172 C377.222,375.172 375.038,377.083 375.038,380.177 C375.038,383.18 377.222,385.091 379.952,385.091 z M368.577,385.091 C371.307,385.091 373.582,383.18 373.582,380.177 C373.582,377.083 371.307,375.172 368.577,375.172 C365.847,375.172 363.663,377.083 363.663,380.177 C363.663,383.18 365.847,385.091 368.577,385.091 z M402.702,396.466 C405.432,396.466 407.707,394.555 407.707,391.552 C407.707,388.458 405.432,386.547 402.702,386.547 C399.972,386.547 397.788,388.458 397.788,391.552 C397.788,394.555 399.972,396.466 402.702,396.466 z M357.202,396.466 C359.932,396.466 362.207,394.555 362.207,391.552 C362.207,388.458 359.932,386.547 357.202,386.547 C354.472,386.547 352.288,388.458 352.288,391.552 C352.288,394.555 354.472,396.466 357.202,396.466 z M391.327,396.466 C394.057,396.466 396.332,394.555 396.332,391.552 C396.332,388.458 394.057,386.547 391.327,386.547 C388.597,386.547 386.413,388.458 386.413,391.552 C386.413,394.555 388.597,396.466 391.327,396.466 z M402.702,407.841 C405.432,407.841 407.707,405.93 407.707,402.927 C407.707,399.833 405.432,397.922 402.702,397.922 C399.972,397.922 397.788,399.833 397.788,402.927 C397.788,405.93 399.972,407.841 402.702,407.841 z M379.952,407.841 C382.682,407.841 384.957,405.93 384.957,402.927 C384.957,399.833 382.682,397.922 379.952,397.922 C377.222,397.922 375.038,399.833 375.038,402.927 C375.038,405.93 377.222,407.841 379.952,407.841 z M368.577,407.841 C371.307,407.841 373.582,405.93 373.582,402.927 C373.582,399.833 371.307,397.922 368.577,397.922 C365.847,397.922 363.663,399.833 363.663,402.927 C363.663,405.93 365.847,407.841 368.577,407.841 z" fill="#7BFF52"/>
    <path d="M391.327,363.069 C394.512,363.069 397.06,360.521 397.06,357.427 C397.06,354.242 394.512,351.694 391.327,351.694 C388.233,351.694 385.685,354.242 385.685,357.427 C385.685,360.521 388.233,363.069 391.327,363.069 z M379.952,363.069 C383.137,363.069 385.685,360.521 385.685,357.427 C385.685,354.242 383.137,351.694 379.952,351.694 C376.858,351.694 374.31,354.242 374.31,357.427 C374.31,360.521 376.858,363.069 379.952,363.069 z M368.577,363.069 C371.762,363.069 374.31,360.521 374.31,357.427 C374.31,354.242 371.762,351.694 368.577,351.694 C365.483,351.694 362.935,354.242 362.935,357.427 C362.935,360.521 365.483,363.069 368.577,363.069 z M392.237,361.431 L390.781,359.975 L392.601,358.337 L387.05,358.337 L387.05,356.335 L392.601,356.335 L390.781,354.697 L392.237,353.241 L395.968,357.336 z M380.862,361.431 L379.406,359.975 L381.226,358.337 L375.675,358.337 L375.675,356.335 L381.226,356.335 L379.406,354.697 L380.862,353.241 L384.593,357.336 z M369.487,361.431 L368.031,359.975 L369.851,358.337 L364.3,358.337 L364.3,356.335 L369.851,356.335 L368.031,354.697 L369.487,353.241 L373.218,357.336 z M402.702,374.444 C405.887,374.444 408.435,371.896 408.435,368.802 C408.435,365.617 405.887,363.069 402.702,363.069 C399.608,363.069 397.06,365.617 397.06,368.802 C397.06,371.896 399.608,374.444 402.702,374.444 z M391.327,374.444 C394.512,374.444 397.06,371.896 397.06,368.802 C397.06,365.617 394.512,363.069 391.327,363.069 C388.233,363.069 385.685,365.617 385.685,368.802 C385.685,371.896 388.233,374.444 391.327,374.444 z M403.612,372.806 L402.156,371.35 L403.976,369.712 L398.425,369.712 L398.425,367.71 L403.976,367.71 L402.156,366.072 L403.612,364.616 L407.343,368.711 z M392.237,372.806 L390.781,371.35 L392.601,369.712 L387.05,369.712 L387.05,367.71 L392.601,367.71 L390.781,366.072 L392.237,364.616 L395.968,368.711 z M402.702,385.819 C405.887,385.819 408.435,383.271 408.435,380.177 C408.435,376.992 405.887,374.444 402.702,374.444 C399.608,374.444 397.06,376.992 397.06,380.177 C397.06,383.271 399.608,385.819 402.702,385.819 z M391.327,385.819 C394.512,385.819 397.06,383.271 397.06,380.177 C397.06,376.992 394.512,374.444 391.327,374.444 C388.233,374.444 385.685,376.992 385.685,380.177 C385.685,383.271 388.233,385.819 391.327,385.819 z M379.952,385.819 C383.137,385.819 385.685,383.271 385.685,380.177 C385.685,376.992 383.137,374.444 379.952,374.444 C376.858,374.444 374.31,376.992 374.31,380.177 C374.31,383.271 376.858,385.819 379.952,385.819 z M368.577,385.819 C371.762,385.819 374.31,383.271 374.31,380.177 C374.31,376.992 371.762,374.444 368.577,374.444 C365.483,374.444 362.935,376.992 362.935,380.177 C362.935,383.271 365.483,385.819 368.577,385.819 z M403.612,384.181 L402.156,382.725 L403.976,381.087 L398.425,381.087 L398.425,379.085 L403.976,379.085 L402.156,377.447 L403.612,375.991 L407.343,380.086 z M392.237,384.181 L390.781,382.725 L392.601,381.087 L387.05,381.087 L387.05,379.085 L392.601,379.085 L390.781,377.447 L392.237,375.991 L395.968,380.086 z M380.862,384.181 L379.406,382.725 L381.226,381.087 L375.675,381.087 L375.675,379.085 L381.226,379.085 L379.406,377.447 L380.862,375.991 L384.593,380.086 z M369.487,384.181 L368.031,382.725 L369.851,381.087 L364.3,381.087 L364.3,379.085 L369.851,379.085 L368.031,377.447 L369.487,375.991 L373.218,380.086 z M402.702,397.194 C405.887,397.194 408.435,394.646 408.435,391.552 C408.435,388.367 405.887,385.819 402.702,385.819 C399.608,385.819 397.06,388.367 397.06,391.552 C397.06,394.646 399.608,397.194 402.702,397.194 z M357.202,397.194 C360.387,397.194 362.935,394.646 362.935,391.552 C362.935,388.367 360.387,385.819 357.202,385.819 C354.108,385.819 351.56,388.367 351.56,391.552 C351.56,394.646 354.108,397.194 357.202,397.194 z M391.327,397.194 C394.512,397.194 397.06,394.646 397.06,391.552 C397.06,388.367 394.512,385.819 391.327,385.819 C388.233,385.819 385.685,388.367 385.685,391.552 C385.685,394.646 388.233,397.194 391.327,397.194 z M403.612,395.556 L402.156,394.1 L403.976,392.462 L398.425,392.462 L398.425,390.46 L403.976,390.46 L402.156,388.822 L403.612,387.366 L407.343,391.461 z M358.112,395.556 L356.656,394.1 L358.476,392.462 L352.925,392.462 L352.925,390.46 L358.476,390.46 L356.656,388.822 L358.112,387.366 L361.843,391.461 z M392.237,395.556 L390.781,394.1 L392.601,392.462 L387.05,392.462 L387.05,390.46 L392.601,390.46 L390.781,388.822 L392.237,387.366 L395.968,391.461 z M402.702,408.569 C405.887,408.569 408.435,406.021 408.435,402.927 C408.435,399.742 405.887,397.194 402.702,397.194 C399.608,397.194 397.06,399.742 397.06,402.927 C397.06,406.021 399.608,408.569 402.702,408.569 z M379.952,408.569 C383.137,408.569 385.685,406.021 385.685,402.927 C385.685,399.742 383.137,397.194 379.952,397.194 C376.858,397.194 374.31,399.742 374.31,402.927 C374.31,406.021 376.858,408.569 379.952,408.569 z M368.577,408.569 C371.762,408.569 374.31,406.021 374.31,402.927 C374.31,399.742 371.762,397.194 368.577,397.194 C365.483,397.194 362.935,399.742 362.935,402.927 C362.935,406.021 365.483,408.569 368.577,408.569 z M403.612,406.931 L402.156,405.475 L403.976,403.837 L398.425,403.837 L398.425,401.835 L403.976,401.835 L402.156,400.197 L403.612,398.741 L407.343,402.836 z M380.862,406.931 L379.406,405.475 L381.226,403.837 L375.675,403.837 L375.675,401.835 L381.226,401.835 L379.406,400.197 L380.862,398.741 L384.593,402.836 z M369.487,406.931 L368.031,405.475 L369.851,403.837 L364.3,403.837 L364.3,401.835 L369.851,401.835 L368.031,400.197 L369.487,398.741 L373.218,402.836 z" fill="#1A5297"/>
    <path d="M470.733,410.753 C475.01,410.753 478.559,407.75 478.559,402.927 C478.559,400.561 477.649,398.559 476.284,397.285 C477.649,395.92 478.559,393.918 478.559,391.552 C478.559,389.186 477.649,387.184 476.284,385.91 C477.649,384.545 478.559,382.543 478.559,380.177 C478.559,377.811 477.649,375.809 476.284,374.535 C477.649,373.17 478.559,371.168 478.559,368.802 C478.559,363.979 475.01,360.976 470.733,360.976 C468.549,360.976 466.456,361.795 465.091,363.251 L464.909,363.16 C466.274,361.795 467.184,359.793 467.184,357.427 C467.184,352.604 463.635,349.601 459.358,349.601 C457.174,349.601 455.081,350.42 453.716,351.876 C452.26,350.42 450.167,349.601 447.983,349.601 C445.799,349.601 443.706,350.42 442.341,351.876 C440.885,350.42 438.792,349.601 436.608,349.601 C432.331,349.601 428.782,352.604 428.782,357.427 C428.782,362.25 432.331,365.253 436.608,365.253 C438.792,365.253 440.885,364.434 442.25,362.978 C443.706,364.434 445.799,365.253 447.983,365.253 C450.167,365.253 452.26,364.434 453.625,362.978 L453.807,363.069 C452.442,364.434 451.532,366.436 451.532,368.802 C451.532,371.168 452.442,373.17 453.807,374.444 C453.807,374.535 453.716,374.535 453.716,374.626 C452.26,373.17 450.167,372.351 447.983,372.351 C445.799,372.351 443.706,373.17 442.341,374.626 C440.885,373.17 438.792,372.351 436.608,372.351 C432.331,372.351 428.782,375.354 428.782,380.177 C428.782,385 432.331,388.003 436.608,388.003 C438.792,388.003 440.885,387.184 442.25,385.728 C443.706,387.184 445.799,388.003 447.983,388.003 C450.167,388.003 452.26,387.184 453.625,385.728 L453.807,385.819 C452.442,387.184 451.532,389.186 451.532,391.552 C451.532,396.375 455.081,399.378 459.358,399.378 C461.542,399.378 463.635,398.559 465,397.103 L465.182,397.194 C463.817,398.559 462.907,400.561 462.907,402.927 C462.907,407.75 466.456,410.753 470.733,410.753 z M465.091,374.626 L464.909,374.535 C464.909,374.444 465,374.444 465,374.353 L465.182,374.444 C465.182,374.535 465.091,374.535 465.091,374.626 z M425.233,399.378 C429.51,399.378 433.059,396.375 433.059,391.552 C433.059,386.729 429.51,383.726 425.233,383.726 C420.956,383.726 417.407,386.729 417.407,391.552 C417.407,396.375 420.956,399.378 425.233,399.378 z M465.091,386.001 L464.909,385.91 C464.909,385.819 465,385.819 465,385.728 L465.182,385.819 C465.182,385.91 465.091,385.91 465.091,386.001 z M447.983,410.753 C452.26,410.753 455.809,407.75 455.809,402.927 C455.809,398.104 452.26,395.101 447.983,395.101 C445.799,395.101 443.706,395.92 442.341,397.376 C440.885,395.92 438.792,395.101 436.608,395.101 C432.331,395.101 428.782,398.104 428.782,402.927 C428.782,407.75 432.331,410.753 436.608,410.753 C438.792,410.753 440.885,409.934 442.25,408.478 C443.706,409.934 445.799,410.753 447.983,410.753 z" fill="#97481A"/>
    <path d="M595.358,362.591 C592.628,362.591 590.444,360.407 590.444,357.677 C590.444,354.947 592.628,352.672 595.358,352.672 C598.088,352.672 600.363,354.947 600.363,357.677 C600.363,360.407 598.088,362.591 595.358,362.591 z M583.983,362.591 C581.253,362.591 579.069,360.407 579.069,357.677 C579.069,354.947 581.253,352.672 583.983,352.672 C586.713,352.672 588.988,354.947 588.988,357.677 C588.988,360.407 586.713,362.591 583.983,362.591 z M572.608,362.591 C569.878,362.591 567.694,360.407 567.694,357.677 C567.694,354.947 569.878,352.672 572.608,352.672 C575.338,352.672 577.613,354.947 577.613,357.677 C577.613,360.407 575.338,362.591 572.608,362.591 z M606.733,373.966 C604.003,373.966 601.819,371.782 601.819,369.052 C601.819,366.322 604.003,364.047 606.733,364.047 C609.463,364.047 611.738,366.322 611.738,369.052 C611.738,371.782 609.463,373.966 606.733,373.966 z M595.358,373.966 C592.628,373.966 590.444,371.782 590.444,369.052 C590.444,366.322 592.628,364.047 595.358,364.047 C598.088,364.047 600.363,366.322 600.363,369.052 C600.363,371.782 598.088,373.966 595.358,373.966 z M601.091,377.424 C600.454,376.241 599.544,375.331 598.361,374.694 C599.544,374.148 600.454,373.147 601.091,371.964 C601.637,373.147 602.638,374.148 603.821,374.694 C602.638,375.331 601.637,376.241 601.091,377.424 z M606.733,409.547 C610.282,409.547 613.194,406.726 613.194,403.177 C613.194,400.72 611.738,398.536 609.736,397.444 C611.738,396.443 613.194,394.259 613.194,391.802 C613.194,389.345 611.738,387.161 609.736,386.069 C611.738,385.068 613.194,382.884 613.194,380.427 C613.194,377.97 611.738,375.786 609.736,374.694 C611.738,373.693 613.194,371.509 613.194,369.052 C613.194,365.503 610.282,362.591 606.733,362.591 C604.276,362.591 602.183,364.047 601.091,366.049 C600.454,364.866 599.544,363.956 598.361,363.319 C600.363,362.318 601.819,360.134 601.819,357.677 C601.819,354.128 598.907,351.216 595.358,351.216 C592.901,351.216 590.808,352.672 589.716,354.674 C588.624,352.672 586.44,351.216 583.983,351.216 C581.526,351.216 579.433,352.672 578.341,354.674 C577.249,352.672 575.065,351.216 572.608,351.216 C569.059,351.216 566.238,354.128 566.238,357.677 C566.238,361.226 569.059,364.047 572.608,364.047 C575.065,364.047 577.249,362.682 578.341,360.589 C579.433,362.682 581.526,364.047 583.983,364.047 C586.44,364.047 588.624,362.682 589.716,360.589 C590.262,361.772 591.263,362.773 592.446,363.319 C590.353,364.411 588.988,366.595 588.988,369.052 C588.988,371.509 590.353,373.693 592.446,374.694 C591.263,375.331 590.262,376.241 589.716,377.424 C588.624,375.422 586.44,373.966 583.983,373.966 C581.526,373.966 579.433,375.422 578.341,377.424 C577.249,375.422 575.065,373.966 572.608,373.966 C569.059,373.966 566.238,376.878 566.238,380.427 C566.238,383.976 569.059,386.797 572.608,386.797 C575.065,386.797 577.249,385.432 578.341,383.339 C579.433,385.432 581.526,386.797 583.983,386.797 C586.44,386.797 588.624,385.432 589.716,383.339 C590.262,384.522 591.263,385.523 592.446,386.069 C590.353,387.161 588.988,389.345 588.988,391.802 C588.988,395.351 591.809,398.172 595.358,398.172 C597.815,398.172 599.999,396.807 601.091,394.714 C601.637,395.897 602.638,396.898 603.821,397.444 C601.728,398.536 600.363,400.72 600.363,403.177 C600.363,406.726 603.184,409.547 606.733,409.547 z M606.733,385.341 C604.003,385.341 601.819,383.157 601.819,380.427 C601.819,377.697 604.003,375.422 606.733,375.422 C609.463,375.422 611.738,377.697 611.738,380.427 C611.738,383.157 609.463,385.341 606.733,385.341 z M595.358,385.341 C592.628,385.341 590.444,383.157 590.444,380.427 C590.444,377.697 592.628,375.422 595.358,375.422 C598.088,375.422 600.363,377.697 600.363,380.427 C600.363,383.157 598.088,385.341 595.358,385.341 z M583.983,385.341 C581.253,385.341 579.069,383.157 579.069,380.427 C579.069,377.697 581.253,375.422 583.983,375.422 C586.713,375.422 588.988,377.697 588.988,380.427 C588.988,383.157 586.713,385.341 583.983,385.341 z M572.608,385.341 C569.878,385.341 567.694,383.157 567.694,380.427 C567.694,377.697 569.878,375.422 572.608,375.422 C575.338,375.422 577.613,377.697 577.613,380.427 C577.613,383.157 575.338,385.341 572.608,385.341 z M601.091,388.799 C600.454,387.616 599.544,386.706 598.361,386.069 C599.544,385.523 600.454,384.522 601.091,383.339 C601.637,384.522 602.638,385.523 603.821,386.069 C602.638,386.706 601.637,387.616 601.091,388.799 z M561.233,398.172 C564.782,398.172 567.694,395.351 567.694,391.802 C567.694,388.253 564.782,385.341 561.233,385.341 C557.684,385.341 554.863,388.253 554.863,391.802 C554.863,395.351 557.684,398.172 561.233,398.172 z M606.733,396.716 C604.003,396.716 601.819,394.532 601.819,391.802 C601.819,389.072 604.003,386.797 606.733,386.797 C609.463,386.797 611.738,389.072 611.738,391.802 C611.738,394.532 609.463,396.716 606.733,396.716 z M561.233,396.716 C558.503,396.716 556.319,394.532 556.319,391.802 C556.319,389.072 558.503,386.797 561.233,386.797 C563.963,386.797 566.238,389.072 566.238,391.802 C566.238,394.532 563.963,396.716 561.233,396.716 z M595.358,396.716 C592.628,396.716 590.444,394.532 590.444,391.802 C590.444,389.072 592.628,386.797 595.358,386.797 C598.088,386.797 600.363,389.072 600.363,391.802 C600.363,394.532 598.088,396.716 595.358,396.716 z M583.983,409.547 C587.532,409.547 590.444,406.726 590.444,403.177 C590.444,399.628 587.532,396.716 583.983,396.716 C581.526,396.716 579.433,398.172 578.341,400.174 C577.249,398.172 575.065,396.716 572.608,396.716 C569.059,396.716 566.238,399.628 566.238,403.177 C566.238,406.726 569.059,409.547 572.608,409.547 C575.065,409.547 577.249,408.182 578.341,406.089 C579.433,408.182 581.526,409.547 583.983,409.547 z M606.733,408.091 C604.003,408.091 601.819,405.907 601.819,403.177 C601.819,400.447 604.003,398.172 606.733,398.172 C609.463,398.172 611.738,400.447 611.738,403.177 C611.738,405.907 609.463,408.091 606.733,408.091 z M583.983,408.091 C581.253,408.091 579.069,405.907 579.069,403.177 C579.069,400.447 581.253,398.172 583.983,398.172 C586.713,398.172 588.988,400.447 588.988,403.177 C588.988,405.907 586.713,408.091 583.983,408.091 z M572.608,408.091 C569.878,408.091 567.694,405.907 567.694,403.177 C567.694,400.447 569.878,398.172 572.608,398.172 C575.338,398.172 577.613,400.447 577.613,403.177 C577.613,405.907 575.338,408.091 572.608,408.091 z" fill="#1A5297"/>
    <path d="M593.94,359.756 C591.21,359.756 589.026,357.572 589.026,354.842 C589.026,352.112 591.21,349.837 593.94,349.837 C596.67,349.837 598.945,352.112 598.945,354.842 C598.945,357.572 596.67,359.756 593.94,359.756 z M582.565,359.756 C579.835,359.756 577.651,357.572 577.651,354.842 C577.651,352.112 579.835,349.837 582.565,349.837 C585.295,349.837 587.57,352.112 587.57,354.842 C587.57,357.572 585.295,359.756 582.565,359.756 z M571.19,359.756 C568.46,359.756 566.276,357.572 566.276,354.842 C566.276,352.112 568.46,349.837 571.19,349.837 C573.92,349.837 576.195,352.112 576.195,354.842 C576.195,357.572 573.92,359.756 571.19,359.756 z M605.315,371.131 C602.585,371.131 600.401,368.947 600.401,366.217 C600.401,363.487 602.585,361.212 605.315,361.212 C608.045,361.212 610.32,363.487 610.32,366.217 C610.32,368.947 608.045,371.131 605.315,371.131 z M593.94,371.131 C591.21,371.131 589.026,368.947 589.026,366.217 C589.026,363.487 591.21,361.212 593.94,361.212 C596.67,361.212 598.945,363.487 598.945,366.217 C598.945,368.947 596.67,371.131 593.94,371.131 z M599.673,374.589 C599.036,373.406 598.126,372.496 596.943,371.859 C598.126,371.313 599.036,370.312 599.673,369.129 C600.219,370.312 601.22,371.313 602.403,371.859 C601.22,372.496 600.219,373.406 599.673,374.589 z M605.315,406.712 C608.864,406.712 611.776,403.891 611.776,400.342 C611.776,397.885 610.32,395.701 608.318,394.609 C610.32,393.608 611.776,391.424 611.776,388.967 C611.776,386.51 610.32,384.326 608.318,383.234 C610.32,382.233 611.776,380.049 611.776,377.592 C611.776,375.135 610.32,372.951 608.318,371.859 C610.32,370.858 611.776,368.674 611.776,366.217 C611.776,362.668 608.864,359.756 605.315,359.756 C602.858,359.756 600.765,361.212 599.673,363.214 C599.036,362.031 598.126,361.121 596.943,360.484 C598.945,359.483 600.401,357.299 600.401,354.842 C600.401,351.293 597.489,348.381 593.94,348.381 C591.483,348.381 589.39,349.837 588.298,351.839 C587.206,349.837 585.022,348.381 582.565,348.381 C580.108,348.381 578.015,349.837 576.923,351.839 C575.831,349.837 573.647,348.381 571.19,348.381 C567.641,348.381 564.82,351.293 564.82,354.842 C564.82,358.391 567.641,361.212 571.19,361.212 C573.647,361.212 575.831,359.847 576.923,357.754 C578.015,359.847 580.108,361.212 582.565,361.212 C585.022,361.212 587.206,359.847 588.298,357.754 C588.844,358.937 589.845,359.938 591.028,360.484 C588.935,361.576 587.57,363.76 587.57,366.217 C587.57,368.674 588.935,370.858 591.028,371.859 C589.845,372.496 588.844,373.406 588.298,374.589 C587.206,372.587 585.022,371.131 582.565,371.131 C580.108,371.131 578.015,372.587 576.923,374.589 C575.831,372.587 573.647,371.131 571.19,371.131 C567.641,371.131 564.82,374.043 564.82,377.592 C564.82,381.141 567.641,383.962 571.19,383.962 C573.647,383.962 575.831,382.597 576.923,380.504 C578.015,382.597 580.108,383.962 582.565,383.962 C585.022,383.962 587.206,382.597 588.298,380.504 C588.844,381.687 589.845,382.688 591.028,383.234 C588.935,384.326 587.57,386.51 587.57,388.967 C587.57,392.516 590.391,395.337 593.94,395.337 C596.397,395.337 598.581,393.972 599.673,391.879 C600.219,393.062 601.22,394.063 602.403,394.609 C600.31,395.701 598.945,397.885 598.945,400.342 C598.945,403.891 601.766,406.712 605.315,406.712 z M605.315,382.506 C602.585,382.506 600.401,380.322 600.401,377.592 C600.401,374.862 602.585,372.587 605.315,372.587 C608.045,372.587 610.32,374.862 610.32,377.592 C610.32,380.322 608.045,382.506 605.315,382.506 z M593.94,382.506 C591.21,382.506 589.026,380.322 589.026,377.592 C589.026,374.862 591.21,372.587 593.94,372.587 C596.67,372.587 598.945,374.862 598.945,377.592 C598.945,380.322 596.67,382.506 593.94,382.506 z M582.565,382.506 C579.835,382.506 577.651,380.322 577.651,377.592 C577.651,374.862 579.835,372.587 582.565,372.587 C585.295,372.587 587.57,374.862 587.57,377.592 C587.57,380.322 585.295,382.506 582.565,382.506 z M571.19,382.506 C568.46,382.506 566.276,380.322 566.276,377.592 C566.276,374.862 568.46,372.587 571.19,372.587 C573.92,372.587 576.195,374.862 576.195,377.592 C576.195,380.322 573.92,382.506 571.19,382.506 z M599.673,385.964 C599.036,384.781 598.126,383.871 596.943,383.234 C598.126,382.688 599.036,381.687 599.673,380.504 C600.219,381.687 601.22,382.688 602.403,383.234 C601.22,383.871 600.219,384.781 599.673,385.964 z M559.815,395.337 C563.364,395.337 566.276,392.516 566.276,388.967 C566.276,385.418 563.364,382.506 559.815,382.506 C556.266,382.506 553.445,385.418 553.445,388.967 C553.445,392.516 556.266,395.337 559.815,395.337 z M605.315,393.881 C602.585,393.881 600.401,391.697 600.401,388.967 C600.401,386.237 602.585,383.962 605.315,383.962 C608.045,383.962 610.32,386.237 610.32,388.967 C610.32,391.697 608.045,393.881 605.315,393.881 z M559.815,393.881 C557.085,393.881 554.901,391.697 554.901,388.967 C554.901,386.237 557.085,383.962 559.815,383.962 C562.545,383.962 564.82,386.237 564.82,388.967 C564.82,391.697 562.545,393.881 559.815,393.881 z M593.94,393.881 C591.21,393.881 589.026,391.697 589.026,388.967 C589.026,386.237 591.21,383.962 593.94,383.962 C596.67,383.962 598.945,386.237 598.945,388.967 C598.945,391.697 596.67,393.881 593.94,393.881 z M582.565,406.712 C586.114,406.712 589.026,403.891 589.026,400.342 C589.026,396.793 586.114,393.881 582.565,393.881 C580.108,393.881 578.015,395.337 576.923,397.339 C575.831,395.337 573.647,393.881 571.19,393.881 C567.641,393.881 564.82,396.793 564.82,400.342 C564.82,403.891 567.641,406.712 571.19,406.712 C573.647,406.712 575.831,405.347 576.923,403.254 C578.015,405.347 580.108,406.712 582.565,406.712 z M605.315,405.256 C602.585,405.256 600.401,403.072 600.401,400.342 C600.401,397.612 602.585,395.337 605.315,395.337 C608.045,395.337 610.32,397.612 610.32,400.342 C610.32,403.072 608.045,405.256 605.315,405.256 z M582.565,405.256 C579.835,405.256 577.651,403.072 577.651,400.342 C577.651,397.612 579.835,395.337 582.565,395.337 C585.295,395.337 587.57,397.612 587.57,400.342 C587.57,403.072 585.295,405.256 582.565,405.256 z M571.19,405.256 C568.46,405.256 566.276,403.072 566.276,400.342 C566.276,397.612 568.46,395.337 571.19,395.337 C573.92,395.337 576.195,397.612 576.195,400.342 C576.195,403.072 573.92,405.256 571.19,405.256 z" fill="#0FCB54"/>
    <path d="M663.389,362.591 C660.659,362.591 658.475,360.407 658.475,357.677 C658.475,354.947 660.659,352.672 663.389,352.672 C666.119,352.672 668.394,354.947 668.394,357.677 C668.394,360.407 666.119,362.591 663.389,362.591 z M652.014,362.591 C649.284,362.591 647.1,360.407 647.1,357.677 C647.1,354.947 649.284,352.672 652.014,352.672 C654.744,352.672 657.019,354.947 657.019,357.677 C657.019,360.407 654.744,362.591 652.014,362.591 z M640.639,362.591 C637.909,362.591 635.725,360.407 635.725,357.677 C635.725,354.947 637.909,352.672 640.639,352.672 C643.369,352.672 645.644,354.947 645.644,357.677 C645.644,360.407 643.369,362.591 640.639,362.591 z M674.764,373.966 C672.034,373.966 669.85,371.782 669.85,369.052 C669.85,366.322 672.034,364.047 674.764,364.047 C677.494,364.047 679.769,366.322 679.769,369.052 C679.769,371.782 677.494,373.966 674.764,373.966 z M663.389,373.966 C660.659,373.966 658.475,371.782 658.475,369.052 C658.475,366.322 660.659,364.047 663.389,364.047 C666.119,364.047 668.394,366.322 668.394,369.052 C668.394,371.782 666.119,373.966 663.389,373.966 z M669.122,377.424 C668.485,376.241 667.575,375.331 666.392,374.694 C667.575,374.148 668.485,373.147 669.122,371.964 C669.668,373.147 670.669,374.148 671.852,374.694 C670.669,375.331 669.668,376.241 669.122,377.424 z M674.764,409.547 C678.313,409.547 681.225,406.726 681.225,403.177 C681.225,400.72 679.769,398.536 677.767,397.444 C679.769,396.443 681.225,394.259 681.225,391.802 C681.225,389.345 679.769,387.161 677.767,386.069 C679.769,385.068 681.225,382.884 681.225,380.427 C681.225,377.97 679.769,375.786 677.767,374.694 C679.769,373.693 681.225,371.509 681.225,369.052 C681.225,365.503 678.313,362.591 674.764,362.591 C672.307,362.591 670.214,364.047 669.122,366.049 C668.485,364.866 667.575,363.956 666.392,363.319 C668.394,362.318 669.85,360.134 669.85,357.677 C669.85,354.128 666.938,351.216 663.389,351.216 C660.932,351.216 658.839,352.672 657.747,354.674 C656.655,352.672 654.471,351.216 652.014,351.216 C649.557,351.216 647.464,352.672 646.372,354.674 C645.28,352.672 643.096,351.216 640.639,351.216 C637.09,351.216 634.269,354.128 634.269,357.677 C634.269,361.226 637.09,364.047 640.639,364.047 C643.096,364.047 645.28,362.682 646.372,360.589 C647.464,362.682 649.557,364.047 652.014,364.047 C654.471,364.047 656.655,362.682 657.747,360.589 C658.293,361.772 659.294,362.773 660.477,363.319 C658.384,364.411 657.019,366.595 657.019,369.052 C657.019,371.509 658.384,373.693 660.477,374.694 C659.294,375.331 658.293,376.241 657.747,377.424 C656.655,375.422 654.471,373.966 652.014,373.966 C649.557,373.966 647.464,375.422 646.372,377.424 C645.28,375.422 643.096,373.966 640.639,373.966 C637.09,373.966 634.269,376.878 634.269,380.427 C634.269,383.976 637.09,386.797 640.639,386.797 C643.096,386.797 645.28,385.432 646.372,383.339 C647.464,385.432 649.557,386.797 652.014,386.797 C654.471,386.797 656.655,385.432 657.747,383.339 C658.293,384.522 659.294,385.523 660.477,386.069 C658.384,387.161 657.019,389.345 657.019,391.802 C657.019,395.351 659.84,398.172 663.389,398.172 C665.846,398.172 668.03,396.807 669.122,394.714 C669.668,395.897 670.669,396.898 671.852,397.444 C669.759,398.536 668.394,400.72 668.394,403.177 C668.394,406.726 671.215,409.547 674.764,409.547 z M674.764,385.341 C672.034,385.341 669.85,383.157 669.85,380.427 C669.85,377.697 672.034,375.422 674.764,375.422 C677.494,375.422 679.769,377.697 679.769,380.427 C679.769,383.157 677.494,385.341 674.764,385.341 z M663.389,385.341 C660.659,385.341 658.475,383.157 658.475,380.427 C658.475,377.697 660.659,375.422 663.389,375.422 C666.119,375.422 668.394,377.697 668.394,380.427 C668.394,383.157 666.119,385.341 663.389,385.341 z M652.014,385.341 C649.284,385.341 647.1,383.157 647.1,380.427 C647.1,377.697 649.284,375.422 652.014,375.422 C654.744,375.422 657.019,377.697 657.019,380.427 C657.019,383.157 654.744,385.341 652.014,385.341 z M640.639,385.341 C637.909,385.341 635.725,383.157 635.725,380.427 C635.725,377.697 637.909,375.422 640.639,375.422 C643.369,375.422 645.644,377.697 645.644,380.427 C645.644,383.157 643.369,385.341 640.639,385.341 z M669.122,388.799 C668.485,387.616 667.575,386.706 666.392,386.069 C667.575,385.523 668.485,384.522 669.122,383.339 C669.668,384.522 670.669,385.523 671.852,386.069 C670.669,386.706 669.668,387.616 669.122,388.799 z M629.264,398.172 C632.813,398.172 635.725,395.351 635.725,391.802 C635.725,388.253 632.813,385.341 629.264,385.341 C625.715,385.341 622.894,388.253 622.894,391.802 C622.894,395.351 625.715,398.172 629.264,398.172 z M674.764,396.716 C672.034,396.716 669.85,394.532 669.85,391.802 C669.85,389.072 672.034,386.797 674.764,386.797 C677.494,386.797 679.769,389.072 679.769,391.802 C679.769,394.532 677.494,396.716 674.764,396.716 z M629.264,396.716 C626.534,396.716 624.35,394.532 624.35,391.802 C624.35,389.072 626.534,386.797 629.264,386.797 C631.994,386.797 634.269,389.072 634.269,391.802 C634.269,394.532 631.994,396.716 629.264,396.716 z M663.389,396.716 C660.659,396.716 658.475,394.532 658.475,391.802 C658.475,389.072 660.659,386.797 663.389,386.797 C666.119,386.797 668.394,389.072 668.394,391.802 C668.394,394.532 666.119,396.716 663.389,396.716 z M652.014,409.547 C655.563,409.547 658.475,406.726 658.475,403.177 C658.475,399.628 655.563,396.716 652.014,396.716 C649.557,396.716 647.464,398.172 646.372,400.174 C645.28,398.172 643.096,396.716 640.639,396.716 C637.09,396.716 634.269,399.628 634.269,403.177 C634.269,406.726 637.09,409.547 640.639,409.547 C643.096,409.547 645.28,408.182 646.372,406.089 C647.464,408.182 649.557,409.547 652.014,409.547 z M674.764,408.091 C672.034,408.091 669.85,405.907 669.85,403.177 C669.85,400.447 672.034,398.172 674.764,398.172 C677.494,398.172 679.769,400.447 679.769,403.177 C679.769,405.907 677.494,408.091 674.764,408.091 z M652.014,408.091 C649.284,408.091 647.1,405.907 647.1,403.177 C647.1,400.447 649.284,398.172 652.014,398.172 C654.744,398.172 657.019,400.447 657.019,403.177 C657.019,405.907 654.744,408.091 652.014,408.091 z M640.639,408.091 C637.909,408.091 635.725,405.907 635.725,403.177 C635.725,400.447 637.909,398.172 640.639,398.172 C643.369,398.172 645.644,400.447 645.644,403.177 C645.644,405.907 643.369,408.091 640.639,408.091 z" fill="#1A5297"/>
    <path d="M661.972,359.756 C659.242,359.756 657.058,357.572 657.058,354.842 C657.058,352.112 659.242,349.837 661.972,349.837 C664.702,349.837 666.977,352.112 666.977,354.842 C666.977,357.572 664.702,359.756 661.972,359.756 z M650.597,359.756 C647.867,359.756 645.683,357.572 645.683,354.842 C645.683,352.112 647.867,349.837 650.597,349.837 C653.327,349.837 655.602,352.112 655.602,354.842 C655.602,357.572 653.327,359.756 650.597,359.756 z M639.222,359.756 C636.492,359.756 634.308,357.572 634.308,354.842 C634.308,352.112 636.492,349.837 639.222,349.837 C641.952,349.837 644.227,352.112 644.227,354.842 C644.227,357.572 641.952,359.756 639.222,359.756 z M673.347,371.131 C670.617,371.131 668.433,368.947 668.433,366.217 C668.433,363.487 670.617,361.212 673.347,361.212 C676.077,361.212 678.352,363.487 678.352,366.217 C678.352,368.947 676.077,371.131 673.347,371.131 z M661.972,371.131 C659.242,371.131 657.058,368.947 657.058,366.217 C657.058,363.487 659.242,361.212 661.972,361.212 C664.702,361.212 666.977,363.487 666.977,366.217 C666.977,368.947 664.702,371.131 661.972,371.131 z M667.705,374.589 C667.068,373.406 666.158,372.496 664.975,371.859 C666.158,371.313 667.068,370.312 667.705,369.129 C668.251,370.312 669.252,371.313 670.435,371.859 C669.252,372.496 668.251,373.406 667.705,374.589 z M673.347,406.712 C676.896,406.712 679.808,403.891 679.808,400.342 C679.808,397.885 678.352,395.701 676.35,394.609 C678.352,393.608 679.808,391.424 679.808,388.967 C679.808,386.51 678.352,384.326 676.35,383.234 C678.352,382.233 679.808,380.049 679.808,377.592 C679.808,375.135 678.352,372.951 676.35,371.859 C678.352,370.858 679.808,368.674 679.808,366.217 C679.808,362.668 676.896,359.756 673.347,359.756 C670.89,359.756 668.797,361.212 667.705,363.214 C667.068,362.031 666.158,361.121 664.975,360.484 C666.977,359.483 668.433,357.299 668.433,354.842 C668.433,351.293 665.521,348.381 661.972,348.381 C659.515,348.381 657.422,349.837 656.33,351.839 C655.238,349.837 653.054,348.381 650.597,348.381 C648.14,348.381 646.047,349.837 644.955,351.839 C643.863,349.837 641.679,348.381 639.222,348.381 C635.673,348.381 632.852,351.293 632.852,354.842 C632.852,358.391 635.673,361.212 639.222,361.212 C641.679,361.212 643.863,359.847 644.955,357.754 C646.047,359.847 648.14,361.212 650.597,361.212 C653.054,361.212 655.238,359.847 656.33,357.754 C656.876,358.937 657.877,359.938 659.06,360.484 C656.967,361.576 655.602,363.76 655.602,366.217 C655.602,368.674 656.967,370.858 659.06,371.859 C657.877,372.496 656.876,373.406 656.33,374.589 C655.238,372.587 653.054,371.131 650.597,371.131 C648.14,371.131 646.047,372.587 644.955,374.589 C643.863,372.587 641.679,371.131 639.222,371.131 C635.673,371.131 632.852,374.043 632.852,377.592 C632.852,381.141 635.673,383.962 639.222,383.962 C641.679,383.962 643.863,382.597 644.955,380.504 C646.047,382.597 648.14,383.962 650.597,383.962 C653.054,383.962 655.238,382.597 656.33,380.504 C656.876,381.687 657.877,382.688 659.06,383.234 C656.967,384.326 655.602,386.51 655.602,388.967 C655.602,392.516 658.423,395.337 661.972,395.337 C664.429,395.337 666.613,393.972 667.705,391.879 C668.251,393.062 669.252,394.063 670.435,394.609 C668.342,395.701 666.977,397.885 666.977,400.342 C666.977,403.891 669.798,406.712 673.347,406.712 z M673.347,382.506 C670.617,382.506 668.433,380.322 668.433,377.592 C668.433,374.862 670.617,372.587 673.347,372.587 C676.077,372.587 678.352,374.862 678.352,377.592 C678.352,380.322 676.077,382.506 673.347,382.506 z M661.972,382.506 C659.242,382.506 657.058,380.322 657.058,377.592 C657.058,374.862 659.242,372.587 661.972,372.587 C664.702,372.587 666.977,374.862 666.977,377.592 C666.977,380.322 664.702,382.506 661.972,382.506 z M650.597,382.506 C647.867,382.506 645.683,380.322 645.683,377.592 C645.683,374.862 647.867,372.587 650.597,372.587 C653.327,372.587 655.602,374.862 655.602,377.592 C655.602,380.322 653.327,382.506 650.597,382.506 z M639.222,382.506 C636.492,382.506 634.308,380.322 634.308,377.592 C634.308,374.862 636.492,372.587 639.222,372.587 C641.952,372.587 644.227,374.862 644.227,377.592 C644.227,380.322 641.952,382.506 639.222,382.506 z M667.705,385.964 C667.068,384.781 666.158,383.871 664.975,383.234 C666.158,382.688 667.068,381.687 667.705,380.504 C668.251,381.687 669.252,382.688 670.435,383.234 C669.252,383.871 668.251,384.781 667.705,385.964 z M627.847,395.337 C631.396,395.337 634.308,392.516 634.308,388.967 C634.308,385.418 631.396,382.506 627.847,382.506 C624.298,382.506 621.477,385.418 621.477,388.967 C621.477,392.516 624.298,395.337 627.847,395.337 z M673.347,393.881 C670.617,393.881 668.433,391.697 668.433,388.967 C668.433,386.237 670.617,383.962 673.347,383.962 C676.077,383.962 678.352,386.237 678.352,388.967 C678.352,391.697 676.077,393.881 673.347,393.881 z M627.847,393.881 C625.117,393.881 622.933,391.697 622.933,388.967 C622.933,386.237 625.117,383.962 627.847,383.962 C630.577,383.962 632.852,386.237 632.852,388.967 C632.852,391.697 630.577,393.881 627.847,393.881 z M661.972,393.881 C659.242,393.881 657.058,391.697 657.058,388.967 C657.058,386.237 659.242,383.962 661.972,383.962 C664.702,383.962 666.977,386.237 666.977,388.967 C666.977,391.697 664.702,393.881 661.972,393.881 z M650.597,406.712 C654.146,406.712 657.058,403.891 657.058,400.342 C657.058,396.793 654.146,393.881 650.597,393.881 C648.14,393.881 646.047,395.337 644.955,397.339 C643.863,395.337 641.679,393.881 639.222,393.881 C635.673,393.881 632.852,396.793 632.852,400.342 C632.852,403.891 635.673,406.712 639.222,406.712 C641.679,406.712 643.863,405.347 644.955,403.254 C646.047,405.347 648.14,406.712 650.597,406.712 z M673.347,405.256 C670.617,405.256 668.433,403.072 668.433,400.342 C668.433,397.612 670.617,395.337 673.347,395.337 C676.077,395.337 678.352,397.612 678.352,400.342 C678.352,403.072 676.077,405.256 673.347,405.256 z M650.597,405.256 C647.867,405.256 645.683,403.072 645.683,400.342 C645.683,397.612 647.867,395.337 650.597,395.337 C653.327,395.337 655.602,397.612 655.602,400.342 C655.602,403.072 653.327,405.256 650.597,405.256 z M639.222,405.256 C636.492,405.256 634.308,403.072 634.308,400.342 C634.308,397.612 636.492,395.337 639.222,395.337 C641.952,395.337 644.227,397.612 644.227,400.342 C644.227,403.072 641.952,405.256 639.222,405.256 z" fill="#1A5297"/>
    <path d="M661.263,357.65 C664.448,357.65 666.996,355.102 666.996,352.008 C666.996,348.823 664.448,346.275 661.263,346.275 C658.169,346.275 655.621,348.823 655.621,352.008 C655.621,355.102 658.169,357.65 661.263,357.65 z M649.888,357.65 C653.073,357.65 655.621,355.102 655.621,352.008 C655.621,348.823 653.073,346.275 649.888,346.275 C646.794,346.275 644.246,348.823 644.246,352.008 C644.246,355.102 646.794,357.65 649.888,357.65 z M638.513,357.65 C641.698,357.65 644.246,355.102 644.246,352.008 C644.246,348.823 641.698,346.275 638.513,346.275 C635.419,346.275 632.871,348.823 632.871,352.008 C632.871,355.102 635.419,357.65 638.513,357.65 z M657.441,351.007 L665.267,351.007 L665.267,352.918 L657.441,352.918 z M646.066,351.007 L653.892,351.007 L653.892,352.918 L646.066,352.918 z M634.691,351.007 L642.517,351.007 L642.517,352.918 L634.691,352.918 z M672.638,369.025 C675.823,369.025 678.371,366.477 678.371,363.383 C678.371,360.198 675.823,357.65 672.638,357.65 C669.544,357.65 666.996,360.198 666.996,363.383 C666.996,366.477 669.544,369.025 672.638,369.025 z M661.263,369.025 C664.448,369.025 666.996,366.477 666.996,363.383 C666.996,360.198 664.448,357.65 661.263,357.65 C658.169,357.65 655.621,360.198 655.621,363.383 C655.621,366.477 658.169,369.025 661.263,369.025 z M668.816,362.382 L676.642,362.382 L676.642,364.293 L668.816,364.293 z M657.441,362.382 L665.267,362.382 L665.267,364.293 L657.441,364.293 z M672.638,380.4 C675.823,380.4 678.371,377.852 678.371,374.758 C678.371,371.573 675.823,369.025 672.638,369.025 C669.544,369.025 666.996,371.573 666.996,374.758 C666.996,377.852 669.544,380.4 672.638,380.4 z M661.263,380.4 C664.448,380.4 666.996,377.852 666.996,374.758 C666.996,371.573 664.448,369.025 661.263,369.025 C658.169,369.025 655.621,371.573 655.621,374.758 C655.621,377.852 658.169,380.4 661.263,380.4 z M649.888,380.4 C653.073,380.4 655.621,377.852 655.621,374.758 C655.621,371.573 653.073,369.025 649.888,369.025 C646.794,369.025 644.246,371.573 644.246,374.758 C644.246,377.852 646.794,380.4 649.888,380.4 z M638.513,380.4 C641.698,380.4 644.246,377.852 644.246,374.758 C644.246,371.573 641.698,369.025 638.513,369.025 C635.419,369.025 632.871,371.573 632.871,374.758 C632.871,377.852 635.419,380.4 638.513,380.4 z M668.816,373.757 L676.642,373.757 L676.642,375.668 L668.816,375.668 z M657.441,373.757 L665.267,373.757 L665.267,375.668 L657.441,375.668 z M646.066,373.757 L653.892,373.757 L653.892,375.668 L646.066,375.668 z M634.691,373.757 L642.517,373.757 L642.517,375.668 L634.691,375.668 z M672.638,391.775 C675.823,391.775 678.371,389.227 678.371,386.133 C678.371,382.948 675.823,380.4 672.638,380.4 C669.544,380.4 666.996,382.948 666.996,386.133 C666.996,389.227 669.544,391.775 672.638,391.775 z M627.138,391.775 C630.323,391.775 632.871,389.227 632.871,386.133 C632.871,382.948 630.323,380.4 627.138,380.4 C624.044,380.4 621.496,382.948 621.496,386.133 C621.496,389.227 624.044,391.775 627.138,391.775 z M661.263,391.775 C664.448,391.775 666.996,389.227 666.996,386.133 C666.996,382.948 664.448,380.4 661.263,380.4 C658.169,380.4 655.621,382.948 655.621,386.133 C655.621,389.227 658.169,391.775 661.263,391.775 z M668.816,385.132 L676.642,385.132 L676.642,387.043 L668.816,387.043 z M623.316,385.132 L631.142,385.132 L631.142,387.043 L623.316,387.043 z M657.441,385.132 L665.267,385.132 L665.267,387.043 L657.441,387.043 z M672.638,403.15 C675.823,403.15 678.371,400.602 678.371,397.508 C678.371,394.323 675.823,391.775 672.638,391.775 C669.544,391.775 666.996,394.323 666.996,397.508 C666.996,400.602 669.544,403.15 672.638,403.15 z M649.888,403.15 C653.073,403.15 655.621,400.602 655.621,397.508 C655.621,394.323 653.073,391.775 649.888,391.775 C646.794,391.775 644.246,394.323 644.246,397.508 C644.246,400.602 646.794,403.15 649.888,403.15 z M638.513,403.15 C641.698,403.15 644.246,400.602 644.246,397.508 C644.246,394.323 641.698,391.775 638.513,391.775 C635.419,391.775 632.871,394.323 632.871,397.508 C632.871,400.602 635.419,403.15 638.513,403.15 z M668.816,396.507 L676.642,396.507 L676.642,398.418 L668.816,398.418 z M646.066,396.507 L653.892,396.507 L653.892,398.418 L646.066,398.418 z M634.691,396.507 L642.517,396.507 L642.517,398.418 L634.691,398.418 z" fill="#FF3D00" fill-opacity="0.902"/>
    <path d="M731.421,362.682 C731.148,362.682 730.966,362.682 730.693,362.682 C728.509,362.409 726.689,360.68 726.416,358.405 C726.416,357.404 726.416,357.222 726.416,356.949 C726.689,354.492 728.873,352.581 731.421,352.581 C734.242,352.581 736.517,354.856 736.517,357.677 C736.517,360.225 734.606,362.409 732.149,362.682 C731.421,362.682 731.421,362.682 731.421,362.682 z M720.046,362.773 C717.498,362.773 715.314,360.862 715.041,358.405 C715.041,357.404 715.041,357.222 715.041,356.949 C715.314,354.492 717.498,352.581 720.046,352.581 C722.594,352.581 724.778,354.492 725.051,356.949 C725.051,357.677 725.051,357.677 725.051,357.677 C725.051,357.95 725.051,358.132 725.051,358.405 C724.778,360.862 722.594,362.773 720.046,362.773 z M708.671,362.773 C705.85,362.773 703.575,360.498 703.575,357.677 C703.575,354.856 705.85,352.581 708.671,352.581 C711.219,352.581 713.403,354.492 713.676,356.949 C713.676,357.677 713.676,357.677 713.676,357.677 C713.676,357.95 713.676,358.132 713.676,358.405 C713.403,360.862 711.219,362.773 708.671,362.773 z M731.421,361.499 C733.514,361.499 735.243,359.77 735.243,357.677 C735.243,355.584 733.514,353.855 731.421,353.855 C729.328,353.855 727.599,355.584 727.599,357.677 C727.599,359.77 729.328,361.499 731.421,361.499 z M720.046,361.499 C722.139,361.499 723.868,359.77 723.868,357.677 C723.868,355.584 722.139,353.855 720.046,353.855 C717.953,353.855 716.224,355.584 716.224,357.677 C716.224,359.77 717.953,361.499 720.046,361.499 z M708.671,361.499 C710.764,361.499 712.493,359.77 712.493,357.677 C712.493,355.584 710.764,353.855 708.671,353.855 C706.578,353.855 704.849,355.584 704.849,357.677 C704.849,359.77 706.578,361.499 708.671,361.499 z M731.421,360.225 C730.056,360.225 728.873,359.042 728.873,357.677 C728.873,356.312 730.056,355.129 731.421,355.129 C732.786,355.129 733.969,356.312 733.969,357.677 C733.969,359.042 732.786,360.225 731.421,360.225 z M720.046,360.225 C718.681,360.225 717.498,359.042 717.498,357.677 C717.498,356.312 718.681,355.129 720.046,355.129 C721.411,355.129 722.594,356.312 722.594,357.677 C722.594,359.042 721.411,360.225 720.046,360.225 z M708.671,360.225 C707.306,360.225 706.123,359.042 706.123,357.677 C706.123,356.312 707.306,355.129 708.671,355.129 C710.036,355.129 711.219,356.312 711.219,357.677 C711.219,359.042 710.036,360.225 708.671,360.225 z M732.695,357.677 C732.695,356.949 732.149,356.403 731.421,356.403 C730.693,356.403 730.147,356.949 730.147,357.677 C730.147,358.405 730.693,358.951 731.421,358.951 C732.149,358.951 732.695,358.405 732.695,357.677 z M721.32,357.677 C721.32,356.949 720.774,356.403 720.046,356.403 C719.318,356.403 718.772,356.949 718.772,357.677 C718.772,358.405 719.318,358.951 720.046,358.951 C720.774,358.951 721.32,358.405 721.32,357.677 z M709.945,357.677 C709.945,356.949 709.399,356.403 708.671,356.403 C707.943,356.403 707.397,356.949 707.397,357.677 C707.397,358.405 707.943,358.951 708.671,358.951 C709.399,358.951 709.945,358.405 709.945,357.677 z M742.068,374.057 C739.884,373.784 738.064,372.055 737.791,369.78 C737.791,368.779 737.791,368.597 737.791,368.324 C738.064,365.867 740.248,363.956 742.796,363.956 C745.617,363.956 747.892,366.231 747.892,369.052 C747.892,371.6 745.981,373.784 743.524,374.057 C742.523,374.057 742.341,374.057 742.068,374.057 z M731.421,374.057 C731.148,374.057 730.966,374.057 730.693,374.057 C728.236,373.784 726.325,371.6 726.325,369.052 C726.325,366.504 728.236,364.32 730.693,364.047 C731.421,364.047 731.421,364.047 731.421,364.047 C731.694,364.047 731.876,364.047 732.149,364.047 C734.333,364.32 736.153,366.049 736.426,368.324 C736.426,369.052 736.426,369.052 736.426,369.052 C736.426,369.325 736.426,369.507 736.426,369.78 C736.153,372.055 734.333,373.784 732.149,374.057 C731.421,374.057 731.421,374.057 731.421,374.057 z M742.796,372.874 C744.889,372.874 746.618,371.145 746.618,369.052 C746.618,366.959 744.889,365.23 742.796,365.23 C740.703,365.23 738.974,366.959 738.974,369.052 C738.974,371.145 740.703,372.874 742.796,372.874 z M731.421,372.874 C733.514,372.874 735.243,371.145 735.243,369.052 C735.243,366.959 733.514,365.23 731.421,365.23 C729.328,365.23 727.599,366.959 727.599,369.052 C727.599,371.145 729.328,372.874 731.421,372.874 z M742.796,371.6 C741.431,371.6 740.248,370.417 740.248,369.052 C740.248,367.687 741.431,366.504 742.796,366.504 C744.161,366.504 745.344,367.687 745.344,369.052 C745.344,370.417 744.161,371.6 742.796,371.6 z M731.421,371.6 C730.056,371.6 728.873,370.417 728.873,369.052 C728.873,367.687 730.056,366.504 731.421,366.504 C732.786,366.504 733.969,367.687 733.969,369.052 C733.969,370.417 732.786,371.6 731.421,371.6 z M744.07,369.052 C744.07,368.324 743.524,367.778 742.796,367.778 C742.068,367.778 741.522,368.324 741.522,369.052 C741.522,369.78 742.068,370.326 742.796,370.326 C743.524,370.326 744.07,369.78 744.07,369.052 z M732.695,369.052 C732.695,368.324 732.149,367.778 731.421,367.778 C730.693,367.778 730.147,368.324 730.147,369.052 C730.147,369.78 730.693,370.326 731.421,370.326 C732.149,370.326 732.695,369.78 732.695,369.052 z M737.154,377.515 C736.517,376.332 735.516,375.331 734.333,374.785 C735.516,374.148 736.517,373.147 737.063,371.964 C737.7,373.147 738.701,374.148 739.884,374.694 C738.701,375.331 737.7,376.332 737.154,377.515 z M742.796,409.547 C746.345,409.547 749.166,406.726 749.166,403.177 C749.166,400.629 747.801,398.536 745.708,397.535 C747.801,396.443 749.166,394.35 749.166,391.802 C749.166,389.254 747.801,387.161 745.708,386.16 C747.801,385.068 749.166,382.975 749.166,380.427 C749.166,377.879 747.801,375.786 745.708,374.785 C747.801,373.693 749.166,371.6 749.166,369.052 C749.166,365.503 746.345,362.682 742.796,362.682 C740.339,362.682 738.155,364.047 737.154,366.14 C736.517,364.957 735.516,363.956 734.333,363.41 C736.426,362.318 737.791,360.225 737.791,357.677 C737.791,354.128 734.97,351.307 731.421,351.307 C728.964,351.307 726.78,352.672 725.779,354.765 C724.687,352.672 722.594,351.307 720.046,351.307 C717.589,351.307 715.405,352.672 714.404,354.765 C713.312,352.672 711.219,351.307 708.671,351.307 C705.122,351.307 702.301,354.128 702.301,357.677 C702.301,361.226 705.122,364.047 708.671,364.047 C711.128,364.047 713.312,362.682 714.313,360.589 C715.405,362.682 717.498,364.047 720.046,364.047 C722.503,364.047 724.687,362.682 725.688,360.589 C726.325,361.772 727.326,362.773 728.509,363.319 C726.416,364.411 725.051,366.504 725.051,369.052 C725.051,371.6 726.416,373.693 728.509,374.694 C727.326,375.331 726.325,376.332 725.779,377.515 C724.687,375.422 722.594,374.057 720.046,374.057 C717.589,374.057 715.405,375.422 714.404,377.515 C713.312,375.422 711.219,374.057 708.671,374.057 C705.122,374.057 702.301,376.878 702.301,380.427 C702.301,383.976 705.122,386.797 708.671,386.797 C711.128,386.797 713.312,385.432 714.313,383.339 C715.405,385.432 717.498,386.797 720.046,386.797 C722.503,386.797 724.687,385.432 725.688,383.339 C726.325,384.522 727.326,385.523 728.509,386.069 C726.416,387.161 725.051,389.254 725.051,391.802 C725.051,395.351 727.872,398.172 731.421,398.172 C733.878,398.172 736.062,396.807 737.063,394.714 C737.7,395.897 738.701,396.898 739.884,397.444 C737.791,398.536 736.426,400.629 736.426,403.177 C736.426,406.726 739.247,409.547 742.796,409.547 z M720.046,385.523 C717.498,385.523 715.314,383.612 715.041,381.155 C715.041,380.154 715.041,379.972 715.041,379.699 C715.314,377.242 717.498,375.331 720.046,375.331 C722.594,375.331 724.778,377.242 725.051,379.699 C725.051,380.427 725.051,380.427 725.051,380.427 C725.051,380.7 725.051,380.882 725.051,381.155 C724.778,383.612 722.594,385.523 720.046,385.523 z M708.671,385.523 C705.85,385.523 703.575,383.248 703.575,380.427 C703.575,377.606 705.85,375.331 708.671,375.331 C711.219,375.331 713.403,377.242 713.676,379.699 C713.676,380.427 713.676,380.427 713.676,380.427 C713.676,380.7 713.676,380.882 713.676,381.155 C713.403,383.612 711.219,385.523 708.671,385.523 z M731.421,385.432 C731.148,385.432 730.966,385.432 730.693,385.432 C728.509,385.159 726.689,383.43 726.416,381.155 C726.416,380.154 726.416,379.972 726.416,379.699 C726.689,377.424 728.509,375.695 730.693,375.422 C731.421,375.422 731.421,375.422 731.421,375.422 C731.694,375.422 731.876,375.422 732.149,375.422 C734.333,375.695 736.153,377.424 736.426,379.699 C736.426,380.427 736.426,380.427 736.426,380.427 C736.426,380.7 736.426,380.882 736.426,381.155 C736.153,383.43 734.333,385.159 732.149,385.432 C731.421,385.432 731.421,385.432 731.421,385.432 z M742.068,385.432 C739.884,385.159 738.064,383.43 737.791,381.155 C737.791,380.154 737.791,379.972 737.791,379.699 C738.064,377.424 739.884,375.695 742.068,375.422 C742.796,375.422 742.796,375.422 742.796,375.422 C743.069,375.422 743.251,375.422 743.524,375.422 C745.981,375.695 747.892,377.879 747.892,380.427 C747.892,382.975 745.981,385.159 743.524,385.432 C742.523,385.432 742.341,385.432 742.068,385.432 z M742.796,384.249 C744.889,384.249 746.618,382.52 746.618,380.427 C746.618,378.334 744.889,376.605 742.796,376.605 C740.703,376.605 738.974,378.334 738.974,380.427 C738.974,382.52 740.703,384.249 742.796,384.249 z M731.421,384.249 C733.514,384.249 735.243,382.52 735.243,380.427 C735.243,378.334 733.514,376.605 731.421,376.605 C729.328,376.605 727.599,378.334 727.599,380.427 C727.599,382.52 729.328,384.249 731.421,384.249 z M720.046,384.249 C722.139,384.249 723.868,382.52 723.868,380.427 C723.868,378.334 722.139,376.605 720.046,376.605 C717.953,376.605 716.224,378.334 716.224,380.427 C716.224,382.52 717.953,384.249 720.046,384.249 z M708.671,384.249 C710.764,384.249 712.493,382.52 712.493,380.427 C712.493,378.334 710.764,376.605 708.671,376.605 C706.578,376.605 704.849,378.334 704.849,380.427 C704.849,382.52 706.578,384.249 708.671,384.249 z M742.796,382.975 C741.431,382.975 740.248,381.792 740.248,380.427 C740.248,379.062 741.431,377.879 742.796,377.879 C744.161,377.879 745.344,379.062 745.344,380.427 C745.344,381.792 744.161,382.975 742.796,382.975 z M731.421,382.975 C730.056,382.975 728.873,381.792 728.873,380.427 C728.873,379.062 730.056,377.879 731.421,377.879 C732.786,377.879 733.969,379.062 733.969,380.427 C733.969,381.792 732.786,382.975 731.421,382.975 z M720.046,382.975 C718.681,382.975 717.498,381.792 717.498,380.427 C717.498,379.062 718.681,377.879 720.046,377.879 C721.411,377.879 722.594,379.062 722.594,380.427 C722.594,381.792 721.411,382.975 720.046,382.975 z M708.671,382.975 C707.306,382.975 706.123,381.792 706.123,380.427 C706.123,379.062 707.306,377.879 708.671,377.879 C710.036,377.879 711.219,379.062 711.219,380.427 C711.219,381.792 710.036,382.975 708.671,382.975 z M744.07,380.427 C744.07,379.699 743.524,379.153 742.796,379.153 C742.068,379.153 741.522,379.699 741.522,380.427 C741.522,381.155 742.068,381.701 742.796,381.701 C743.524,381.701 744.07,381.155 744.07,380.427 z M732.695,380.427 C732.695,379.699 732.149,379.153 731.421,379.153 C730.693,379.153 730.147,379.699 730.147,380.427 C730.147,381.155 730.693,381.701 731.421,381.701 C732.149,381.701 732.695,381.155 732.695,380.427 z M721.32,380.427 C721.32,379.699 720.774,379.153 720.046,379.153 C719.318,379.153 718.772,379.699 718.772,380.427 C718.772,381.155 719.318,381.701 720.046,381.701 C720.774,381.701 721.32,381.155 721.32,380.427 z M709.945,380.427 C709.945,379.699 709.399,379.153 708.671,379.153 C707.943,379.153 707.397,379.699 707.397,380.427 C707.397,381.155 707.943,381.701 708.671,381.701 C709.399,381.701 709.945,381.155 709.945,380.427 z M737.154,388.89 C736.517,387.707 735.516,386.706 734.333,386.16 C735.516,385.523 736.517,384.522 737.063,383.339 C737.7,384.522 738.701,385.523 739.884,386.069 C738.701,386.706 737.7,387.707 737.154,388.89 z M697.296,398.172 C700.845,398.172 703.666,395.351 703.666,391.802 C703.666,388.253 700.845,385.432 697.296,385.432 C693.747,385.432 690.926,388.253 690.926,391.802 C690.926,395.351 693.747,398.172 697.296,398.172 z M697.296,396.898 C694.475,396.898 692.2,394.623 692.2,391.802 C692.2,388.981 694.475,386.706 697.296,386.706 C700.117,386.706 702.392,388.981 702.392,391.802 C702.392,394.623 700.117,396.898 697.296,396.898 z M731.421,396.898 C728.6,396.898 726.325,394.623 726.325,391.802 C726.325,389.254 728.236,387.07 730.693,386.797 C731.421,386.797 731.421,386.797 731.421,386.797 C731.694,386.797 731.876,386.797 732.149,386.797 C734.333,387.07 736.153,388.799 736.426,391.074 C736.426,391.802 736.426,391.802 736.426,391.802 C736.426,392.075 736.426,392.257 736.426,392.53 C736.153,394.987 733.969,396.898 731.421,396.898 z M742.068,396.807 C739.884,396.534 738.064,394.805 737.791,392.53 C737.791,391.529 737.791,391.347 737.791,391.074 C738.064,388.799 739.884,387.07 742.068,386.797 C742.796,386.797 742.796,386.797 742.796,386.797 C743.069,386.797 743.251,386.797 743.524,386.797 C745.981,387.07 747.892,389.254 747.892,391.802 C747.892,394.35 745.981,396.534 743.524,396.807 C742.523,396.807 742.341,396.807 742.068,396.807 z M742.796,395.624 C744.889,395.624 746.618,393.895 746.618,391.802 C746.618,389.709 744.889,387.98 742.796,387.98 C740.703,387.98 738.974,389.709 738.974,391.802 C738.974,393.895 740.703,395.624 742.796,395.624 z M697.296,395.624 C699.389,395.624 701.118,393.895 701.118,391.802 C701.118,389.709 699.389,387.98 697.296,387.98 C695.203,387.98 693.474,389.709 693.474,391.802 C693.474,393.895 695.203,395.624 697.296,395.624 z M731.421,395.624 C733.514,395.624 735.243,393.895 735.243,391.802 C735.243,389.709 733.514,387.98 731.421,387.98 C729.328,387.98 727.599,389.709 727.599,391.802 C727.599,393.895 729.328,395.624 731.421,395.624 z M742.796,394.35 C741.431,394.35 740.248,393.167 740.248,391.802 C740.248,390.437 741.431,389.254 742.796,389.254 C744.161,389.254 745.344,390.437 745.344,391.802 C745.344,393.167 744.161,394.35 742.796,394.35 z M697.296,394.35 C695.931,394.35 694.748,393.167 694.748,391.802 C694.748,390.437 695.931,389.254 697.296,389.254 C698.661,389.254 699.844,390.437 699.844,391.802 C699.844,393.167 698.661,394.35 697.296,394.35 z M731.421,394.35 C730.056,394.35 728.873,393.167 728.873,391.802 C728.873,390.437 730.056,389.254 731.421,389.254 C732.786,389.254 733.969,390.437 733.969,391.802 C733.969,393.167 732.786,394.35 731.421,394.35 z M744.07,391.802 C744.07,391.074 743.524,390.528 742.796,390.528 C742.068,390.528 741.522,391.074 741.522,391.802 C741.522,392.53 742.068,393.076 742.796,393.076 C743.524,393.076 744.07,392.53 744.07,391.802 z M698.57,391.802 C698.57,391.074 698.024,390.528 697.296,390.528 C696.568,390.528 696.022,391.074 696.022,391.802 C696.022,392.53 696.568,393.076 697.296,393.076 C698.024,393.076 698.57,392.53 698.57,391.802 z M732.695,391.802 C732.695,391.074 732.149,390.528 731.421,390.528 C730.693,390.528 730.147,391.074 730.147,391.802 C730.147,392.53 730.693,393.076 731.421,393.076 C732.149,393.076 732.695,392.53 732.695,391.802 z M720.046,409.547 C723.595,409.547 726.416,406.726 726.416,403.177 C726.416,399.628 723.595,396.807 720.046,396.807 C717.589,396.807 715.405,398.172 714.404,400.265 C713.312,398.172 711.219,396.807 708.671,396.807 C705.122,396.807 702.301,399.628 702.301,403.177 C702.301,406.726 705.122,409.547 708.671,409.547 C711.128,409.547 713.312,408.182 714.313,406.089 C715.405,408.182 717.498,409.547 720.046,409.547 z M720.046,408.273 C717.498,408.273 715.314,406.362 715.041,403.905 C715.041,402.904 715.041,402.722 715.041,402.449 C715.314,399.992 717.498,398.081 720.046,398.081 C722.867,398.081 725.142,400.356 725.142,403.177 C725.142,405.998 722.867,408.273 720.046,408.273 z M708.671,408.273 C705.85,408.273 703.575,405.998 703.575,403.177 C703.575,400.356 705.85,398.081 708.671,398.081 C711.219,398.081 713.403,399.992 713.676,402.449 C713.676,403.177 713.676,403.177 713.676,403.177 C713.676,403.45 713.676,403.632 713.676,403.905 C713.403,406.362 711.219,408.273 708.671,408.273 z M742.796,408.273 C739.975,408.273 737.7,405.998 737.7,403.177 C737.7,400.629 739.611,398.445 742.068,398.172 C742.796,398.172 742.796,398.172 742.796,398.172 C743.069,398.172 743.251,398.172 743.524,398.172 C745.981,398.445 747.892,400.629 747.892,403.177 C747.892,405.998 745.617,408.273 742.796,408.273 z M742.796,406.999 C744.889,406.999 746.618,405.27 746.618,403.177 C746.618,401.084 744.889,399.355 742.796,399.355 C740.703,399.355 738.974,401.084 738.974,403.177 C738.974,405.27 740.703,406.999 742.796,406.999 z M720.046,406.999 C722.139,406.999 723.868,405.27 723.868,403.177 C723.868,401.084 722.139,399.355 720.046,399.355 C717.953,399.355 716.224,401.084 716.224,403.177 C716.224,405.27 717.953,406.999 720.046,406.999 z M708.671,406.999 C710.764,406.999 712.493,405.27 712.493,403.177 C712.493,401.084 710.764,399.355 708.671,399.355 C706.578,399.355 704.849,401.084 704.849,403.177 C704.849,405.27 706.578,406.999 708.671,406.999 z M742.796,405.725 C741.431,405.725 740.248,404.542 740.248,403.177 C740.248,401.812 741.431,400.629 742.796,400.629 C744.161,400.629 745.344,401.812 745.344,403.177 C745.344,404.542 744.161,405.725 742.796,405.725 z M720.046,405.725 C718.681,405.725 717.498,404.542 717.498,403.177 C717.498,401.812 718.681,400.629 720.046,400.629 C721.411,400.629 722.594,401.812 722.594,403.177 C722.594,404.542 721.411,405.725 720.046,405.725 z M708.671,405.725 C707.306,405.725 706.123,404.542 706.123,403.177 C706.123,401.812 707.306,400.629 708.671,400.629 C710.036,400.629 711.219,401.812 711.219,403.177 C711.219,404.542 710.036,405.725 708.671,405.725 z M744.07,403.177 C744.07,402.449 743.524,401.903 742.796,401.903 C742.068,401.903 741.522,402.449 741.522,403.177 C741.522,403.905 742.068,404.451 742.796,404.451 C743.524,404.451 744.07,403.905 744.07,403.177 z M721.32,403.177 C721.32,402.449 720.774,401.903 720.046,401.903 C719.318,401.903 718.772,402.449 718.772,403.177 C718.772,403.905 719.318,404.451 720.046,404.451 C720.774,404.451 721.32,403.905 721.32,403.177 z M709.945,403.177 C709.945,402.449 709.399,401.903 708.671,401.903 C707.943,401.903 707.397,402.449 707.397,403.177 C707.397,403.905 707.943,404.451 708.671,404.451 C709.399,404.451 709.945,403.905 709.945,403.177 z" fill="#1A5297"/>
    <path d="M456.523,360.234 C459.981,360.234 462.165,358.05 462.165,354.592 C462.165,351.134 459.981,348.95 456.523,348.95 C453.065,348.95 450.881,351.134 450.881,354.592 C450.881,358.05 453.065,360.234 456.523,360.234 z M445.148,360.234 C448.606,360.234 450.79,358.05 450.79,354.592 C450.79,351.134 448.606,348.95 445.148,348.95 C441.69,348.95 439.506,351.134 439.506,354.592 C439.506,358.05 441.69,360.234 445.148,360.234 z M433.773,360.234 C437.231,360.234 439.415,358.05 439.415,354.592 C439.415,351.134 437.231,348.95 433.773,348.95 C430.315,348.95 428.131,351.134 428.131,354.592 C428.131,358.05 430.315,360.234 433.773,360.234 z M456.523,357.14 C454.976,357.14 453.975,356.139 453.975,354.592 C453.975,353.045 454.976,352.044 456.523,352.044 C458.07,352.044 459.071,353.045 459.071,354.592 C459.071,356.139 458.07,357.14 456.523,357.14 z M445.148,357.14 C443.601,357.14 442.6,356.139 442.6,354.592 C442.6,353.045 443.601,352.044 445.148,352.044 C446.695,352.044 447.696,353.045 447.696,354.592 C447.696,356.139 446.695,357.14 445.148,357.14 z M433.773,357.14 C432.226,357.14 431.225,356.139 431.225,354.592 C431.225,353.045 432.226,352.044 433.773,352.044 C435.32,352.044 436.321,353.045 436.321,354.592 C436.321,356.139 435.32,357.14 433.773,357.14 z M467.898,371.609 C471.356,371.609 473.54,369.425 473.54,365.967 C473.54,362.509 471.356,360.325 467.898,360.325 C464.44,360.325 462.256,362.509 462.256,365.967 C462.256,369.425 464.44,371.609 467.898,371.609 z M456.523,371.609 C459.981,371.609 462.165,369.425 462.165,365.967 C462.165,362.509 459.981,360.325 456.523,360.325 C453.065,360.325 450.881,362.509 450.881,365.967 C450.881,369.425 453.065,371.609 456.523,371.609 z M467.898,368.515 C466.351,368.515 465.35,367.514 465.35,365.967 C465.35,364.42 466.351,363.419 467.898,363.419 C469.445,363.419 470.446,364.42 470.446,365.967 C470.446,367.514 469.445,368.515 467.898,368.515 z M456.523,368.515 C454.976,368.515 453.975,367.514 453.975,365.967 C453.975,364.42 454.976,363.419 456.523,363.419 C458.07,363.419 459.071,364.42 459.071,365.967 C459.071,367.514 458.07,368.515 456.523,368.515 z M467.898,382.984 C471.356,382.984 473.54,380.8 473.54,377.342 C473.54,373.884 471.356,371.7 467.898,371.7 C464.44,371.7 462.256,373.884 462.256,377.342 C462.256,380.8 464.44,382.984 467.898,382.984 z M456.523,382.984 C459.981,382.984 462.165,380.8 462.165,377.342 C462.165,373.884 459.981,371.7 456.523,371.7 C453.065,371.7 450.881,373.884 450.881,377.342 C450.881,380.8 453.065,382.984 456.523,382.984 z M445.148,382.984 C448.606,382.984 450.79,380.8 450.79,377.342 C450.79,373.884 448.606,371.7 445.148,371.7 C441.69,371.7 439.506,373.884 439.506,377.342 C439.506,380.8 441.69,382.984 445.148,382.984 z M433.773,382.984 C437.231,382.984 439.415,380.8 439.415,377.342 C439.415,373.884 437.231,371.7 433.773,371.7 C430.315,371.7 428.131,373.884 428.131,377.342 C428.131,380.8 430.315,382.984 433.773,382.984 z M467.898,379.89 C466.351,379.89 465.35,378.889 465.35,377.342 C465.35,375.795 466.351,374.794 467.898,374.794 C469.445,374.794 470.446,375.795 470.446,377.342 C470.446,378.889 469.445,379.89 467.898,379.89 z M456.523,379.89 C454.976,379.89 453.975,378.889 453.975,377.342 C453.975,375.795 454.976,374.794 456.523,374.794 C458.07,374.794 459.071,375.795 459.071,377.342 C459.071,378.889 458.07,379.89 456.523,379.89 z M445.148,379.89 C443.601,379.89 442.6,378.889 442.6,377.342 C442.6,375.795 443.601,374.794 445.148,374.794 C446.695,374.794 447.696,375.795 447.696,377.342 C447.696,378.889 446.695,379.89 445.148,379.89 z M433.773,379.89 C432.226,379.89 431.225,378.889 431.225,377.342 C431.225,375.795 432.226,374.794 433.773,374.794 C435.32,374.794 436.321,375.795 436.321,377.342 C436.321,378.889 435.32,379.89 433.773,379.89 z M467.898,394.359 C471.356,394.359 473.54,392.175 473.54,388.717 C473.54,385.259 471.356,383.075 467.898,383.075 C464.44,383.075 462.256,385.259 462.256,388.717 C462.256,392.175 464.44,394.359 467.898,394.359 z M422.398,394.359 C425.856,394.359 428.04,392.175 428.04,388.717 C428.04,385.259 425.856,383.075 422.398,383.075 C418.94,383.075 416.756,385.259 416.756,388.717 C416.756,392.175 418.94,394.359 422.398,394.359 z M456.523,394.359 C459.981,394.359 462.165,392.175 462.165,388.717 C462.165,385.259 459.981,383.075 456.523,383.075 C453.065,383.075 450.881,385.259 450.881,388.717 C450.881,392.175 453.065,394.359 456.523,394.359 z M467.898,391.265 C466.351,391.265 465.35,390.264 465.35,388.717 C465.35,387.17 466.351,386.169 467.898,386.169 C469.445,386.169 470.446,387.17 470.446,388.717 C470.446,390.264 469.445,391.265 467.898,391.265 z M422.398,391.265 C420.851,391.265 419.85,390.264 419.85,388.717 C419.85,387.17 420.851,386.169 422.398,386.169 C423.945,386.169 424.946,387.17 424.946,388.717 C424.946,390.264 423.945,391.265 422.398,391.265 z M456.523,391.265 C454.976,391.265 453.975,390.264 453.975,388.717 C453.975,387.17 454.976,386.169 456.523,386.169 C458.07,386.169 459.071,387.17 459.071,388.717 C459.071,390.264 458.07,391.265 456.523,391.265 z M467.898,405.734 C471.356,405.734 473.54,403.55 473.54,400.092 C473.54,396.634 471.356,394.45 467.898,394.45 C464.44,394.45 462.256,396.634 462.256,400.092 C462.256,403.55 464.44,405.734 467.898,405.734 z M445.148,405.734 C448.606,405.734 450.79,403.55 450.79,400.092 C450.79,396.634 448.606,394.45 445.148,394.45 C441.69,394.45 439.506,396.634 439.506,400.092 C439.506,403.55 441.69,405.734 445.148,405.734 z M433.773,405.734 C437.231,405.734 439.415,403.55 439.415,400.092 C439.415,396.634 437.231,394.45 433.773,394.45 C430.315,394.45 428.131,396.634 428.131,400.092 C428.131,403.55 430.315,405.734 433.773,405.734 z M467.898,402.64 C466.351,402.64 465.35,401.639 465.35,400.092 C465.35,398.545 466.351,397.544 467.898,397.544 C469.445,397.544 470.446,398.545 470.446,400.092 C470.446,401.639 469.445,402.64 467.898,402.64 z M445.148,402.64 C443.601,402.64 442.6,401.639 442.6,400.092 C442.6,398.545 443.601,397.544 445.148,397.544 C446.695,397.544 447.696,398.545 447.696,400.092 C447.696,401.639 446.695,402.64 445.148,402.64 z M433.773,402.64 C432.226,402.64 431.225,401.639 431.225,400.092 C431.225,398.545 432.226,397.544 433.773,397.544 C435.32,397.544 436.321,398.545 436.321,400.092 C436.321,401.639 435.32,402.64 433.773,402.64 z" fill="#98AC1F"/>
    <path d="M455.189,354.988 C456.736,354.988 458.01,353.805 458.01,352.258 C458.01,350.711 456.736,349.437 455.189,349.437 C453.642,349.437 452.459,350.711 452.459,352.258 C452.459,353.805 453.642,354.988 455.189,354.988 z M443.814,354.988 C445.361,354.988 446.635,353.805 446.635,352.258 C446.635,350.711 445.361,349.437 443.814,349.437 C442.267,349.437 441.084,350.711 441.084,352.258 C441.084,353.805 442.267,354.988 443.814,354.988 z M432.439,354.988 C433.986,354.988 435.26,353.805 435.26,352.258 C435.26,350.711 433.986,349.437 432.439,349.437 C430.892,349.437 429.709,350.711 429.709,352.258 C429.709,353.805 430.892,354.988 432.439,354.988 z M466.564,366.363 C468.111,366.363 469.385,365.18 469.385,363.633 C469.385,362.086 468.111,360.812 466.564,360.812 C465.017,360.812 463.834,362.086 463.834,363.633 C463.834,365.18 465.017,366.363 466.564,366.363 z M455.189,366.363 C456.736,366.363 458.01,365.18 458.01,363.633 C458.01,362.086 456.736,360.812 455.189,360.812 C453.642,360.812 452.459,362.086 452.459,363.633 C452.459,365.18 453.642,366.363 455.189,366.363 z M466.564,377.738 C468.111,377.738 469.385,376.555 469.385,375.008 C469.385,373.461 468.111,372.187 466.564,372.187 C465.017,372.187 463.834,373.461 463.834,375.008 C463.834,376.555 465.017,377.738 466.564,377.738 z M455.189,377.738 C456.736,377.738 458.01,376.555 458.01,375.008 C458.01,373.461 456.736,372.187 455.189,372.187 C453.642,372.187 452.459,373.461 452.459,375.008 C452.459,376.555 453.642,377.738 455.189,377.738 z M443.814,377.738 C445.361,377.738 446.635,376.555 446.635,375.008 C446.635,373.461 445.361,372.187 443.814,372.187 C442.267,372.187 441.084,373.461 441.084,375.008 C441.084,376.555 442.267,377.738 443.814,377.738 z M432.439,377.738 C433.986,377.738 435.26,376.555 435.26,375.008 C435.26,373.461 433.986,372.187 432.439,372.187 C430.892,372.187 429.709,373.461 429.709,375.008 C429.709,376.555 430.892,377.738 432.439,377.738 z M466.564,389.113 C468.111,389.113 469.385,387.93 469.385,386.383 C469.385,384.836 468.111,383.562 466.564,383.562 C465.017,383.562 463.834,384.836 463.834,386.383 C463.834,387.93 465.017,389.113 466.564,389.113 z M421.064,389.113 C422.611,389.113 423.885,387.93 423.885,386.383 C423.885,384.836 422.611,383.562 421.064,383.562 C419.517,383.562 418.334,384.836 418.334,386.383 C418.334,387.93 419.517,389.113 421.064,389.113 z M455.189,389.113 C456.736,389.113 458.01,387.93 458.01,386.383 C458.01,384.836 456.736,383.562 455.189,383.562 C453.642,383.562 452.459,384.836 452.459,386.383 C452.459,387.93 453.642,389.113 455.189,389.113 z M466.564,400.488 C468.111,400.488 469.385,399.305 469.385,397.758 C469.385,396.211 468.111,394.937 466.564,394.937 C465.017,394.937 463.834,396.211 463.834,397.758 C463.834,399.305 465.017,400.488 466.564,400.488 z M443.814,400.488 C445.361,400.488 446.635,399.305 446.635,397.758 C446.635,396.211 445.361,394.937 443.814,394.937 C442.267,394.937 441.084,396.211 441.084,397.758 C441.084,399.305 442.267,400.488 443.814,400.488 z M432.439,400.488 C433.986,400.488 435.26,399.305 435.26,397.758 C435.26,396.211 433.986,394.937 432.439,394.937 C430.892,394.937 429.709,396.211 429.709,397.758 C429.709,399.305 430.892,400.488 432.439,400.488 z" fill="#DCFF0A"/>
    <path d="M594.523,358.738 C596.07,358.738 597.344,357.555 597.344,356.008 C597.344,354.461 596.07,353.187 594.523,353.187 C592.976,353.187 591.793,354.461 591.793,356.008 C591.793,357.555 592.976,358.738 594.523,358.738 z M583.148,358.738 C584.695,358.738 585.969,357.555 585.969,356.008 C585.969,354.461 584.695,353.187 583.148,353.187 C581.601,353.187 580.418,354.461 580.418,356.008 C580.418,357.555 581.601,358.738 583.148,358.738 z M571.773,358.738 C573.32,358.738 574.594,357.555 574.594,356.008 C574.594,354.461 573.32,353.187 571.773,353.187 C570.226,353.187 569.043,354.461 569.043,356.008 C569.043,357.555 570.226,358.738 571.773,358.738 z M605.898,370.113 C607.445,370.113 608.719,368.93 608.719,367.383 C608.719,365.836 607.445,364.562 605.898,364.562 C604.351,364.562 603.168,365.836 603.168,367.383 C603.168,368.93 604.351,370.113 605.898,370.113 z M594.523,370.113 C596.07,370.113 597.344,368.93 597.344,367.383 C597.344,365.836 596.07,364.562 594.523,364.562 C592.976,364.562 591.793,365.836 591.793,367.383 C591.793,368.93 592.976,370.113 594.523,370.113 z M605.898,381.488 C607.445,381.488 608.719,380.305 608.719,378.758 C608.719,377.211 607.445,375.937 605.898,375.937 C604.351,375.937 603.168,377.211 603.168,378.758 C603.168,380.305 604.351,381.488 605.898,381.488 z M594.523,381.488 C596.07,381.488 597.344,380.305 597.344,378.758 C597.344,377.211 596.07,375.937 594.523,375.937 C592.976,375.937 591.793,377.211 591.793,378.758 C591.793,380.305 592.976,381.488 594.523,381.488 z M583.148,381.488 C584.695,381.488 585.969,380.305 585.969,378.758 C585.969,377.211 584.695,375.937 583.148,375.937 C581.601,375.937 580.418,377.211 580.418,378.758 C580.418,380.305 581.601,381.488 583.148,381.488 z M571.773,381.488 C573.32,381.488 574.594,380.305 574.594,378.758 C574.594,377.211 573.32,375.937 571.773,375.937 C570.226,375.937 569.043,377.211 569.043,378.758 C569.043,380.305 570.226,381.488 571.773,381.488 z M605.898,392.863 C607.445,392.863 608.719,391.68 608.719,390.133 C608.719,388.586 607.445,387.312 605.898,387.312 C604.351,387.312 603.168,388.586 603.168,390.133 C603.168,391.68 604.351,392.863 605.898,392.863 z M560.398,392.863 C561.945,392.863 563.219,391.68 563.219,390.133 C563.219,388.586 561.945,387.312 560.398,387.312 C558.851,387.312 557.668,388.586 557.668,390.133 C557.668,391.68 558.851,392.863 560.398,392.863 z M594.523,392.863 C596.07,392.863 597.344,391.68 597.344,390.133 C597.344,388.586 596.07,387.312 594.523,387.312 C592.976,387.312 591.793,388.586 591.793,390.133 C591.793,391.68 592.976,392.863 594.523,392.863 z M605.898,404.238 C607.445,404.238 608.719,403.055 608.719,401.508 C608.719,399.961 607.445,398.687 605.898,398.687 C604.351,398.687 603.168,399.961 603.168,401.508 C603.168,403.055 604.351,404.238 605.898,404.238 z M583.148,404.238 C584.695,404.238 585.969,403.055 585.969,401.508 C585.969,399.961 584.695,398.687 583.148,398.687 C581.601,398.687 580.418,399.961 580.418,401.508 C580.418,403.055 581.601,404.238 583.148,404.238 z M571.773,404.238 C573.32,404.238 574.594,403.055 574.594,401.508 C574.594,399.961 573.32,398.687 571.773,398.687 C570.226,398.687 569.043,399.961 569.043,401.508 C569.043,403.055 570.226,404.238 571.773,404.238 z" fill="#DCFF0A"/>
  </g>
</svg>
