<?xml version="1.0" encoding="UTF-8"?>
<!DOCTYPE svg PUBLIC "-//W3C//DTD SVG 1.1//EN" "http://www.w3.org/Graphics/SVG/1.1/DTD/svg11.dtd">
<svg version="1.1" xmlns="http://www.w3.org/2000/svg" xmlns:xlink="http://www.w3.org/1999/xlink" x="0" y="0" width="2230.299" height="743.398" viewBox="0, 0, 278.787, 92.925">
  <g id="Layer_1" transform="translate(-758.685, -151.913)">
    <g>
      <path d="M760.185,159.24 L816.878,159.24 L816.878,238.61 L760.185,238.61 L760.185,159.24 z" fill-opacity="0" stroke="#549FD3" stroke-width="1"/>
      <path d="M760.185,170.579 L816.878,170.579" fill-opacity="0" stroke="#549FD3" stroke-width="1"/>
      <path d="M771.524,159.24 L771.524,238.61" fill-opacity="0" stroke="#549FD3" stroke-width="1"/>
      <path d="M760.185,215.933 L816.878,215.933" fill-opacity="0" stroke="#549FD3" stroke-width="1"/>
      <path d="M760.185,181.917 L816.878,181.917" fill-opacity="0" stroke="#549FD3" stroke-width="1"/>
      <path d="M760.185,204.594 L816.878,204.594" fill-opacity="0" stroke="#549FD3" stroke-width="1"/>
      <path d="M760.185,193.256 L816.878,193.256" fill-opacity="0" stroke="#549FD3" stroke-width="1"/>
      <path d="M760.185,227.272 L816.878,227.272" fill-opacity="0" stroke="#549FD3" stroke-width="1"/>
      <path d="M782.862,159.24 L782.862,238.61" fill-opacity="0" stroke="#549FD3" stroke-width="1"/>
      <path d="M794.201,159.24 L794.201,238.61" fill-opacity="0" stroke="#549FD3" stroke-width="1"/>
      <path d="M805.539,159.24 L805.539,238.61" fill-opacity="0" stroke="#549FD3" stroke-width="1"/>
    </g>
    <g>
      <path d="M828.217,159.24 L884.909,159.24 L884.909,238.61 L828.217,238.61 L828.217,159.24 z" fill-opacity="0" stroke="#549FD3" stroke-width="1"/>
      <path d="M828.217,170.579 L884.909,170.579" fill-opacity="0" stroke="#549FD3" stroke-width="1"/>
      <path d="M839.555,159.24 L839.555,238.61" fill-opacity="0" stroke="#549FD3" stroke-width="1"/>
      <path d="M828.217,215.933 L884.909,215.933" fill-opacity="0" stroke="#549FD3" stroke-width="1"/>
      <path d="M828.217,181.917 L884.909,181.917" fill-opacity="0" stroke="#549FD3" stroke-width="1"/>
      <path d="M828.217,204.594 L884.909,204.594" fill-opacity="0" stroke="#549FD3" stroke-width="1"/>
      <path d="M828.217,193.256 L884.909,193.256" fill-opacity="0" stroke="#549FD3" stroke-width="1"/>
      <path d="M828.217,227.272 L884.909,227.272" fill-opacity="0" stroke="#549FD3" stroke-width="1"/>
      <path d="M850.894,159.24 L850.894,238.61" fill-opacity="0" stroke="#549FD3" stroke-width="1"/>
      <path d="M862.232,159.24 L862.232,238.61" fill-opacity="0" stroke="#549FD3" stroke-width="1"/>
      <path d="M873.571,159.24 L873.571,238.61" fill-opacity="0" stroke="#549FD3" stroke-width="1"/>
    </g>
    <g>
      <path d="M896.248,159.24 L952.941,159.24 L952.941,238.61 L896.248,238.61 L896.248,159.24 z" fill-opacity="0" stroke="#549FD3" stroke-width="1"/>
      <path d="M896.248,170.579 L952.941,170.579" fill-opacity="0" stroke="#549FD3" stroke-width="1"/>
      <path d="M907.587,159.24 L907.587,238.61" fill-opacity="0" stroke="#549FD3" stroke-width="1"/>
      <path d="M896.248,215.933 L952.941,215.933" fill-opacity="0" stroke="#549FD3" stroke-width="1"/>
      <path d="M896.248,181.917 L952.941,181.917" fill-opacity="0" stroke="#549FD3" stroke-width="1"/>
      <path d="M896.248,204.594 L952.941,204.594" fill-opacity="0" stroke="#549FD3" stroke-width="1"/>
      <path d="M896.248,193.256 L952.941,193.256" fill-opacity="0" stroke="#549FD3" stroke-width="1"/>
      <path d="M896.248,227.272 L952.941,227.272" fill-opacity="0" stroke="#549FD3" stroke-width="1"/>
      <path d="M918.925,159.24 L918.925,238.61" fill-opacity="0" stroke="#549FD3" stroke-width="1"/>
      <path d="M930.264,159.24 L930.264,238.61" fill-opacity="0" stroke="#549FD3" stroke-width="1"/>
      <path d="M941.602,159.24 L941.602,238.61" fill-opacity="0" stroke="#549FD3" stroke-width="1"/>
    </g>
    <g>
      <path d="M964.279,159.24 L1020.972,159.24 L1020.972,238.61 L964.279,238.61 L964.279,159.24 z" fill-opacity="0" stroke="#549FD3" stroke-width="1"/>
      <path d="M964.279,170.579 L1020.972,170.579" fill-opacity="0" stroke="#549FD3" stroke-width="1"/>
      <path d="M975.618,159.24 L975.618,238.61" fill-opacity="0" stroke="#549FD3" stroke-width="1"/>
      <path d="M964.279,215.933 L1020.972,215.933" fill-opacity="0" stroke="#549FD3" stroke-width="1"/>
      <path d="M964.279,181.917 L1020.972,181.917" fill-opacity="0" stroke="#549FD3" stroke-width="1"/>
      <path d="M964.279,204.594 L1020.972,204.594" fill-opacity="0" stroke="#549FD3" stroke-width="1"/>
      <path d="M964.279,193.256 L1020.972,193.256" fill-opacity="0" stroke="#549FD3" stroke-width="1"/>
      <path d="M964.279,227.272 L1020.972,227.272" fill-opacity="0" stroke="#549FD3" stroke-width="1"/>
      <path d="M986.957,159.24 L986.957,238.61" fill-opacity="0" stroke="#549FD3" stroke-width="1"/>
      <path d="M998.295,159.24 L998.295,238.61" fill-opacity="0" stroke="#549FD3" stroke-width="1"/>
      <path d="M1009.634,159.24 L1009.634,238.61" fill-opacity="0" stroke="#549FD3" stroke-width="1"/>
    </g>
    <path d="M844.823,170.08 C847.954,170.134 850.448,172.716 850.393,175.847 C850.338,178.978 847.756,181.471 844.626,181.416 C841.495,181.362 839.001,178.78 839.056,175.649 C839.111,172.519 841.693,170.025 844.823,170.08 z" fill="#000000" fill-opacity="0.798"/>
    <path d="M776.742,172.914 C778.307,172.941 779.554,174.21 779.527,175.748 C779.5,177.286 778.21,178.511 776.644,178.483 C775.079,178.456 773.832,177.187 773.859,175.649 C773.886,174.111 775.176,172.887 776.742,172.914 z" fill="#000000" fill-opacity="0.798"/>
    <path d="M856.162,170.08 C859.293,170.134 861.786,172.716 861.731,175.847 C861.677,178.978 859.095,181.471 855.964,181.416 C852.833,181.362 850.34,178.78 850.395,175.649 C850.449,172.519 853.031,170.025 856.162,170.08 z" fill="#000000" fill-opacity="0.798"/>
    <path d="M867.501,170.08 C870.631,170.134 873.125,172.716 873.07,175.847 C873.015,178.978 870.433,181.471 867.303,181.416 C864.172,181.362 861.679,178.78 861.733,175.649 C861.788,172.519 864.37,170.025 867.501,170.08 z" fill="#000000" fill-opacity="0.798"/>
    <path d="M867.501,181.418 C870.631,181.473 873.125,184.055 873.07,187.186 C873.015,190.316 870.433,192.81 867.303,192.755 C864.172,192.7 861.679,190.118 861.733,186.988 C861.788,183.857 864.37,181.364 867.501,181.418 z" fill="#000000" fill-opacity="0.798"/>
    <path d="M878.839,181.418 C881.97,181.473 884.463,184.055 884.409,187.186 C884.354,190.316 881.772,192.81 878.641,192.755 C875.511,192.7 873.017,190.118 873.072,186.988 C873.126,183.857 875.709,181.364 878.839,181.418 z" fill="#000000" fill-opacity="0.798"/>
    <path d="M878.839,192.757 C881.97,192.811 884.463,195.394 884.409,198.524 C884.354,201.655 881.772,204.148 878.641,204.094 C875.511,204.039 873.017,201.457 873.072,198.326 C873.126,195.196 875.709,192.702 878.839,192.757 z" fill="#000000" fill-opacity="0.798"/>
    <path d="M867.501,192.757 C870.631,192.811 873.125,195.394 873.07,198.524 C873.015,201.655 870.433,204.148 867.303,204.094 C864.172,204.039 861.679,201.457 861.733,198.326 C861.788,195.196 864.37,192.702 867.501,192.757 z" fill="#000000" fill-opacity="0.798"/>
    <path d="M856.162,192.757 C859.293,192.811 861.786,195.394 861.731,198.524 C861.677,201.655 859.095,204.148 855.964,204.094 C852.833,204.039 850.34,201.457 850.395,198.326 C850.449,195.196 853.031,192.702 856.162,192.757 z" fill="#000000" fill-opacity="0.798"/>
    <path d="M844.823,192.757 C847.954,192.811 850.448,195.394 850.393,198.524 C850.338,201.655 847.756,204.148 844.626,204.094 C841.495,204.039 839.001,201.457 839.056,198.326 C839.111,195.196 841.693,192.702 844.823,192.757 z" fill="#000000" fill-opacity="0.798"/>
    <path d="M833.485,204.095 C836.615,204.15 839.109,206.732 839.054,209.863 C839,212.993 836.417,215.487 833.287,215.432 C830.156,215.378 827.663,212.795 827.717,209.665 C827.772,206.534 830.354,204.041 833.485,204.095 z" fill="#000000" fill-opacity="0.798"/>
    <path d="M844.823,215.434 C847.954,215.489 850.448,218.071 850.393,221.201 C850.338,224.332 847.756,226.825 844.626,226.771 C841.495,226.716 839.001,224.134 839.056,221.003 C839.111,217.873 841.693,215.379 844.823,215.434 z" fill="#000000" fill-opacity="0.798"/>
    <path d="M856.162,215.434 C859.293,215.489 861.786,218.071 861.731,221.201 C861.677,224.332 859.095,226.825 855.964,226.771 C852.833,226.716 850.34,224.134 850.395,221.003 C850.449,217.873 853.031,215.379 856.162,215.434 z" fill="#000000" fill-opacity="0.798"/>
    <path d="M867.501,204.095 C870.631,204.15 873.125,206.732 873.07,209.863 C873.015,212.993 870.433,215.487 867.303,215.432 C864.172,215.378 861.679,212.795 861.733,209.665 C861.788,206.534 864.37,204.041 867.501,204.095 z" fill="#000000" fill-opacity="0.798"/>
    <path d="M878.839,204.095 C881.97,204.15 884.463,206.732 884.409,209.863 C884.354,212.993 881.772,215.487 878.641,215.432 C875.511,215.378 873.017,212.795 873.072,209.665 C873.126,206.534 875.709,204.041 878.839,204.095 z" fill="#000000" fill-opacity="0.798"/>
    <path d="M878.839,215.434 C881.97,215.489 884.463,218.071 884.409,221.201 C884.354,224.332 881.772,226.825 878.641,226.771 C875.511,226.716 873.017,224.134 873.072,221.003 C873.126,217.873 875.709,215.379 878.839,215.434 z" fill="#000000" fill-opacity="0.798"/>
    <path d="M788.08,172.914 C789.645,172.941 790.893,174.21 790.866,175.748 C790.839,177.286 789.548,178.511 787.983,178.483 C786.418,178.456 785.17,177.187 785.197,175.649 C785.224,174.111 786.515,172.887 788.08,172.914 z" fill="#000000" fill-opacity="0.798"/>
    <path d="M799.419,172.914 C800.984,172.941 802.231,174.21 802.204,175.748 C802.177,177.286 800.887,178.511 799.321,178.483 C797.756,178.456 796.509,177.187 796.536,175.649 C796.563,174.111 797.853,172.887 799.419,172.914 z" fill="#000000" fill-opacity="0.798"/>
    <path d="M799.419,184.252 C800.984,184.28 802.231,185.549 802.204,187.087 C802.177,188.625 800.887,189.849 799.321,189.822 C797.756,189.795 796.509,188.526 796.536,186.988 C796.563,185.45 797.853,184.225 799.419,184.252 z" fill="#000000" fill-opacity="0.798"/>
    <path d="M810.757,184.43 C812.323,184.457 813.57,185.726 813.543,187.264 C813.516,188.802 812.225,190.027 810.66,190 C809.095,189.972 807.848,188.703 807.874,187.165 C807.901,185.627 809.192,184.403 810.757,184.43 z" fill="#000000" fill-opacity="0.798"/>
    <path d="M799.419,195.591 C800.984,195.618 802.231,196.887 802.204,198.425 C802.177,199.963 800.887,201.188 799.321,201.16 C797.756,201.133 796.509,199.864 796.536,198.326 C796.563,196.788 797.853,195.564 799.419,195.591 z" fill="#000000" fill-opacity="0.798"/>
    <path d="M810.757,195.591 C812.323,195.618 813.57,196.887 813.543,198.425 C813.516,199.963 812.225,201.188 810.66,201.16 C809.095,201.133 807.848,199.864 807.874,198.326 C807.901,196.788 809.192,195.564 810.757,195.591 z" fill="#000000" fill-opacity="0.798"/>
    <path d="M765.403,206.93 C766.968,206.957 768.215,208.226 768.189,209.764 C768.162,211.302 766.871,212.526 765.306,212.499 C763.74,212.472 762.493,211.203 762.52,209.665 C762.547,208.127 763.838,206.902 765.403,206.93 z" fill="#000000" fill-opacity="0.798"/>
    <path d="M776.742,218.268 C778.307,218.295 779.554,219.564 779.527,221.102 C779.5,222.64 778.21,223.865 776.644,223.838 C775.079,223.81 773.832,222.541 773.859,221.003 C773.886,219.465 775.176,218.241 776.742,218.268 z" fill="#000000" fill-opacity="0.798"/>
    <path d="M799.419,206.93 C800.984,206.957 802.231,208.226 802.204,209.764 C802.177,211.302 800.887,212.526 799.321,212.499 C797.756,212.472 796.509,211.203 796.536,209.665 C796.563,208.127 797.853,206.902 799.419,206.93 z" fill="#000000" fill-opacity="0.798"/>
    <path d="M776.742,195.591 C778.307,195.618 779.554,196.887 779.527,198.425 C779.5,199.963 778.21,201.188 776.644,201.16 C775.079,201.133 773.832,199.864 773.859,198.326 C773.886,196.788 775.176,195.564 776.742,195.591 z" fill="#000000" fill-opacity="0.798"/>
    <path d="M788.08,195.591 C789.645,195.618 790.893,196.887 790.866,198.425 C790.839,199.963 789.548,201.188 787.983,201.16 C786.418,201.133 785.17,199.864 785.197,198.326 C785.224,196.788 786.515,195.564 788.08,195.591 z" fill="#000000" fill-opacity="0.798"/>
    <path d="M788.08,218.268 C789.645,218.295 790.893,219.564 790.866,221.102 C790.839,222.64 789.548,223.865 787.983,223.838 C786.418,223.81 785.17,222.541 785.197,221.003 C785.224,219.465 786.515,218.241 788.08,218.268 z" fill="#000000" fill-opacity="0.798"/>
    <path d="M810.757,218.268 C812.323,218.295 813.57,219.564 813.543,221.102 C813.516,222.64 812.225,223.865 810.66,223.838 C809.095,223.81 807.848,222.541 807.874,221.003 C807.901,219.465 809.192,218.241 810.757,218.268 z" fill="#000000" fill-opacity="0.798"/>
    <path d="M810.757,206.93 C812.323,206.957 813.57,208.226 813.543,209.764 C813.516,211.302 812.225,212.526 810.66,212.499 C809.095,212.472 807.848,211.203 807.874,209.665 C807.901,208.127 809.192,206.902 810.757,206.93 z" fill="#000000" fill-opacity="0.798"/>
    <g>
      <path d="M913.305,173.414 C914.87,173.441 916.117,174.71 916.09,176.248 C916.063,177.786 914.773,179.011 913.207,178.983 C911.642,178.956 910.395,177.687 910.422,176.149 C910.449,174.611 911.739,173.387 913.305,173.414 z" fill="#000000"/>
      <path d="M913.305,173.414 C914.87,173.441 916.117,174.71 916.09,176.248 C916.063,177.786 914.773,179.011 913.207,178.983 C911.642,178.956 910.395,177.687 910.422,176.149 C910.449,174.611 911.739,173.387 913.305,173.414 z" fill-opacity="0" stroke="#000000" stroke-width="11"/>
    </g>
    <g>
      <path d="M924.643,173.414 C926.208,173.441 927.456,174.71 927.429,176.248 C927.402,177.786 926.111,179.011 924.546,178.983 C922.981,178.956 921.733,177.687 921.76,176.149 C921.787,174.611 923.078,173.387 924.643,173.414 z" fill="#000000"/>
      <path d="M924.643,173.414 C926.208,173.441 927.456,174.71 927.429,176.248 C927.402,177.786 926.111,179.011 924.546,178.983 C922.981,178.956 921.733,177.687 921.76,176.149 C921.787,174.611 923.078,173.387 924.643,173.414 z" fill-opacity="0" stroke="#000000" stroke-width="11"/>
    </g>
    <g>
      <path d="M935.982,173.414 C937.547,173.441 938.794,174.71 938.767,176.248 C938.74,177.786 937.45,179.011 935.884,178.983 C934.319,178.956 933.072,177.687 933.099,176.149 C933.126,174.611 934.416,173.387 935.982,173.414 z" fill="#000000"/>
      <path d="M935.982,173.414 C937.547,173.441 938.794,174.71 938.767,176.248 C938.74,177.786 937.45,179.011 935.884,178.983 C934.319,178.956 933.072,177.687 933.099,176.149 C933.126,174.611 934.416,173.387 935.982,173.414 z" fill-opacity="0" stroke="#000000" stroke-width="11"/>
    </g>
    <g>
      <path d="M935.982,184.752 C937.547,184.78 938.794,186.049 938.767,187.587 C938.74,189.125 937.45,190.349 935.884,190.322 C934.319,190.295 933.072,189.026 933.099,187.488 C933.126,185.95 934.416,184.725 935.982,184.752 z" fill="#000000"/>
      <path d="M935.982,184.752 C937.547,184.78 938.794,186.049 938.767,187.587 C938.74,189.125 937.45,190.349 935.884,190.322 C934.319,190.295 933.072,189.026 933.099,187.488 C933.126,185.95 934.416,184.725 935.982,184.752 z" fill-opacity="0" stroke="#000000" stroke-width="11"/>
    </g>
    <g>
      <path d="M947.32,184.93 C948.886,184.957 950.133,186.226 950.106,187.764 C950.079,189.302 948.788,190.527 947.223,190.5 C945.658,190.472 944.411,189.203 944.437,187.665 C944.464,186.127 945.755,184.903 947.32,184.93 z" fill="#000000"/>
      <path d="M947.32,184.93 C948.886,184.957 950.133,186.226 950.106,187.764 C950.079,189.302 948.788,190.527 947.223,190.5 C945.658,190.472 944.411,189.203 944.437,187.665 C944.464,186.127 945.755,184.903 947.32,184.93 z" fill-opacity="0" stroke="#000000" stroke-width="11"/>
    </g>
    <g>
      <path d="M935.982,196.091 C937.547,196.118 938.794,197.387 938.767,198.925 C938.74,200.463 937.45,201.688 935.884,201.66 C934.319,201.633 933.072,200.364 933.099,198.826 C933.126,197.288 934.416,196.064 935.982,196.091 z" fill="#000000"/>
      <path d="M935.982,196.091 C937.547,196.118 938.794,197.387 938.767,198.925 C938.74,200.463 937.45,201.688 935.884,201.66 C934.319,201.633 933.072,200.364 933.099,198.826 C933.126,197.288 934.416,196.064 935.982,196.091 z" fill-opacity="0" stroke="#000000" stroke-width="11"/>
    </g>
    <g>
      <path d="M947.32,196.091 C948.886,196.118 950.133,197.387 950.106,198.925 C950.079,200.463 948.788,201.688 947.223,201.66 C945.658,201.633 944.411,200.364 944.437,198.826 C944.464,197.288 945.755,196.064 947.32,196.091 z" fill="#000000"/>
      <path d="M947.32,196.091 C948.886,196.118 950.133,197.387 950.106,198.925 C950.079,200.463 948.788,201.688 947.223,201.66 C945.658,201.633 944.411,200.364 944.437,198.826 C944.464,197.288 945.755,196.064 947.32,196.091 z" fill-opacity="0" stroke="#000000" stroke-width="11"/>
    </g>
    <g>
      <path d="M901.966,207.43 C903.531,207.457 904.778,208.726 904.752,210.264 C904.725,211.802 903.434,213.026 901.869,212.999 C900.303,212.972 899.056,211.703 899.083,210.165 C899.11,208.627 900.401,207.402 901.966,207.43 z" fill="#000000"/>
      <path d="M901.966,207.43 C903.531,207.457 904.778,208.726 904.752,210.264 C904.725,211.802 903.434,213.026 901.869,212.999 C900.303,212.972 899.056,211.703 899.083,210.165 C899.11,208.627 900.401,207.402 901.966,207.43 z" fill-opacity="0" stroke="#000000" stroke-width="11"/>
    </g>
    <g>
      <path d="M913.305,218.768 C914.87,218.795 916.117,220.064 916.09,221.602 C916.063,223.14 914.773,224.365 913.207,224.338 C911.642,224.31 910.395,223.041 910.422,221.503 C910.449,219.965 911.739,218.741 913.305,218.768 z" fill="#000000"/>
      <path d="M913.305,218.768 C914.87,218.795 916.117,220.064 916.09,221.602 C916.063,223.14 914.773,224.365 913.207,224.338 C911.642,224.31 910.395,223.041 910.422,221.503 C910.449,219.965 911.739,218.741 913.305,218.768 z" fill-opacity="0" stroke="#000000" stroke-width="11"/>
    </g>
    <g>
      <path d="M935.982,207.43 C937.547,207.457 938.794,208.726 938.767,210.264 C938.74,211.802 937.45,213.026 935.884,212.999 C934.319,212.972 933.072,211.703 933.099,210.165 C933.126,208.627 934.416,207.402 935.982,207.43 z" fill="#000000"/>
      <path d="M935.982,207.43 C937.547,207.457 938.794,208.726 938.767,210.264 C938.74,211.802 937.45,213.026 935.884,212.999 C934.319,212.972 933.072,211.703 933.099,210.165 C933.126,208.627 934.416,207.402 935.982,207.43 z" fill-opacity="0" stroke="#000000" stroke-width="11"/>
    </g>
    <g>
      <path d="M913.305,196.091 C914.87,196.118 916.117,197.387 916.09,198.925 C916.063,200.463 914.773,201.688 913.207,201.66 C911.642,201.633 910.395,200.364 910.422,198.826 C910.449,197.288 911.739,196.064 913.305,196.091 z" fill="#000000"/>
      <path d="M913.305,196.091 C914.87,196.118 916.117,197.387 916.09,198.925 C916.063,200.463 914.773,201.688 913.207,201.66 C911.642,201.633 910.395,200.364 910.422,198.826 C910.449,197.288 911.739,196.064 913.305,196.091 z" fill-opacity="0" stroke="#000000" stroke-width="11"/>
    </g>
    <g>
      <path d="M924.643,196.091 C926.208,196.118 927.456,197.387 927.429,198.925 C927.402,200.463 926.111,201.688 924.546,201.66 C922.981,201.633 921.733,200.364 921.76,198.826 C921.787,197.288 923.078,196.064 924.643,196.091 z" fill="#000000"/>
      <path d="M924.643,196.091 C926.208,196.118 927.456,197.387 927.429,198.925 C927.402,200.463 926.111,201.688 924.546,201.66 C922.981,201.633 921.733,200.364 921.76,198.826 C921.787,197.288 923.078,196.064 924.643,196.091 z" fill-opacity="0" stroke="#000000" stroke-width="11"/>
    </g>
    <g>
      <path d="M924.643,218.768 C926.208,218.795 927.456,220.064 927.429,221.602 C927.402,223.14 926.111,224.365 924.546,224.338 C922.981,224.31 921.733,223.041 921.76,221.503 C921.787,219.965 923.078,218.741 924.643,218.768 z" fill="#000000"/>
      <path d="M924.643,218.768 C926.208,218.795 927.456,220.064 927.429,221.602 C927.402,223.14 926.111,224.365 924.546,224.338 C922.981,224.31 921.733,223.041 921.76,221.503 C921.787,219.965 923.078,218.741 924.643,218.768 z" fill-opacity="0" stroke="#000000" stroke-width="11"/>
    </g>
    <g>
      <path d="M947.32,218.768 C948.886,218.795 950.133,220.064 950.106,221.602 C950.079,223.14 948.788,224.365 947.223,224.338 C945.658,224.31 944.411,223.041 944.437,221.503 C944.464,219.965 945.755,218.741 947.32,218.768 z" fill="#000000"/>
      <path d="M947.32,218.768 C948.886,218.795 950.133,220.064 950.106,221.602 C950.079,223.14 948.788,224.365 947.223,224.338 C945.658,224.31 944.411,223.041 944.437,221.503 C944.464,219.965 945.755,218.741 947.32,218.768 z" fill-opacity="0" stroke="#000000" stroke-width="11"/>
    </g>
    <g>
      <path d="M947.32,207.43 C948.886,207.457 950.133,208.726 950.106,210.264 C950.079,211.802 948.788,213.026 947.223,212.999 C945.658,212.972 944.411,211.703 944.437,210.165 C944.464,208.627 945.755,207.402 947.32,207.43 z" fill="#000000"/>
      <path d="M947.32,207.43 C948.886,207.457 950.133,208.726 950.106,210.264 C950.079,211.802 948.788,213.026 947.223,212.999 C945.658,212.972 944.411,211.703 944.437,210.165 C944.464,208.627 945.755,207.402 947.32,207.43 z" fill-opacity="0" stroke="#000000" stroke-width="11"/>
    </g>
    <g>
      <path d="M981.386,170.58 C984.517,170.634 987.011,173.216 986.956,176.347 C986.901,179.478 984.319,181.971 981.189,181.916 C978.058,181.862 975.564,179.28 975.619,176.149 C975.674,173.019 978.256,170.525 981.386,170.58 z" fill="#000000" fill-opacity="0.798"/>
      <path d="M981.386,170.58 C984.517,170.634 987.011,173.216 986.956,176.347 C986.901,179.478 984.319,181.971 981.189,181.916 C978.058,181.862 975.564,179.28 975.619,176.149 C975.674,173.019 978.256,170.525 981.386,170.58 z" fill-opacity="0" stroke="#000000" stroke-width="9"/>
    </g>
    <g>
      <path d="M992.725,170.58 C995.856,170.634 998.349,173.216 998.294,176.347 C998.24,179.478 995.658,181.971 992.527,181.916 C989.396,181.862 986.903,179.28 986.958,176.149 C987.012,173.019 989.594,170.525 992.725,170.58 z" fill="#000000" fill-opacity="0.798"/>
      <path d="M992.725,170.58 C995.856,170.634 998.349,173.216 998.294,176.347 C998.24,179.478 995.658,181.971 992.527,181.916 C989.396,181.862 986.903,179.28 986.958,176.149 C987.012,173.019 989.594,170.525 992.725,170.58 z" fill-opacity="0" stroke="#000000" stroke-width="9"/>
    </g>
    <g>
      <path d="M1004.064,170.58 C1007.194,170.634 1009.688,173.216 1009.633,176.347 C1009.578,179.478 1006.996,181.971 1003.866,181.916 C1000.735,181.862 998.242,179.28 998.296,176.149 C998.351,173.019 1000.933,170.525 1004.064,170.58 z" fill="#000000" fill-opacity="0.798"/>
      <path d="M1004.064,170.58 C1007.194,170.634 1009.688,173.216 1009.633,176.347 C1009.578,179.478 1006.996,181.971 1003.866,181.916 C1000.735,181.862 998.242,179.28 998.296,176.149 C998.351,173.019 1000.933,170.525 1004.064,170.58 z" fill-opacity="0" stroke="#000000" stroke-width="9"/>
    </g>
    <g>
      <path d="M1004.064,181.918 C1007.194,181.973 1009.688,184.555 1009.633,187.686 C1009.578,190.816 1006.996,193.31 1003.866,193.255 C1000.735,193.2 998.242,190.618 998.296,187.488 C998.351,184.357 1000.933,181.864 1004.064,181.918 z" fill="#000000" fill-opacity="0.798"/>
      <path d="M1004.064,181.918 C1007.194,181.973 1009.688,184.555 1009.633,187.686 C1009.578,190.816 1006.996,193.31 1003.866,193.255 C1000.735,193.2 998.242,190.618 998.296,187.488 C998.351,184.357 1000.933,181.864 1004.064,181.918 z" fill-opacity="0" stroke="#000000" stroke-width="9"/>
    </g>
    <g>
      <path d="M1015.402,181.918 C1018.533,181.973 1021.026,184.555 1020.972,187.686 C1020.917,190.816 1018.335,193.31 1015.204,193.255 C1012.074,193.2 1009.58,190.618 1009.635,187.488 C1009.689,184.357 1012.272,181.864 1015.402,181.918 z" fill="#000000" fill-opacity="0.798"/>
      <path d="M1015.402,181.918 C1018.533,181.973 1021.026,184.555 1020.972,187.686 C1020.917,190.816 1018.335,193.31 1015.204,193.255 C1012.074,193.2 1009.58,190.618 1009.635,187.488 C1009.689,184.357 1012.272,181.864 1015.402,181.918 z" fill-opacity="0" stroke="#000000" stroke-width="9"/>
    </g>
    <g>
      <path d="M1015.402,193.257 C1018.533,193.311 1021.026,195.894 1020.972,199.024 C1020.917,202.155 1018.335,204.648 1015.204,204.594 C1012.074,204.539 1009.58,201.957 1009.635,198.826 C1009.689,195.696 1012.272,193.202 1015.402,193.257 z" fill="#000000" fill-opacity="0.798"/>
      <path d="M1015.402,193.257 C1018.533,193.311 1021.026,195.894 1020.972,199.024 C1020.917,202.155 1018.335,204.648 1015.204,204.594 C1012.074,204.539 1009.58,201.957 1009.635,198.826 C1009.689,195.696 1012.272,193.202 1015.402,193.257 z" fill-opacity="0" stroke="#000000" stroke-width="9"/>
    </g>
    <g>
      <path d="M1004.064,193.257 C1007.194,193.311 1009.688,195.894 1009.633,199.024 C1009.578,202.155 1006.996,204.648 1003.866,204.594 C1000.735,204.539 998.242,201.957 998.296,198.826 C998.351,195.696 1000.933,193.202 1004.064,193.257 z" fill="#000000" fill-opacity="0.798"/>
      <path d="M1004.064,193.257 C1007.194,193.311 1009.688,195.894 1009.633,199.024 C1009.578,202.155 1006.996,204.648 1003.866,204.594 C1000.735,204.539 998.242,201.957 998.296,198.826 C998.351,195.696 1000.933,193.202 1004.064,193.257 z" fill-opacity="0" stroke="#000000" stroke-width="9"/>
    </g>
    <g>
      <path d="M992.725,193.257 C995.856,193.311 998.349,195.894 998.294,199.024 C998.24,202.155 995.658,204.648 992.527,204.594 C989.396,204.539 986.903,201.957 986.958,198.826 C987.012,195.696 989.594,193.202 992.725,193.257 z" fill="#000000" fill-opacity="0.798"/>
      <path d="M992.725,193.257 C995.856,193.311 998.349,195.894 998.294,199.024 C998.24,202.155 995.658,204.648 992.527,204.594 C989.396,204.539 986.903,201.957 986.958,198.826 C987.012,195.696 989.594,193.202 992.725,193.257 z" fill-opacity="0" stroke="#000000" stroke-width="9"/>
    </g>
    <g>
      <path d="M981.386,193.257 C984.517,193.311 987.011,195.894 986.956,199.024 C986.901,202.155 984.319,204.648 981.189,204.594 C978.058,204.539 975.564,201.957 975.619,198.826 C975.674,195.696 978.256,193.202 981.386,193.257 z" fill="#000000" fill-opacity="0.798"/>
      <path d="M981.386,193.257 C984.517,193.311 987.011,195.894 986.956,199.024 C986.901,202.155 984.319,204.648 981.189,204.594 C978.058,204.539 975.564,201.957 975.619,198.826 C975.674,195.696 978.256,193.202 981.386,193.257 z" fill-opacity="0" stroke="#000000" stroke-width="9"/>
    </g>
    <g>
      <path d="M970.048,204.595 C973.178,204.65 975.672,207.232 975.617,210.363 C975.563,213.493 972.98,215.987 969.85,215.932 C966.719,215.878 964.226,213.295 964.28,210.165 C964.335,207.034 966.917,204.541 970.048,204.595 z" fill="#000000" fill-opacity="0.798"/>
      <path d="M970.048,204.595 C973.178,204.65 975.672,207.232 975.617,210.363 C975.563,213.493 972.98,215.987 969.85,215.932 C966.719,215.878 964.226,213.295 964.28,210.165 C964.335,207.034 966.917,204.541 970.048,204.595 z" fill-opacity="0" stroke="#000000" stroke-width="9"/>
    </g>
    <g>
      <path d="M981.386,215.934 C984.517,215.989 987.011,218.571 986.956,221.701 C986.901,224.832 984.319,227.325 981.189,227.271 C978.058,227.216 975.564,224.634 975.619,221.503 C975.674,218.373 978.256,215.879 981.386,215.934 z" fill="#000000" fill-opacity="0.798"/>
      <path d="M981.386,215.934 C984.517,215.989 987.011,218.571 986.956,221.701 C986.901,224.832 984.319,227.325 981.189,227.271 C978.058,227.216 975.564,224.634 975.619,221.503 C975.674,218.373 978.256,215.879 981.386,215.934 z" fill-opacity="0" stroke="#000000" stroke-width="9"/>
    </g>
    <g>
      <path d="M992.725,215.934 C995.856,215.989 998.349,218.571 998.294,221.701 C998.24,224.832 995.658,227.325 992.527,227.271 C989.396,227.216 986.903,224.634 986.958,221.503 C987.012,218.373 989.594,215.879 992.725,215.934 z" fill="#000000" fill-opacity="0.798"/>
      <path d="M992.725,215.934 C995.856,215.989 998.349,218.571 998.294,221.701 C998.24,224.832 995.658,227.325 992.527,227.271 C989.396,227.216 986.903,224.634 986.958,221.503 C987.012,218.373 989.594,215.879 992.725,215.934 z" fill-opacity="0" stroke="#000000" stroke-width="9"/>
    </g>
    <g>
      <path d="M1004.064,204.595 C1007.194,204.65 1009.688,207.232 1009.633,210.363 C1009.578,213.493 1006.996,215.987 1003.866,215.932 C1000.735,215.878 998.242,213.295 998.296,210.165 C998.351,207.034 1000.933,204.541 1004.064,204.595 z" fill="#000000" fill-opacity="0.798"/>
      <path d="M1004.064,204.595 C1007.194,204.65 1009.688,207.232 1009.633,210.363 C1009.578,213.493 1006.996,215.987 1003.866,215.932 C1000.735,215.878 998.242,213.295 998.296,210.165 C998.351,207.034 1000.933,204.541 1004.064,204.595 z" fill-opacity="0" stroke="#000000" stroke-width="9"/>
    </g>
    <g>
      <path d="M1015.402,204.595 C1018.533,204.65 1021.026,207.232 1020.972,210.363 C1020.917,213.493 1018.335,215.987 1015.204,215.932 C1012.074,215.878 1009.58,213.295 1009.635,210.165 C1009.689,207.034 1012.272,204.541 1015.402,204.595 z" fill="#000000" fill-opacity="0.798"/>
      <path d="M1015.402,204.595 C1018.533,204.65 1021.026,207.232 1020.972,210.363 C1020.917,213.493 1018.335,215.987 1015.204,215.932 C1012.074,215.878 1009.58,213.295 1009.635,210.165 C1009.689,207.034 1012.272,204.541 1015.402,204.595 z" fill-opacity="0" stroke="#000000" stroke-width="9"/>
    </g>
    <g>
      <path d="M1015.402,215.934 C1018.533,215.989 1021.026,218.571 1020.972,221.701 C1020.917,224.832 1018.335,227.325 1015.204,227.271 C1012.074,227.216 1009.58,224.634 1009.635,221.503 C1009.689,218.373 1012.272,215.879 1015.402,215.934 z" fill="#000000" fill-opacity="0.798"/>
      <path d="M1015.402,215.934 C1018.533,215.989 1021.026,218.571 1020.972,221.701 C1020.917,224.832 1018.335,227.325 1015.204,227.271 C1012.074,227.216 1009.58,224.634 1009.635,221.503 C1009.689,218.373 1012.272,215.879 1015.402,215.934 z" fill-opacity="0" stroke="#000000" stroke-width="9"/>
    </g>
  </g>
</svg>
