<?xml version="1.0" encoding="UTF-8"?>
<!DOCTYPE svg PUBLIC "-//W3C//DTD SVG 1.1//EN" "http://www.w3.org/Graphics/SVG/1.1/DTD/svg11.dtd">
<svg version="1.1" xmlns="http://www.w3.org/2000/svg" xmlns:xlink="http://www.w3.org/1999/xlink" x="0" y="0" width="8409.196" height="2603.844" viewBox="0, 0, 2102.299, 650.961">
  <g id="Layer_1">
    <g>
      <path d="M12,12 L465.545,12 L465.545,646.961 L12,646.961 L12,12 z" fill-opacity="0" stroke="#549FD3" stroke-width="8"/>
      <path d="M12,102.712 L465.545,102.712" fill-opacity="0" stroke="#549FD3" stroke-width="8"/>
      <path d="M102.712,12 L102.712,646.961" fill-opacity="0" stroke="#549FD3" stroke-width="8"/>
      <path d="M12,465.545 L465.545,465.545" fill-opacity="0" stroke="#549FD3" stroke-width="8"/>
      <path d="M12,193.416 L465.545,193.416" fill-opacity="0" stroke="#549FD3" stroke-width="8"/>
      <path d="M12,374.833 L465.545,374.833" fill-opacity="0" stroke="#549FD3" stroke-width="8"/>
      <path d="M12,284.128 L465.545,284.128" fill-opacity="0" stroke="#549FD3" stroke-width="8"/>
      <path d="M12,556.257 L465.545,556.257" fill-opacity="0" stroke="#549FD3" stroke-width="8"/>
      <path d="M193.416,12 L193.416,646.961" fill-opacity="0" stroke="#549FD3" stroke-width="8"/>
      <path d="M284.128,12 L284.128,646.961" fill-opacity="0" stroke="#549FD3" stroke-width="8"/>
      <path d="M374.841,12 L374.841,646.961" fill-opacity="0" stroke="#549FD3" stroke-width="8"/>
    </g>
    <g>
      <path d="M556.257,12 L1009.801,12 L1009.801,646.961 L556.257,646.961 L556.257,12 z" fill-opacity="0" stroke="#549FD3" stroke-width="8"/>
      <path d="M556.257,102.712 L1009.801,102.712" fill-opacity="0" stroke="#549FD3" stroke-width="8"/>
      <path d="M646.961,12 L646.961,646.961" fill-opacity="0" stroke="#549FD3" stroke-width="8"/>
      <path d="M556.257,465.545 L1009.801,465.545" fill-opacity="0" stroke="#549FD3" stroke-width="8"/>
      <path d="M556.257,193.416 L1009.801,193.416" fill-opacity="0" stroke="#549FD3" stroke-width="8"/>
      <path d="M556.257,374.833 L1009.801,374.833" fill-opacity="0" stroke="#549FD3" stroke-width="8"/>
      <path d="M556.257,284.128 L1009.801,284.128" fill-opacity="0" stroke="#549FD3" stroke-width="8"/>
      <path d="M556.257,556.257 L1009.801,556.257" fill-opacity="0" stroke="#549FD3" stroke-width="8"/>
      <path d="M737.673,12 L737.673,646.961" fill-opacity="0" stroke="#549FD3" stroke-width="8"/>
      <path d="M828.377,12 L828.377,646.961" fill-opacity="0" stroke="#549FD3" stroke-width="8"/>
      <path d="M919.089,12 L919.089,646.961" fill-opacity="0" stroke="#549FD3" stroke-width="8"/>
    </g>
    <g>
      <path d="M1100.505,12 L1554.05,12 L1554.05,646.961 L1100.505,646.961 L1100.505,12 z" fill-opacity="0" stroke="#549FD3" stroke-width="8"/>
      <path d="M1100.505,102.712 L1554.05,102.712" fill-opacity="0" stroke="#549FD3" stroke-width="8"/>
      <path d="M1191.218,12 L1191.218,646.961" fill-opacity="0" stroke="#549FD3" stroke-width="8"/>
      <path d="M1100.505,465.545 L1554.05,465.545" fill-opacity="0" stroke="#549FD3" stroke-width="8"/>
      <path d="M1100.505,193.416 L1554.05,193.416" fill-opacity="0" stroke="#549FD3" stroke-width="8"/>
      <path d="M1100.505,374.833 L1554.05,374.833" fill-opacity="0" stroke="#549FD3" stroke-width="8"/>
      <path d="M1100.505,284.128 L1554.05,284.128" fill-opacity="0" stroke="#549FD3" stroke-width="8"/>
      <path d="M1100.505,556.257 L1554.05,556.257" fill-opacity="0" stroke="#549FD3" stroke-width="8"/>
      <path d="M1281.922,12 L1281.922,646.961" fill-opacity="0" stroke="#549FD3" stroke-width="8"/>
      <path d="M1372.634,12 L1372.634,646.961" fill-opacity="0" stroke="#549FD3" stroke-width="8"/>
      <path d="M1463.338,12 L1463.338,646.961" fill-opacity="0" stroke="#549FD3" stroke-width="8"/>
    </g>
    <g>
      <path d="M1644.762,12 L2098.307,12 L2098.307,646.961 L1644.762,646.961 L1644.762,12 z" fill-opacity="0" stroke="#549FD3" stroke-width="8"/>
      <path d="M1644.762,102.712 L2098.307,102.712" fill-opacity="0" stroke="#549FD3" stroke-width="8"/>
      <path d="M1735.467,12 L1735.467,646.961" fill-opacity="0" stroke="#549FD3" stroke-width="8"/>
      <path d="M1644.762,465.545 L2098.307,465.545" fill-opacity="0" stroke="#549FD3" stroke-width="8"/>
      <path d="M1644.762,193.416 L2098.307,193.416" fill-opacity="0" stroke="#549FD3" stroke-width="8"/>
      <path d="M1644.762,374.833 L2098.307,374.833" fill-opacity="0" stroke="#549FD3" stroke-width="8"/>
      <path d="M1644.762,284.128 L2098.307,284.128" fill-opacity="0" stroke="#549FD3" stroke-width="8"/>
      <path d="M1644.762,556.257 L2098.307,556.257" fill-opacity="0" stroke="#549FD3" stroke-width="8"/>
      <path d="M1826.179,12 L1826.179,646.961" fill-opacity="0" stroke="#549FD3" stroke-width="8"/>
      <path d="M1916.883,12 L1916.883,646.961" fill-opacity="0" stroke="#549FD3" stroke-width="8"/>
      <path d="M2007.595,12 L2007.595,646.961" fill-opacity="0" stroke="#549FD3" stroke-width="8"/>
    </g>
    <path d="M56.352,555.257 C31.304,555.257 11,534.945 11,509.897 C11,484.849 31.304,464.545 56.352,464.545 C81.408,464.545 101.712,484.849 101.712,509.897 C101.712,534.945 81.408,555.257 56.352,555.257 z" fill="#000000" fill-opacity="0.798"/>
    <path d="M57.936,464.521 C32.904,465.393 11.904,445.809 11.032,420.777 C10.152,395.737 29.736,374.737 54.776,373.865 C79.808,372.993 100.808,392.577 101.68,417.609 C102.56,442.641 82.968,463.641 57.936,464.521 z" fill="#000000" fill-opacity="0.798"/>
    <path d="M57.144,283.136 C82.192,283.568 102.144,304.232 101.704,329.273 C101.264,354.321 80.608,374.265 55.56,373.833 C30.52,373.393 10.568,352.737 11.008,327.689 C11.448,302.648 32.104,282.696 57.144,283.136 z" fill="#000000" fill-opacity="0.798"/>
    <path d="M57.144,192.424 C82.192,192.864 102.144,213.52 101.704,238.568 C101.264,263.608 80.608,283.56 55.56,283.12 C30.52,282.68 10.568,262.024 11.008,236.984 C11.448,211.936 32.104,191.992 57.144,192.424 z" fill="#000000" fill-opacity="0.798"/>
    <path d="M57.144,101.72 C82.192,102.152 102.144,122.808 101.704,147.856 C101.264,172.896 80.608,192.848 55.56,192.408 C30.52,191.976 10.568,171.32 11.008,146.272 C11.448,121.224 32.104,101.28 57.144,101.72 z" fill="#000000" fill-opacity="0.798"/>
    <path d="M419.193,555.257 C394.145,555.257 373.833,534.945 373.833,509.897 C373.833,484.849 394.145,464.545 419.193,464.545 C444.241,464.545 464.545,484.849 464.545,509.897 C464.545,534.945 444.241,555.257 419.193,555.257 z" fill="#000000" fill-opacity="0.798"/>
    <path d="M420.777,464.521 C395.737,465.393 374.737,445.809 373.865,420.777 C372.993,395.745 392.577,374.737 417.609,373.865 C442.641,372.993 463.641,392.577 464.521,417.609 C465.393,442.641 445.809,463.641 420.777,464.521 z" fill="#000000" fill-opacity="0.798"/>
    <path d="M419.985,283.136 C445.025,283.568 464.977,304.232 464.537,329.273 C464.097,354.321 443.441,374.265 418.401,373.833 C393.353,373.393 373.409,352.737 373.841,327.689 C374.281,302.648 394.937,282.696 419.985,283.136 z" fill="#000000" fill-opacity="0.798"/>
    <path d="M419.985,192.424 C445.025,192.864 464.977,213.52 464.537,238.568 C464.097,263.608 443.441,283.56 418.401,283.12 C393.353,282.68 373.409,262.024 373.841,236.984 C374.281,211.936 394.937,191.992 419.985,192.424 z" fill="#000000" fill-opacity="0.798"/>
    <path d="M329.272,101.72 C354.32,102.152 374.265,122.808 373.833,147.856 C373.393,172.904 352.737,192.848 327.688,192.408 C302.648,191.976 282.696,171.32 283.136,146.272 C283.568,121.224 304.232,101.28 329.272,101.72 z" fill="#000000" fill-opacity="0.798"/>
    <path d="M238.56,101.72 C263.608,102.152 283.56,122.808 283.12,147.856 C282.68,172.904 262.024,192.848 236.984,192.408 C211.936,191.976 191.984,171.32 192.424,146.272 C192.864,121.224 213.52,101.28 238.56,101.72 z" fill="#000000" fill-opacity="0.798"/>
    <path d="M147.856,101.72 C172.896,102.152 192.848,122.808 192.408,147.856 C191.976,172.904 171.32,192.848 146.272,192.408 C121.224,191.976 101.28,171.32 101.712,146.272 C102.152,121.224 122.808,101.28 147.856,101.72 z" fill="#000000" fill-opacity="0.798"/>
    <path d="M600.609,555.257 C575.561,555.257 555.257,534.953 555.257,509.897 C555.257,484.849 575.561,464.545 600.609,464.545 C625.657,464.545 645.961,484.849 645.961,509.897 C645.961,534.953 625.657,555.257 600.609,555.257 z" fill="#000000" fill-opacity="0.798"/>
    <path d="M602.193,464.521 C577.161,465.393 556.153,445.809 555.281,420.777 C554.409,395.745 573.993,374.737 599.025,373.865 C624.057,372.993 645.065,392.577 645.937,417.609 C646.809,442.641 627.225,463.641 602.193,464.521 z" fill="#000000" fill-opacity="0.798"/>
    <path d="M601.401,283.136 C626.441,283.576 646.393,304.232 645.953,329.273 C645.521,354.321 624.865,374.265 599.817,373.833 C574.769,373.393 554.825,352.737 555.257,327.689 C555.697,302.648 576.353,282.696 601.401,283.136 z" fill="#000000" fill-opacity="0.798"/>
    <path d="M601.401,192.424 C626.441,192.864 646.393,213.52 645.953,238.568 C645.521,263.608 624.865,283.56 599.817,283.12 C574.769,282.68 554.825,262.024 555.257,236.984 C555.697,211.936 576.353,191.992 601.401,192.424 z" fill="#000000" fill-opacity="0.798"/>
    <path d="M601.401,101.72 C626.441,102.152 646.393,122.808 645.953,147.856 C645.521,172.904 624.865,192.848 599.817,192.408 C574.769,191.976 554.825,171.32 555.257,146.272 C555.697,121.232 576.353,101.28 601.401,101.72 z" fill="#000000" fill-opacity="0.798"/>
    <path d="M963.441,555.257 C938.393,555.257 918.089,534.953 918.089,509.905 C918.089,484.849 938.393,464.545 963.441,464.545 C988.489,464.545 1008.801,484.849 1008.801,509.905 C1008.801,534.953 988.489,555.257 963.441,555.257 z" fill="#000000" fill-opacity="0.798"/>
    <path d="M965.025,464.521 C939.993,465.393 918.993,445.809 918.113,420.777 C917.241,395.745 936.825,374.737 961.857,373.865 C986.897,372.993 1007.897,392.577 1008.769,417.609 C1009.641,442.641 990.057,463.649 965.025,464.521 z" fill="#000000" fill-opacity="0.798"/>
    <path d="M964.233,283.136 C989.281,283.576 1009.225,304.232 1008.793,329.273 C1008.353,354.321 987.697,374.265 962.649,373.833 C937.609,373.393 917.657,352.737 918.097,327.689 C918.529,302.648 939.193,282.696 964.233,283.136 z" fill="#000000" fill-opacity="0.798"/>
    <path d="M964.233,192.424 C989.281,192.864 1009.225,213.52 1008.793,238.568 C1008.353,263.608 987.697,283.56 962.649,283.12 C937.609,282.688 917.657,262.024 918.097,236.984 C918.529,211.936 939.193,191.992 964.233,192.424 z" fill="#000000" fill-opacity="0.798"/>
    <path d="M873.529,101.72 C898.569,102.152 918.521,122.808 918.081,147.856 C917.641,172.904 896.985,192.848 871.945,192.416 C846.897,191.976 826.953,171.32 827.385,146.272 C827.825,121.232 848.481,101.28 873.529,101.72 z" fill="#000000" fill-opacity="0.798"/>
    <path d="M782.817,101.72 C807.865,102.152 827.809,122.808 827.369,147.856 C826.937,172.904 806.281,192.848 781.233,192.416 C756.185,191.976 736.241,171.32 736.681,146.272 C737.113,121.232 757.769,101.28 782.817,101.72 z" fill="#000000" fill-opacity="0.798"/>
    <path d="M692.105,101.72 C717.153,102.152 737.097,122.808 736.665,147.856 C736.225,172.904 715.569,192.848 690.521,192.416 C665.481,191.976 645.529,171.32 645.969,146.272 C646.409,121.232 667.065,101.28 692.105,101.72 z" fill="#000000" fill-opacity="0.798"/>
    <path d="M601.401,11.008 C626.441,11.448 646.393,32.104 645.953,57.144 C645.521,82.192 624.865,102.144 599.817,101.704 C574.769,101.264 554.825,80.608 555.257,55.568 C555.697,30.52 576.353,10.568 601.401,11.008 z" fill="#000000" fill-opacity="0.798"/>
    <path d="M1144.858,555.257 C1119.81,555.257 1099.505,534.945 1099.505,509.897 C1099.505,484.849 1119.81,464.545 1144.858,464.545 C1169.906,464.545 1190.218,484.849 1190.218,509.897 C1190.218,534.945 1169.906,555.257 1144.858,555.257 z" fill="#000000" fill-opacity="0.798"/>
    <path d="M1146.442,464.521 C1121.41,465.393 1100.41,445.809 1099.537,420.777 C1098.657,395.737 1118.242,374.737 1143.282,373.865 C1168.314,372.993 1189.314,392.577 1190.186,417.609 C1191.066,442.641 1171.474,463.641 1146.442,464.521 z" fill="#000000" fill-opacity="0.798"/>
    <path d="M1145.65,283.136 C1170.698,283.568 1190.642,304.232 1190.21,329.273 C1189.77,354.321 1169.114,374.265 1144.066,373.833 C1119.026,373.393 1099.073,352.737 1099.514,327.689 C1099.953,302.648 1120.609,282.696 1145.65,283.136 z" fill="#000000" fill-opacity="0.798"/>
    <path d="M1145.65,192.424 C1170.698,192.864 1190.642,213.52 1190.21,238.568 C1189.77,263.608 1169.114,283.56 1144.066,283.12 C1119.026,282.68 1099.073,262.024 1099.514,236.984 C1099.953,211.936 1120.609,191.992 1145.65,192.424 z" fill="#000000" fill-opacity="0.798"/>
    <path d="M1145.65,101.72 C1170.698,102.152 1190.642,122.808 1190.21,147.856 C1189.77,172.896 1169.114,192.848 1144.066,192.408 C1119.026,191.976 1099.073,171.32 1099.514,146.272 C1099.953,121.224 1120.609,101.28 1145.65,101.72 z" fill="#000000" fill-opacity="0.798"/>
    <path d="M1507.698,555.257 C1482.65,555.257 1462.338,534.945 1462.338,509.897 C1462.338,484.849 1482.65,464.545 1507.698,464.545 C1532.746,464.545 1553.05,484.849 1553.05,509.897 C1553.05,534.945 1532.746,555.257 1507.698,555.257 z" fill="#000000" fill-opacity="0.798"/>
    <path d="M1509.282,464.521 C1484.242,465.393 1463.242,445.809 1462.37,420.777 C1461.498,395.745 1481.082,374.737 1506.114,373.865 C1531.146,372.993 1552.146,392.577 1553.026,417.609 C1553.898,442.641 1534.314,463.641 1509.282,464.521 z" fill="#000000" fill-opacity="0.798"/>
    <path d="M1508.49,283.136 C1533.53,283.568 1553.482,304.232 1553.042,329.273 C1552.602,354.321 1531.946,374.265 1506.906,373.833 C1481.858,373.393 1461.914,352.737 1462.346,327.689 C1462.786,302.648 1483.442,282.696 1508.49,283.136 z" fill="#000000" fill-opacity="0.798"/>
    <path d="M1508.49,192.424 C1533.53,192.864 1553.482,213.52 1553.042,238.568 C1552.602,263.608 1531.946,283.56 1506.906,283.12 C1481.858,282.68 1461.914,262.024 1462.346,236.984 C1462.786,211.936 1483.442,191.992 1508.49,192.424 z" fill="#000000" fill-opacity="0.798"/>
    <path d="M1417.778,101.72 C1442.826,102.152 1462.77,122.808 1462.338,147.856 C1461.898,172.904 1441.242,192.848 1416.194,192.408 C1391.154,191.976 1371.202,171.32 1371.642,146.272 C1372.074,121.224 1392.73,101.28 1417.778,101.72 z" fill="#000000" fill-opacity="0.798"/>
    <path d="M1327.066,101.72 C1352.114,102.152 1372.066,122.808 1371.626,147.856 C1371.186,172.904 1350.53,192.848 1325.49,192.408 C1300.442,191.976 1280.49,171.32 1280.93,146.272 C1281.37,121.224 1302.026,101.28 1327.066,101.72 z" fill="#000000" fill-opacity="0.798"/>
    <path d="M1236.362,192.424 C1261.41,192.864 1281.354,213.52 1280.914,238.568 C1280.482,263.608 1259.826,283.56 1234.778,283.12 C1209.73,282.68 1189.786,262.024 1190.226,236.984 C1190.658,211.936 1211.314,191.992 1236.362,192.424 z" fill="#000000" fill-opacity="0.798"/>
    <path d="M1417.778,192.424 C1442.826,192.864 1462.77,213.52 1462.338,238.568 C1461.898,263.608 1441.242,283.56 1416.194,283.12 C1391.154,282.68 1371.202,262.024 1371.642,236.984 C1372.074,211.936 1392.738,191.992 1417.778,192.424 z" fill="#000000" fill-opacity="0.798"/>
    <path d="M1236.362,283.136 C1261.41,283.568 1281.354,304.232 1280.914,329.273 C1280.482,354.321 1259.826,374.265 1234.778,373.833 C1209.73,373.393 1189.786,352.737 1190.226,327.689 C1190.658,302.648 1211.314,282.696 1236.362,283.136 z" fill="#000000" fill-opacity="0.798"/>
    <path d="M1236.362,373.841 C1261.41,374.281 1281.354,394.937 1280.914,419.985 C1280.482,445.025 1259.826,464.977 1234.778,464.537 C1209.73,464.105 1189.786,443.441 1190.226,418.401 C1190.658,393.353 1211.314,373.409 1236.362,373.841 z" fill="#000000" fill-opacity="0.798"/>
    <path d="M1236.362,464.553 C1261.41,464.993 1281.354,485.649 1280.914,510.689 C1280.482,535.737 1259.826,555.681 1234.778,555.249 C1209.73,554.809 1189.786,534.153 1190.226,509.105 C1190.658,484.065 1211.314,464.113 1236.362,464.553 z" fill="#000000" fill-opacity="0.798"/>
    <path d="M1689.115,555.257 C1664.066,555.257 1643.762,534.953 1643.762,509.897 C1643.762,484.849 1664.066,464.545 1689.115,464.545 C1714.162,464.545 1734.467,484.849 1734.467,509.897 C1734.467,534.953 1714.162,555.257 1689.115,555.257 z" fill="#000000" fill-opacity="0.798"/>
    <path d="M1690.698,464.521 C1665.666,465.393 1644.658,445.809 1643.786,420.777 C1642.914,395.745 1662.498,374.737 1687.53,373.865 C1712.562,372.993 1733.562,392.577 1734.443,417.609 C1735.314,442.641 1715.73,463.641 1690.698,464.521 z" fill="#000000" fill-opacity="0.798"/>
    <path d="M1689.906,283.136 C1714.947,283.576 1734.899,304.232 1734.458,329.273 C1734.026,354.321 1713.362,374.265 1688.322,373.833 C1663.274,373.393 1643.33,352.737 1643.762,327.689 C1644.202,302.648 1664.858,282.696 1689.906,283.136 z" fill="#000000" fill-opacity="0.798"/>
    <path d="M1689.906,192.424 C1714.947,192.864 1734.899,213.52 1734.458,238.568 C1734.026,263.608 1713.362,283.56 1688.322,283.12 C1663.274,282.68 1643.33,262.024 1643.762,236.984 C1644.202,211.936 1664.858,191.992 1689.906,192.424 z" fill="#000000" fill-opacity="0.798"/>
    <path d="M1689.906,101.72 C1714.947,102.152 1734.899,122.808 1734.458,147.856 C1734.026,172.904 1713.362,192.848 1688.322,192.408 C1663.274,191.976 1643.33,171.32 1643.762,146.272 C1644.202,121.232 1664.858,101.28 1689.906,101.72 z" fill="#000000" fill-opacity="0.798"/>
    <path d="M2051.947,555.257 C2026.899,555.257 2006.595,534.953 2006.595,509.905 C2006.595,484.849 2026.899,464.545 2051.947,464.545 C2076.995,464.545 2097.299,484.849 2097.299,509.905 C2097.299,534.953 2076.995,555.257 2051.947,555.257 z" fill="#000000" fill-opacity="0.798"/>
    <path d="M2053.531,464.521 C2028.499,465.393 2007.499,445.809 2006.619,420.777 C2005.747,395.745 2025.331,374.737 2050.363,373.865 C2075.395,372.993 2096.403,392.577 2097.275,417.609 C2098.147,442.641 2078.563,463.649 2053.531,464.521 z" fill="#000000" fill-opacity="0.798"/>
    <path d="M2052.739,283.136 C2077.787,283.576 2097.731,304.232 2097.299,329.273 C2096.859,354.321 2076.203,374.265 2051.155,373.833 C2026.115,373.393 2006.163,352.737 2006.603,327.689 C2007.035,302.648 2027.699,282.696 2052.739,283.136 z" fill="#000000" fill-opacity="0.798"/>
    <path d="M2052.739,192.424 C2077.787,192.864 2097.731,213.52 2097.299,238.568 C2096.859,263.608 2076.203,283.56 2051.155,283.12 C2026.115,282.688 2006.163,262.024 2006.603,236.984 C2007.035,211.936 2027.699,191.992 2052.739,192.424 z" fill="#000000" fill-opacity="0.798"/>
    <path d="M1962.035,192.424 C1987.075,192.864 2007.027,213.52 2006.587,238.568 C2006.147,263.608 1985.491,283.56 1960.451,283.12 C1935.403,282.68 1915.459,262.024 1915.891,236.984 C1916.331,211.936 1936.987,191.992 1962.035,192.424 z" fill="#000000" fill-opacity="0.798"/>
    <path d="M1962.035,101.72 C1987.075,102.152 2007.027,122.808 2006.587,147.856 C2006.147,172.904 1985.491,192.848 1960.451,192.416 C1935.403,191.976 1915.451,171.32 1915.891,146.272 C1916.331,121.232 1936.987,101.28 1962.035,101.72 z" fill="#000000" fill-opacity="0.798"/>
    <path d="M1871.323,101.72 C1896.363,102.152 1916.315,122.808 1915.875,147.856 C1915.443,172.904 1894.787,192.848 1869.739,192.416 C1844.691,191.976 1824.747,171.32 1825.187,146.272 C1825.619,121.232 1846.275,101.28 1871.323,101.72 z" fill="#000000" fill-opacity="0.798"/>
    <path d="M1780.611,101.72 C1805.659,102.152 1825.603,122.808 1825.171,147.856 C1824.731,172.904 1804.075,192.848 1779.027,192.416 C1753.987,191.976 1734.035,171.32 1734.474,146.272 C1734.915,121.232 1755.571,101.28 1780.611,101.72 z" fill="#000000" fill-opacity="0.798"/>
    <path d="M1780.611,192.424 C1805.659,192.864 1825.611,213.52 1825.171,238.568 C1824.731,263.608 1804.075,283.56 1779.035,283.12 C1753.987,282.68 1734.035,262.024 1734.474,236.984 C1734.915,211.936 1755.571,191.992 1780.611,192.424 z" fill="#000000" fill-opacity="0.798"/>
    <path d="M1780.611,283.136 C1805.659,283.568 1825.611,304.232 1825.171,329.273 C1824.731,354.321 1804.075,374.265 1779.035,373.833 C1753.987,373.393 1734.035,352.737 1734.474,327.689 C1734.915,302.648 1755.571,282.696 1780.611,283.136 z" fill="#000000" fill-opacity="0.798"/>
    <path d="M1780.611,373.841 C1805.659,374.281 1825.611,394.937 1825.171,419.985 C1824.731,445.025 1804.075,464.977 1779.035,464.537 C1753.987,464.105 1734.035,443.441 1734.474,418.401 C1734.915,393.353 1755.571,373.409 1780.611,373.841 z" fill="#000000" fill-opacity="0.798"/>
    <path d="M1780.611,464.553 C1805.659,464.993 1825.611,485.649 1825.171,510.689 C1824.731,535.737 1804.075,555.681 1779.035,555.249 C1753.987,554.809 1734.035,534.153 1734.474,509.105 C1734.915,484.065 1755.571,464.113 1780.611,464.553 z" fill="#000000" fill-opacity="0.798"/>
    <path d="M1689.906,11.008 C1714.947,11.448 1734.899,32.104 1734.458,57.144 C1734.026,82.192 1713.362,102.144 1688.322,101.704 C1663.274,101.264 1643.33,80.608 1643.762,55.568 C1644.202,30.52 1664.858,10.568 1689.906,11.008 z" fill="#000000" fill-opacity="0.798"/>
    <path d="M1780.913,11.008 C1805.953,11.448 1825.905,32.104 1825.465,57.144 C1825.033,82.192 1804.369,102.144 1779.329,101.704 C1754.281,101.264 1734.337,80.608 1734.769,55.568 C1735.209,30.52 1755.865,10.568 1780.913,11.008 z" fill="#000000" fill-opacity="0.798"/>
  </g>
</svg>
